<?xml version="1.0" encoding="UTF-8"?>
<svg version="1.1" xmlns="http://www.w3.org/2000/svg" width="512" height="512">
<path d="M0 0 C0.74698179 -0.00265183 1.49396358 -0.00530365 2.26358119 -0.00803584 C4.78067094 -0.0157295 7.29771192 -0.01628804 9.81481266 -0.01688576 C11.63216259 -0.02090035 13.44951163 -0.02533857 15.26685959 -0.03016531 C20.27221919 -0.04213726 25.27756915 -0.04778072 30.28294027 -0.05234647 C35.6771768 -0.05830028 41.07140178 -0.06991075 46.46563053 -0.08063698 C59.4993609 -0.10516713 72.5330951 -0.11978959 85.56684145 -0.13269705 C89.24805315 -0.13640871 92.92926446 -0.14038197 96.61047578 -0.14444971 C119.46869421 -0.16968734 142.32691323 -0.19174121 165.18514252 -0.20417786 C170.48064965 -0.20710757 175.77615677 -0.21006923 181.07166386 -0.21308327 C182.38784354 -0.21382932 183.70402323 -0.21457537 185.06008715 -0.21534403 C206.37770006 -0.22799552 227.69521259 -0.26121535 249.01278996 -0.3028851 C270.89793009 -0.34531362 292.78302751 -0.36887401 314.66820866 -0.37409842 C326.95633484 -0.37751162 339.24433065 -0.38925614 351.53241634 -0.42220116 C361.99859391 -0.45021543 372.46461439 -0.4611949 382.93082654 -0.4500057 C388.26916785 -0.44482253 393.60718024 -0.44768392 398.94547367 -0.47247124 C403.83808051 -0.494999 408.73012283 -0.49419628 413.6227398 -0.47526737 C415.387316 -0.47247231 417.15193077 -0.47803823 418.91644507 -0.4930803 C434.69485853 -0.61930104 446.57050812 2.60746298 458.31311893 13.71904564 C465.85583353 21.70887992 469.7970157 31.63258559 469.77825832 42.46453571 C469.78091015 43.20814076 469.78356198 43.9517458 469.78629416 44.71788433 C469.79398755 47.22348734 469.79454635 49.72904134 469.79514408 52.23465538 C469.79915869 54.04375572 469.80359691 55.85285516 469.80842364 57.66195351 C469.82039539 62.64450996 469.826039 67.62705673 469.83060479 72.60962474 C469.83655867 77.97932119 469.84816913 83.34900605 469.8588953 88.71869469 C469.8834253 101.69309933 469.8980479 114.66750782 469.91095537 127.64192852 C469.91466705 131.30640212 469.9186403 134.97087534 469.92270803 138.63534856 C469.9479457 161.38976524 469.96999951 184.14418252 469.98243618 206.89861012 C469.9853659 212.17005414 469.98832756 217.44149815 469.99134159 222.71294212 C469.99208764 224.02314058 469.99283369 225.33333904 469.99360235 226.68324048 C470.00625377 247.90385119 470.03947353 269.12437807 470.08114342 290.3449496 C470.12357236 312.13064864 470.14713238 333.91630477 470.15235674 355.70204502 C470.1557699 367.93428011 470.16751387 380.16638423 470.20045948 392.39857864 C470.22847433 402.81717926 470.23945297 413.23562205 470.22826402 423.65425741 C470.223081 428.9682961 470.22594129 434.28200436 470.25072956 439.59599495 C470.27325851 444.46639755 470.2724537 449.33623307 470.25352569 454.20664585 C470.2507308 455.96314677 470.25629563 457.71968645 470.27133863 459.47612517 C470.39792991 475.22757214 467.1493012 487.08899338 456.05921268 498.80888939 C448.05664871 506.36362132 438.12901678 510.29272467 427.28248787 510.27402878 C426.53550608 510.2766806 425.78852429 510.27933243 425.01890668 510.28206462 C422.50181692 510.28975827 419.98477595 510.29031682 417.46767521 510.29091454 C415.65032528 510.29492913 413.83297624 510.29936734 412.01562828 510.30419409 C407.01026868 510.31616603 402.00491872 510.3218095 396.9995476 510.32637525 C391.60531107 510.33232905 386.21108609 510.34393953 380.81685734 510.35466576 C367.78312697 510.37919591 354.74939277 510.39381837 341.71564642 510.40672582 C338.03443472 510.41043749 334.35322341 510.41441075 330.67201209 510.41847849 C307.81379366 510.44371612 284.95557464 510.46576999 262.09734535 510.47820663 C256.80183822 510.48113635 251.5063311 510.48409801 246.21082401 510.48711205 C244.23655448 510.48823112 244.23655448 510.48823112 242.22240072 510.4893728 C220.90478781 510.5020243 199.58727528 510.53524413 178.26969791 510.57691388 C156.38455778 510.61934239 134.49946036 510.64290279 112.61427921 510.6481272 C100.32615303 510.6515404 88.03815722 510.66328492 75.75007153 510.69622993 C65.28389396 510.72424421 54.81787348 510.73522368 44.35166133 510.72403447 C39.01332002 510.71885131 33.67530763 510.7217127 28.3370142 510.74650002 C23.44440736 510.76902778 18.55236504 510.76822506 13.65974807 510.74929614 C11.89517187 510.74650109 10.1305571 510.75206701 8.3660428 510.76710908 C-7.41237067 510.89332982 -19.28802025 507.6665658 -31.03063107 496.55498314 C-38.57334566 488.56514886 -42.51452783 478.64144319 -42.49577045 467.80949306 C-42.49842228 467.06588802 -42.50107411 466.32228298 -42.50380629 465.55614445 C-42.51149969 463.05054144 -42.51205848 460.54498743 -42.51265621 458.0393734 C-42.51667082 456.23027306 -42.52110904 454.42117362 -42.52593577 452.61207527 C-42.53790752 447.62951882 -42.54355113 442.64697205 -42.54811692 437.66440403 C-42.55407081 432.29470758 -42.56568126 426.92502273 -42.57640743 421.55533409 C-42.60093743 408.58092944 -42.61556003 395.60652096 -42.6284675 382.63210025 C-42.63217918 378.96762666 -42.63615243 375.30315344 -42.64022017 371.63868022 C-42.66545783 348.88426354 -42.68751164 326.12984626 -42.69994831 303.37541866 C-42.70287803 298.10397464 -42.70583969 292.83253063 -42.70885372 287.56108665 C-42.70959977 286.2508882 -42.71034582 284.94068974 -42.71111448 283.5907883 C-42.7237659 262.37017759 -42.75698566 241.14965071 -42.79865555 219.92907918 C-42.84108449 198.14338014 -42.86464452 176.357724 -42.86986887 154.57198375 C-42.87328203 142.33974867 -42.885026 130.10764455 -42.91797161 117.87545013 C-42.94598646 107.45684952 -42.9569651 97.03840672 -42.94577615 86.61977137 C-42.94059313 81.30573268 -42.94345342 75.99202442 -42.96824169 70.67803383 C-42.99077064 65.80763123 -42.98996583 60.93779571 -42.97103782 56.06738292 C-42.96824293 54.31088201 -42.97380777 52.55434233 -42.98885076 50.7979036 C-43.11544204 35.04645663 -39.86681333 23.1850354 -28.77672482 11.46513939 C-20.77416084 3.91040746 -10.84652891 -0.0186959 0 0 Z M-7.17125607 34.57451439 C-24.57158183 54.95775314 -12.35875607 115.5676933 -12.35875607 120.13701439 C136.80124393 120.13701439 285.96124393 120.13701439 439.64124393 120.13701439 C446.69287291 74.27260409 446.69287291 74.27260409 435.20374393 35.32451439 C429.35570057 30.33228224 424.97794085 30.01253222 417.45502758 30.00837994 C416.73886184 30.0066269 416.0226961 30.00487386 415.28482836 30.0030677 C412.87864072 29.99840589 410.47251346 30.00087367 408.06632328 30.00330162 C406.3263306 30.00143374 404.58633833 29.99913313 402.84634674 29.9964363 C398.05968885 29.99030907 393.27304841 29.99045298 388.48638749 29.99163067 C383.32609966 29.99183445 378.16581748 29.98631819 373.00553226 29.9815731 C362.89386902 29.97326108 352.78221161 29.97051802 342.67054524 29.96996073 C334.45323614 29.96948585 326.23592898 29.96743255 318.01862049 29.9642601 C294.73118291 29.95545224 271.44374995 29.95084096 248.15631069 29.95159058 C246.27254161 29.95165051 246.27254161 29.95165051 244.35071659 29.95171165 C243.09334084 29.95175254 241.83596508 29.95179342 240.54048704 29.95183554 C220.15656802 29.95224211 199.77266746 29.94267013 179.38875379 29.92857329 C158.46864081 29.91421955 137.54853684 29.90730254 116.6284188 29.90816706 C104.87934043 29.90849937 93.13028141 29.90573768 81.38120747 29.89498901 C71.37897494 29.88589722 61.37677055 29.8836979 51.37453569 29.89049844 C46.26994238 29.89377025 41.16540308 29.89379652 36.06081486 29.88514519 C31.38891386 29.8773085 26.71710997 29.87868255 22.04521142 29.88742932 C20.35413 29.88897056 18.66304143 29.88712477 16.97196843 29.88156924 C14.67424203 29.87452004 12.37685733 29.87979414 10.07914257 29.88812542 C8.16429143 29.88779937 8.16429143 29.88779937 6.21075642 29.88746673 C0.88127591 30.26005525 -3.09599035 31.04261743 -7.17125607 34.57451439 Z M-12.35875607 150.13701439 C-12.40000607 201.96763939 -12.44125607 253.79826439 -12.48375607 307.19951439 C-12.50196407 323.58100121 -12.52017208 339.96248802 -12.53893185 356.84038353 C-12.54561963 371.49113232 -12.54561963 371.49113232 -12.54964352 386.14188194 C-12.55151106 392.68075556 -12.55885786 399.21959514 -12.56990719 405.75845909 C-12.58262793 413.29757574 -12.58843027 420.83665964 -12.58564597 428.37578711 C-12.58443987 432.23328005 -12.58636712 436.09069981 -12.59718633 439.94817936 C-12.60869826 444.07770689 -12.60474911 448.20707473 -12.5992651 452.33661461 C-12.60509043 453.5415277 -12.61091576 454.74644079 -12.61691761 455.9878664 C-12.70089741 466.23033106 -12.70089741 466.23033106 -7.92125607 474.94951439 C-2.0732127 479.94174653 2.30454702 480.26149655 9.82746029 480.26564884 C10.9017089 480.2682784 10.9017089 480.2682784 11.9976595 480.27096108 C14.40384715 480.27562289 16.80997441 480.27315511 19.21616459 480.27072716 C20.95615727 480.27259504 22.69614954 480.27489565 24.43614113 480.27759248 C29.22279902 480.2837197 34.00943946 480.2835758 38.79610038 480.2823981 C43.95638821 480.28219433 49.11667039 480.28771059 54.2769556 480.29245567 C64.38861885 480.3007677 74.50027626 480.30351076 84.61194263 480.30406805 C92.82925173 480.30454292 101.04655889 480.30659623 109.26386738 480.30976868 C132.55130496 480.31857654 155.83873792 480.32318781 179.12617718 480.3224382 C180.38202323 480.32239825 181.63786928 480.32235829 182.93177128 480.32231712 C184.18914703 480.32227624 185.44652278 480.32223536 186.74200083 480.32219324 C207.12591985 480.32178667 227.50982041 480.33135865 247.89373408 480.34545549 C268.81384706 480.35980923 289.73395103 480.36672624 310.65406907 480.36586171 C322.40314744 480.36552941 334.15220646 480.36829109 345.9012804 480.37903976 C355.90351293 480.38813156 365.90571732 480.39033088 375.90795217 480.38353034 C381.01254549 480.38025853 386.11708479 480.38023226 391.22167301 480.38888359 C395.89357401 480.39672028 400.5653779 480.39534623 405.23727645 480.38659946 C406.92835787 480.38505822 408.61944644 480.38690401 410.31051944 480.39245953 C412.60824584 480.39950874 414.90563054 480.39423464 417.2033453 480.38590336 C419.11819644 480.38622941 419.11819644 480.38622941 421.07173145 480.38656205 C426.40121196 480.01397352 430.37847821 479.23141135 434.45374393 475.69951439 C438.97709114 470.40073623 439.76700267 466.42022252 439.76429176 459.6023035 C439.76628263 458.49473257 439.76827351 457.38716164 439.77032471 456.24602795 C439.76741204 455.03528953 439.76449938 453.82455111 439.76149845 452.57712364 C439.76235447 451.28964729 439.76321049 450.00217094 439.76409245 448.67568016 C439.76633588 445.09695566 439.76232131 441.51826107 439.75731666 437.93954037 C439.7529527 434.02299829 439.7544111 430.1064576 439.75513458 426.18991375 C439.75566645 418.58582157 439.75104709 410.98174119 439.74463325 403.37765204 C439.73743693 394.58279802 439.7366387 385.7879511 439.73584843 376.99309349 C439.73059679 353.77023192 439.7166357 330.54737298 439.70374393 307.32451439 C439.68311893 255.45263939 439.66249393 203.58076439 439.64124393 150.13701439 C290.48124393 150.13701439 141.32124393 150.13701439 -12.35875607 150.13701439 Z " fill="#ffffff" transform="translate(42.35875606536865,0.8629856109619141)"/>
<path d="M0 0 C4.62000676 2.18842425 6.71400188 4.50142423 9 9 C10.36230489 17.42906429 8.29288328 24.29851469 4.77734375 31.8671875 C4.32976715 32.87881454 3.88219055 33.89044159 3.42105103 34.932724 C2.4529483 37.1140003 1.47479562 39.29083888 0.48757935 41.46353149 C-1.0977074 44.95248567 -2.65673937 48.45214866 -4.20922852 51.95581055 C-5.83641593 55.62741885 -7.46418237 59.29868443 -9.10173035 62.96568298 C-14.21221601 74.4158211 -19.14006156 85.94079347 -24.02908325 97.48703003 C-26.40546681 103.09800574 -28.79104436 108.70507071 -31.17578125 114.3125 C-31.65210495 115.43305283 -32.12842865 116.55360565 -32.6191864 117.70811462 C-39.08468807 132.91260898 -45.59392763 148.0984572 -52.11816406 163.27783203 C-56.61460069 173.74296536 -61.09920191 184.21219882 -65.51727295 194.71070862 C-67.44326166 199.28587081 -69.37770939 203.85743442 -71.31268311 208.42880249 C-72.22030544 210.58011926 -73.12359544 212.73326958 -74.02227783 214.88833618 C-75.257919 217.85083532 -76.50817188 220.80676119 -77.76171875 223.76171875 C-78.11899551 224.62977142 -78.47627228 225.4978241 -78.84437561 226.3921814 C-81.44766904 232.47036086 -84.413487 236.275658 -90 240 C-95.55398223 240.68923878 -100.47110145 240.7242151 -105.5625 238.3125 C-108.7531848 235.28544006 -110.72977206 232.67199626 -111.44142151 228.26876831 C-111.46768293 220.64333381 -109.97243722 215.0115908 -106.77734375 208.1328125 C-106.32976715 207.12118546 -105.88219055 206.10955841 -105.42105103 205.067276 C-104.4529483 202.8859997 -103.47479562 200.70916112 -102.48757935 198.53646851 C-100.9022926 195.04751433 -99.34326063 191.54785134 -97.79077148 188.04418945 C-96.16358407 184.37258115 -94.53581763 180.70131557 -92.89826965 177.03431702 C-87.78778399 165.5841789 -82.85993844 154.05920653 -77.97091675 142.51296997 C-75.59453319 136.90199426 -73.20895564 131.29492929 -70.82421875 125.6875 C-70.1097332 124.00667076 -70.1097332 124.00667076 -69.3808136 122.29188538 C-62.91531193 107.08739102 -56.40607237 91.9015428 -49.88183594 76.72216797 C-45.38539931 66.25703464 -40.90079809 55.78780118 -36.48272705 45.28929138 C-34.55673834 40.71412919 -32.62229061 36.14256558 -30.68731689 31.57119751 C-29.77969456 29.41988074 -28.87640456 27.26673042 -27.97772217 25.11166382 C-26.742081 22.14916468 -25.49182812 19.19323881 -24.23828125 16.23828125 C-23.88100449 15.37022858 -23.52372772 14.5021759 -23.15562439 13.6078186 C-18.38048717 2.45880994 -11.99285378 -1.28494862 0 0 Z " fill="#ffffff" transform="translate(307,196)"/>
<path d="M0 0 C3.52762022 1.74546439 6.39506895 4.03666028 9.37011719 6.60009766 C11.21491545 8.18459035 13.09269561 9.7238955 14.9765625 11.26171875 C17.90623197 13.65698924 20.82399359 16.06571216 23.734375 18.484375 C27.46353972 21.57253737 31.24294886 24.58721862 35.0625 27.5625 C40.09204065 31.48159442 45.06044798 35.46806258 50 39.5 C55.11137402 43.66987002 60.24787367 47.80284537 65.4375 51.875 C66.01218018 52.32697754 66.58686035 52.77895508 67.17895508 53.24462891 C69.68782695 55.21221431 72.20967016 57.15636419 74.765625 59.0625 C75.56484375 59.660625 76.3640625 60.25875 77.1875 60.875 C77.86167969 61.36742187 78.53585937 61.85984375 79.23046875 62.3671875 C82.28167779 65.18265191 83.81817817 67.78294037 84.43359375 71.90234375 C84.43488281 72.90394531 84.43617188 73.90554688 84.4375 74.9375 C84.45683594 75.93652344 84.47617187 76.93554688 84.49609375 77.96484375 C83.41411175 84.58452889 78.89187085 88.25242002 73.75 92.0625 C72.49369474 93.02069893 71.23853126 93.98039627 69.984375 94.94140625 C69.00500977 95.68801514 69.00500977 95.68801514 68.00585938 96.44970703 C64.61782281 99.06826012 61.31231004 101.7867504 58 104.5 C52.47751938 109.00870151 46.90813146 113.4484453 41.2890625 117.8359375 C36.81562679 121.33776726 32.40154839 124.9083745 28 128.5 C22.81944945 132.72307044 17.62158983 136.92164308 12.375 141.0625 C11.81941406 141.50335938 11.26382813 141.94421875 10.69140625 142.3984375 C3.78144803 147.82889128 -0.26066567 150.70624622 -9.15234375 150.38671875 C-13.02125037 149.86131168 -15.17639482 148.67880491 -18 146 C-20.66697465 142.26879988 -21.43161381 139.63606993 -21.4375 135.0625 C-21.45683594 134.06347656 -21.47617187 133.06445312 -21.49609375 132.03515625 C-20.41411175 125.41547111 -15.89187085 121.74757998 -10.75 117.9375 C-9.49369474 116.97930107 -8.23853126 116.01960373 -6.984375 115.05859375 C-6.00500977 114.31198486 -6.00500977 114.31198486 -5.00585938 113.55029297 C-1.61782123 110.93173866 1.68765324 108.213207 5 105.5 C10.53814662 100.97960665 16.11850433 96.52070749 21.75048828 92.11791992 C28.54575348 86.80222167 35.27148884 81.39977156 42 76 C40.46078927 71.78178326 37.34381024 69.65841488 33.875 67.0625 C32.60050794 66.08601026 31.32711296 65.10808737 30.0546875 64.12890625 C29.38920898 63.61859863 28.72373047 63.10829102 28.03808594 62.58251953 C24.64412215 59.9471969 21.32463457 57.22188285 18 54.5 C12.99243079 50.41389575 7.96095849 46.3631716 2.875 42.375 C2.31321045 41.93333496 1.7514209 41.49166992 1.17260742 41.03662109 C-1.82730724 38.68339205 -4.84353507 36.3542107 -7.87890625 34.046875 C-8.83482666 33.31331787 -8.83482666 33.31331787 -9.81005859 32.56494141 C-11.02505367 31.63307652 -12.24514176 30.70779909 -13.47119141 29.79052734 C-17.83231606 26.43178373 -20.60519959 23.64267304 -21.43359375 18.09765625 C-21.44150672 11.94928199 -21.4465054 7.68685704 -17 3 C-11.49563953 -0.86336714 -6.53967186 -1.20446367 0 0 Z " fill="#ffffff" transform="translate(352,241)"/>
<path d="M0 0 C4.61581142 2.18643699 6.72864085 4.49599804 9 9 C9.43359375 11.90234375 9.43359375 11.90234375 9.4375 14.9375 C9.45683594 15.93652344 9.47617188 16.93554688 9.49609375 17.96484375 C8.41411175 24.58452889 3.89187085 28.25242002 -1.25 32.0625 C-2.50630526 33.02069893 -3.76146874 33.98039627 -5.015625 34.94140625 C-5.66853516 35.43914551 -6.32144531 35.93688477 -6.99414062 36.44970703 C-10.38217877 39.06826134 -13.68765324 41.786793 -17 44.5 C-22.53814662 49.02039335 -28.11850433 53.47929251 -33.75048828 57.88208008 C-40.54575348 63.19777833 -47.27148884 68.60022844 -54 74 C-52.46078927 78.21821674 -49.34381024 80.34158512 -45.875 82.9375 C-44.60050794 83.91398974 -43.32711296 84.89191263 -42.0546875 85.87109375 C-41.38920898 86.38140137 -40.72373047 86.89170898 -40.03808594 87.41748047 C-36.64412215 90.0528031 -33.32463457 92.77811715 -30 95.5 C-24.99243079 99.58610425 -19.96095849 103.6368284 -14.875 107.625 C-14.31321045 108.06666504 -13.7514209 108.50833008 -13.17260742 108.96337891 C-10.17269276 111.31660795 -7.15646493 113.6457893 -4.12109375 115.953125 C-3.48381348 116.44216309 -2.8465332 116.93120117 -2.18994141 117.43505859 C-0.97494633 118.36692348 0.24514176 119.29220091 1.47119141 120.20947266 C5.83231606 123.56821627 8.60519959 126.35732696 9.43359375 131.90234375 C9.44150672 138.05071801 9.4465054 142.31314296 5 147 C0.34632387 150.26629398 -3.23645267 150.76586061 -8.83984375 150.58203125 C-14.06727007 149.61925434 -17.40607056 146.81550589 -21.37011719 143.39990234 C-23.21491545 141.81540965 -25.09269561 140.2761045 -26.9765625 138.73828125 C-29.90623197 136.34301076 -32.82399359 133.93428784 -35.734375 131.515625 C-39.46353972 128.42746263 -43.24294886 125.41278138 -47.0625 122.4375 C-52.09204065 118.51840558 -57.06044798 114.53193742 -62 110.5 C-67.11137402 106.33012998 -72.24787367 102.19715463 -77.4375 98.125 C-78.01218018 97.67302246 -78.58686035 97.22104492 -79.17895508 96.75537109 C-81.68782695 94.78778569 -84.20967016 92.84363581 -86.765625 90.9375 C-87.56484375 90.339375 -88.3640625 89.74125 -89.1875 89.125 C-89.86167969 88.63257813 -90.53585938 88.14015625 -91.23046875 87.6328125 C-94.28167779 84.81734809 -95.81817817 82.21705963 -96.43359375 78.09765625 C-96.43488281 77.09605469 -96.43617187 76.09445312 -96.4375 75.0625 C-96.45683594 74.06347656 -96.47617188 73.06445312 -96.49609375 72.03515625 C-95.41411175 65.41547111 -90.89187085 61.74757998 -85.75 57.9375 C-84.49369474 56.97930107 -83.23853126 56.01960373 -81.984375 55.05859375 C-81.33146484 54.56085449 -80.67855469 54.06311523 -80.00585938 53.55029297 C-76.61782281 50.93173988 -73.31231004 48.2132496 -70 45.5 C-64.47751938 40.99129849 -58.90813146 36.5515547 -53.2890625 32.1640625 C-48.81562679 28.66223274 -44.40154839 25.0916255 -40 21.5 C-34.81944945 17.27692956 -29.62158983 13.07835692 -24.375 8.9375 C-23.81941406 8.49664062 -23.26382813 8.05578125 -22.69140625 7.6015625 C-14.83439746 1.42683296 -10.11747617 -1.37397825 0 0 Z " fill="#ffffff" transform="translate(172,241)"/>
<path d="M0 0 C1.47893486 -0.01029488 1.47893486 -0.01029488 2.98774719 -0.02079773 C6.24336187 -0.03908255 9.49849543 -0.03522571 12.75415039 -0.02954102 C15.01949724 -0.03410201 17.28484271 -0.03940733 19.55018616 -0.04542542 C24.29718651 -0.05435985 29.04401865 -0.05192951 33.79101562 -0.04199219 C39.87194057 -0.03050244 45.95228485 -0.05071291 52.03313351 -0.07990932 C56.71118351 -0.09826213 61.38909413 -0.09798065 66.0671711 -0.0922718 C68.30904518 -0.09211848 70.55092864 -0.09817221 72.79276848 -0.11056328 C75.92862164 -0.12545354 79.06339907 -0.11480987 82.19921875 -0.09765625 C83.1235672 -0.10732422 84.04791565 -0.11699219 85.00027466 -0.12695312 C90.55057242 -0.06343101 93.77461631 0.6753459 98.16430664 4.40405273 C102.22061062 9.62665131 101.93828208 15.05745416 101.16430664 21.40405273 C98.99265771 25.98864491 96.73409543 28.2917682 92.16430664 30.40405273 C88.88568641 30.84651422 85.6330172 30.82416301 82.32861328 30.80810547 C80.84967842 30.81840034 80.84967842 30.81840034 79.34086609 30.8289032 C76.08525141 30.84718801 72.83011785 30.84333118 69.57446289 30.83764648 C67.30911604 30.84220747 65.04377057 30.8475128 62.77842712 30.85353088 C58.03142677 30.86246532 53.28459463 30.86003498 48.53759766 30.85009766 C42.45667271 30.83860791 36.37632844 30.85881838 30.29547977 30.88801479 C25.61742977 30.9063676 20.93951915 30.90608612 16.26144218 30.90037727 C14.0195681 30.90022395 11.77768464 30.90627767 9.5358448 30.91866875 C6.39999164 30.933559 3.26521421 30.92291534 0.12939453 30.90576172 C-0.79495392 30.91542969 -1.71930237 30.92509766 -2.67166138 30.93505859 C-8.22195914 30.87153648 -11.44600303 30.13275957 -15.83569336 26.40405273 C-19.89199734 21.18145416 -19.6096688 15.75065131 -18.83569336 9.40405273 C-14.71034071 0.69497492 -8.7737284 -0.04263536 0 0 Z " fill="#ffffff" transform="translate(349.835693359375,60.595947265625)"/>
<path d="M0 0 C4.61581142 2.18643699 6.72864085 4.49599804 9 9 C9.82885269 14.54808604 9.7240695 19.47140883 7.3125 24.5625 C4.21064779 27.8320199 1.61649202 29.75850523 -2.90234375 30.43359375 C-9.05071801 30.44150672 -13.31314296 30.4465054 -18 26 C-21.88937897 20.55860924 -21.79042609 15.48149391 -21 9 C-16.63929544 -0.20593186 -9.3488659 -1.1401056 0 0 Z " fill="#ffffff" transform="translate(202,61)"/>
<path d="M0 0 C4.61581142 2.18643699 6.72864085 4.49599804 9 9 C9.82885269 14.54808604 9.7240695 19.47140883 7.3125 24.5625 C4.21064779 27.8320199 1.61649202 29.75850523 -2.90234375 30.43359375 C-9.05071801 30.44150672 -13.31314296 30.4465054 -18 26 C-21.88937897 20.55860924 -21.79042609 15.48149391 -21 9 C-16.63929544 -0.20593186 -9.3488659 -1.1401056 0 0 Z " fill="#ffffff" transform="translate(142,61)"/>
<path d="M0 0 C4.61581142 2.18643699 6.72864085 4.49599804 9 9 C9.82885269 14.54808604 9.7240695 19.47140883 7.3125 24.5625 C4.21064779 27.8320199 1.61649202 29.75850523 -2.90234375 30.43359375 C-9.05071801 30.44150672 -13.31314296 30.4465054 -18 26 C-21.88937897 20.55860924 -21.79042609 15.48149391 -21 9 C-16.63929544 -0.20593186 -9.3488659 -1.1401056 0 0 Z " fill="#ffffff" transform="translate(82,61)"/>
</svg>
