<svg version="1.1" id="Layer_1" xmlns="http://www.w3.org/2000/svg" xmlns:xlink="http://www.w3.org/1999/xlink" x="0px" y="0px"
	 width="100%" viewBox="0 0 228 222" enable-background="new 0 0 228 222" xml:space="preserve">
<path fill="#222429" opacity="1.000000" stroke="none" 
	d="
M154.000000,223.000000 
	C102.666672,223.000000 51.833340,223.000000 1.000007,223.000000 
	C1.000005,149.000000 1.000005,75.000015 1.000002,1.000017 
	C76.999992,1.000011 152.999985,1.000011 228.999969,1.000006 
	C228.999985,74.999985 228.999985,148.999969 229.000000,222.999969 
	C204.166672,223.000000 179.333328,223.000000 154.000000,223.000000 
M87.119797,115.366158 
	C88.321938,121.766205 90.752174,124.158890 96.964874,124.461082 
	C101.618416,124.687431 106.291031,124.531105 110.955139,124.528969 
	C118.451065,124.525536 125.956253,124.737579 133.440369,124.434593 
	C141.254196,124.118248 144.722824,119.584190 143.007675,112.180885 
	C141.567398,105.964035 138.228668,101.035393 132.647141,97.542587 
	C126.625954,93.774651 120.082947,93.733337 113.379669,93.789368 
	C98.772339,93.911469 90.418304,100.436806 87.119797,115.366158 
M198.720886,61.284676 
	C200.452911,59.090111 202.663513,57.121582 203.826859,54.658436 
	C207.266281,47.376190 204.839493,38.384499 198.558365,33.608356 
	C191.889450,28.537338 182.658859,28.608917 175.895889,33.784103 
	C169.371872,38.776436 167.244629,47.019573 170.952042,54.705418 
	C172.416763,57.741924 171.807602,59.213692 169.285629,61.251183 
	C159.338013,69.287827 149.597168,77.582275 139.868118,85.884819 
	C138.795013,86.800591 138.290237,88.382378 137.521866,89.655273 
	C138.003113,90.089554 138.484344,90.523842 138.965576,90.958130 
	C141.070541,89.555344 143.317261,88.324005 145.256332,86.720596 
	C154.472290,79.099960 163.547867,71.308167 172.836746,63.778797 
	C174.022812,62.817394 176.538620,62.244278 177.803467,62.839802 
	C184.883453,66.173218 191.581238,65.925987 198.720886,61.284676 
M72.732994,149.233459 
	C69.639610,152.637558 66.546227,156.041656 63.656788,159.221329 
	C62.026649,158.376816 61.448673,158.057144 60.853992,157.772339 
	C52.309380,153.679993 42.324810,156.050491 37.246696,163.372574 
	C32.275036,170.541153 33.119270,179.383545 39.377594,185.691589 
	C45.840858,192.206161 55.644943,192.829620 63.468613,187.223587 
	C70.364647,182.282272 72.254265,173.577484 67.914886,164.976334 
	C66.586746,162.343826 67.083031,160.842255 69.011292,158.960266 
	C75.926193,152.211243 82.779289,145.394440 89.474632,138.429153 
	C90.647896,137.208588 90.948631,135.149292 91.652328,133.477341 
	C89.989227,134.085587 87.933365,134.268478 86.732529,135.377335 
	C82.084808,139.668991 77.709557,144.255692 72.732994,149.233459 
M84.276794,78.241997 
	C78.913010,73.384056 73.549217,68.526108 68.233109,63.711349 
	C72.189522,57.423531 72.666168,51.258980 69.558853,45.229485 
	C64.947479,36.281517 53.299381,32.942379 44.635662,37.719147 
	C36.125835,42.411064 32.788921,52.862885 37.110050,61.290733 
	C41.570129,69.989586 53.156082,73.643997 61.998718,68.639122 
	C65.071770,66.899803 66.596230,67.709991 68.749741,69.714447 
	C75.673637,76.159096 82.712151,82.482994 89.819458,88.724800 
	C90.597733,89.408310 92.108025,89.258301 93.278793,89.494881 
	C93.063148,88.211708 93.293404,86.502838 92.549683,85.723785 
	C90.152130,83.212334 87.395782,81.043411 84.276794,78.241997 
M133.147217,155.360931 
	C133.598709,156.250595 134.043335,157.143799 134.502853,158.029282 
	C136.362625,161.613129 137.125214,164.382431 133.007156,167.709900 
	C128.052536,171.713287 126.936958,177.866333 128.599670,184.123718 
	C130.966980,193.032761 140.199356,198.612091 149.509674,196.948196 
	C158.901199,195.269775 165.138321,186.886078 164.035233,177.423447 
	C162.966583,168.256241 155.256821,161.492798 145.709625,162.086456 
	C141.789810,162.330185 140.116257,160.979767 138.776596,157.621246 
	C135.950684,150.536728 132.882538,143.542923 129.678589,136.620758 
	C129.123169,135.420746 127.411949,134.755707 126.234589,133.843567 
	C126.061798,135.296326 125.340546,136.963333 125.810005,138.165222 
	C127.982803,143.727890 130.486404,149.161316 133.147217,155.360931 
M206.345306,138.643341 
	C207.869461,129.735779 203.957077,121.910065 196.277390,118.505142 
	C188.745682,115.165825 179.613602,117.553459 174.117203,123.935501 
	C173.175934,125.028435 170.835312,125.799835 169.449265,125.460632 
	C165.268097,124.437363 161.284348,122.628738 157.126068,121.479301 
	C155.629303,121.065559 153.855179,121.655251 152.207626,121.787018 
	C153.311600,122.933952 154.210617,124.558960 155.558548,125.136841 
	C159.371948,126.771675 163.334564,128.090286 167.306595,129.311722 
	C169.840607,130.090958 170.906631,131.103409 170.829834,134.159073 
	C170.597809,143.391068 176.907440,150.688614 185.601257,152.011902 
	C195.171585,153.468628 202.934067,148.694077 206.345306,138.643341 
M110.645134,59.712345 
	C110.043907,59.998203 109.433029,60.265522 108.842918,60.572746 
	C101.937073,64.168022 98.937813,71.041306 101.196198,78.081390 
	C103.184807,84.280487 110.671860,88.760178 117.479897,87.824318 
	C124.625061,86.842117 130.063675,80.642136 130.141830,73.389763 
	C130.242401,64.057831 122.344826,58.147015 110.645134,59.712345 
z"/>
<path fill="#6FD881" opacity="1.000000" stroke="none" 
	d="
M87.098381,114.963287 
	C90.418304,100.436806 98.772339,93.911469 113.379669,93.789368 
	C120.082947,93.733337 126.625954,93.774651 132.647141,97.542587 
	C138.228668,101.035393 141.567398,105.964035 143.007675,112.180885 
	C144.722824,119.584190 141.254196,124.118248 133.440369,124.434593 
	C125.956253,124.737579 118.451065,124.525536 110.955139,124.528969 
	C106.291031,124.531105 101.618416,124.687431 96.964874,124.461082 
	C90.752174,124.158890 88.321938,121.766205 87.098381,114.963287 
z"/>
<path fill="#6ED780" opacity="1.000000" stroke="none" 
	d="
M198.444748,61.521072 
	C191.581238,65.925987 184.883453,66.173218 177.803467,62.839802 
	C176.538620,62.244278 174.022812,62.817394 172.836746,63.778797 
	C163.547867,71.308167 154.472290,79.099960 145.256332,86.720596 
	C143.317261,88.324005 141.070541,89.555344 138.965576,90.958130 
	C138.484344,90.523842 138.003113,90.089554 137.521866,89.655273 
	C138.290237,88.382378 138.795013,86.800591 139.868118,85.884819 
	C149.597168,77.582275 159.338013,69.287827 169.285629,61.251183 
	C171.807602,59.213692 172.416763,57.741924 170.952042,54.705418 
	C167.244629,47.019573 169.371872,38.776436 175.895889,33.784103 
	C182.658859,28.608917 191.889450,28.537338 198.558365,33.608356 
	C204.839493,38.384499 207.266281,47.376190 203.826859,54.658436 
	C202.663513,57.121582 200.452911,59.090111 198.444748,61.521072 
z"/>
<path fill="#6ED780" opacity="1.000000" stroke="none" 
	d="
M72.982910,148.982971 
	C77.709557,144.255692 82.084808,139.668991 86.732529,135.377335 
	C87.933365,134.268478 89.989227,134.085587 91.652328,133.477356 
	C90.948631,135.149292 90.647896,137.208588 89.474632,138.429153 
	C82.779289,145.394440 75.926193,152.211243 69.011292,158.960266 
	C67.083031,160.842255 66.586746,162.343826 67.914886,164.976334 
	C72.254265,173.577484 70.364647,182.282272 63.468613,187.223587 
	C55.644943,192.829620 45.840858,192.206161 39.377594,185.691589 
	C33.119270,179.383545 32.275036,170.541153 37.246696,163.372574 
	C42.324810,156.050491 52.309380,153.679993 60.853992,157.772339 
	C61.448673,158.057144 62.026649,158.376816 63.656788,159.221329 
	C66.546227,156.041656 69.639610,152.637558 72.982910,148.982971 
z"/>
<path fill="#6ED780" opacity="1.000000" stroke="none" 
	d="
M84.527267,78.492218 
	C87.395782,81.043411 90.152130,83.212334 92.549683,85.723785 
	C93.293404,86.502838 93.063148,88.211708 93.278793,89.494881 
	C92.108025,89.258301 90.597733,89.408310 89.819458,88.724800 
	C82.712151,82.482994 75.673637,76.159096 68.749741,69.714447 
	C66.596230,67.709991 65.071770,66.899803 61.998718,68.639122 
	C53.156082,73.643997 41.570129,69.989586 37.110050,61.290733 
	C32.788921,52.862885 36.125835,42.411064 44.635662,37.719147 
	C53.299381,32.942379 64.947479,36.281517 69.558853,45.229485 
	C72.666168,51.258980 72.189522,57.423531 68.233109,63.711349 
	C73.549217,68.526108 78.913010,73.384056 84.527267,78.492218 
z"/>
<path fill="#6FD881" opacity="1.000000" stroke="none" 
	d="
M133.009354,155.000992 
	C130.486404,149.161316 127.982803,143.727890 125.810005,138.165222 
	C125.340546,136.963333 126.061798,135.296326 126.234589,133.843567 
	C127.411949,134.755707 129.123169,135.420746 129.678589,136.620758 
	C132.882538,143.542923 135.950684,150.536728 138.776596,157.621246 
	C140.116257,160.979767 141.789810,162.330185 145.709625,162.086456 
	C155.256821,161.492798 162.966583,168.256241 164.035233,177.423447 
	C165.138321,186.886078 158.901199,195.269775 149.509674,196.948196 
	C140.199356,198.612091 130.966980,193.032761 128.599670,184.123718 
	C126.936958,177.866333 128.052536,171.713287 133.007156,167.709900 
	C137.125214,164.382431 136.362625,161.613129 134.502853,158.029282 
	C134.043335,157.143799 133.598709,156.250595 133.009354,155.000992 
z"/>
<path fill="#6FD880" opacity="1.000000" stroke="none" 
	d="
M206.217651,139.026520 
	C202.934067,148.694077 195.171585,153.468628 185.601257,152.011902 
	C176.907440,150.688614 170.597809,143.391068 170.829834,134.159073 
	C170.906631,131.103409 169.840607,130.090958 167.306595,129.311722 
	C163.334564,128.090286 159.371948,126.771675 155.558548,125.136841 
	C154.210617,124.558960 153.311600,122.933952 152.207626,121.787018 
	C153.855179,121.655251 155.629303,121.065559 157.126068,121.479301 
	C161.284348,122.628738 165.268097,124.437363 169.449265,125.460632 
	C170.835312,125.799835 173.175934,125.028435 174.117203,123.935501 
	C179.613602,117.553459 188.745682,115.165825 196.277390,118.505142 
	C203.957077,121.910065 207.869461,129.735779 206.217651,139.026520 
z"/>
<path fill="#6FD881" opacity="1.000000" stroke="none" 
	d="
M111.004440,59.523964 
	C122.344826,58.147015 130.242401,64.057831 130.141830,73.389763 
	C130.063675,80.642136 124.625061,86.842117 117.479897,87.824318 
	C110.671860,88.760178 103.184807,84.280487 101.196198,78.081390 
	C98.937813,71.041306 101.937073,64.168022 108.842918,60.572746 
	C109.433029,60.265522 110.043907,59.998203 111.004440,59.523964 
z"/>
</svg>