<?xml version="1.0" encoding="UTF-8"?>
<svg version="1.1" xmlns="http://www.w3.org/2000/svg" width="512" height="512">
<path d="M0 0 C0.83917969 0.67546875 1.67835938 1.3509375 2.54296875 2.046875 C22.28445789 18.81948903 33.2900969 42.91484275 35.72265625 68.4296875 C37.72145301 94.16067678 30.03951826 120.0894565 13.55859375 140.0390625 C-4.27229594 160.67389362 -27.77228184 173.32319355 -55 176 C-84.71250863 177.54659705 -110.58097844 168.0730995 -132.91015625 148.44140625 C-150.77428477 131.53204128 -161.76131558 107.58600888 -163 83 C-163.05285156 82.06285156 -163.10570312 81.12570313 -163.16015625 80.16015625 C-163.6204919 64.28858354 -160.30510957 49.47601687 -154 35 C-153.5978125 34.06671875 -153.195625 33.1334375 -152.78125 32.171875 C-141.65491639 8.26529333 -120.039541 -8.76692922 -95.71484375 -17.75 C-62.78835615 -28.82936491 -26.80797098 -21.84662021 0 0 Z M-111.39453125 30.140625 C-123.49936393 43.42508905 -130.7254604 60.92699579 -130.23828125 79.00390625 C-128.64161479 99.08002389 -119.80180156 115.79677418 -104.5859375 128.93359375 C-90.89471727 139.87416097 -74.34327912 144.00205613 -57 143 C-42.69203878 141.35161737 -28.55188674 134.87443097 -18 125 C-17.25492187 124.30777344 -16.50984375 123.61554688 -15.7421875 122.90234375 C-4.1304162 111.11344374 2.93200244 93.85153873 3.01953125 77.30859375 C1.94735825 57.26098161 -4.66619487 40.87467871 -19.30859375 26.77734375 C-46.63129735 3.49247812 -85.60137966 5.57571873 -111.39453125 30.140625 Z " fill="#FFFFFF" transform="translate(256,85)"/>
<path d="M0 0 C1.5340652 -0.00435773 3.06812823 -0.00954437 4.60218811 -0.01548767 C8.7346092 -0.02877577 12.86693827 -0.02946775 16.99937654 -0.02692437 C20.46560502 -0.02584758 23.93181542 -0.03075607 27.39804 -0.03552979 C35.58470995 -0.04659002 43.77133402 -0.04708226 51.95800781 -0.04101562 C60.36611221 -0.0349801 68.77404908 -0.04728417 77.18212491 -0.06858569 C84.43520597 -0.08627637 91.68823406 -0.0921913 98.94133586 -0.08894795 C103.25817122 -0.08714662 107.57488709 -0.08965495 111.89170265 -0.10366249 C115.95565691 -0.11635837 120.01935257 -0.11418733 124.08330345 -0.1012516 C125.56217924 -0.09891151 127.04107391 -0.10152652 128.51992798 -0.10987473 C151.35161206 -0.22931883 173.09236358 5.86209113 189.99682617 21.8996582 C199.5994662 31.50229823 206.79784536 40.83898476 211.08666992 53.88793945 C211.46427963 55.0309124 211.46427963 55.0309124 211.84951782 56.19697571 C215.36423103 67.07582779 218.28479447 78.13112859 221.2331543 89.17382812 C222.25591901 92.99614029 223.29395719 96.81410047 224.33276367 100.63208008 C224.98993688 103.07909795 225.64621977 105.52635515 226.30151367 107.97387695 C226.61079803 109.10621262 226.9200824 110.23854828 227.23873901 111.40519714 C229.38328942 119.51589032 230.86140138 125.86243414 226.62573242 133.4777832 C224.17357077 136.99178432 221.38275386 138.73741593 217.26635742 139.8371582 C211.90810808 140.72251438 206.97535772 140.33432246 202.37182617 137.2746582 C196.84858249 132.16338339 195.53538352 126.11203948 193.69304085 118.96932602 C193.14687988 116.85269355 192.58131725 114.74206876 192.010849 112.63186646 C190.80108906 108.14238746 189.61677807 103.6463927 188.43432617 99.1496582 C187.06527089 93.95311852 185.68545086 88.75973771 184.28567314 83.57138443 C183.73539083 81.51382867 183.20108907 79.45259276 182.66773987 77.39059448 C178.20122554 60.52664894 171.16441103 47.74014455 155.85229492 38.74731445 C145.75779809 34.47613005 135.90802237 33.83639431 125.06323242 33.88647461 C123.56370667 33.88239943 122.06418392 33.87705228 120.56466675 33.87054443 C116.52743405 33.85697741 112.49043376 33.8621251 108.45319748 33.87168169 C104.20674818 33.8793338 99.96031736 33.87221739 95.71386719 33.86752319 C88.58582018 33.86208168 81.45786675 33.86921493 74.32983398 33.88354492 C66.11592769 33.89986835 57.90224489 33.8945787 49.688344 33.87806571 C42.60684975 33.8644049 35.52542236 33.86255354 28.44391918 33.87038171 C24.2272342 33.87503308 20.01065388 33.87575359 15.79397583 33.86577225 C11.82768538 33.85703759 7.86168007 33.86324161 3.89542007 33.88045502 C2.4491536 33.88438546 1.00286268 33.88334571 -0.44339371 33.87666702 C-16.0679871 33.81122555 -29.7281196 36.64023965 -41.50317383 47.5871582 C-52.27460432 59.45664714 -55.15998187 75.39373675 -59.22192383 90.4387207 C-59.53878143 91.60897293 -59.85563904 92.77922516 -60.18209839 93.98493958 C-61.50207533 98.86432701 -62.82172084 103.74361159 -64.11694336 108.62963867 C-65.07517543 112.23668096 -66.05305804 115.837914 -67.03442383 119.4387207 C-67.32103882 120.5387442 -67.60765381 121.6387677 -67.9029541 122.77212524 C-69.74321629 129.44480622 -71.56038128 134.57106437 -77.55004883 138.55200195 C-82.783934 140.44201604 -87.22069289 140.71932843 -92.62817383 139.2746582 C-97.50208446 136.97564376 -99.60471192 134.21928839 -101.96411133 129.56762695 C-103.50286335 124.25440675 -102.55376408 119.120957 -101.14697266 113.88720703 C-100.82275833 112.66516068 -100.49854401 111.44311432 -100.164505 110.18403625 C-99.8051661 108.86647059 -99.44538819 107.54902459 -99.08520508 106.23168945 C-98.7155083 104.85810884 -98.34635188 103.48438268 -97.97770691 102.11051941 C-97.20403139 99.23519429 -96.42411204 96.3616578 -95.63964844 93.48925781 C-94.64422509 89.84260937 -93.66394988 86.19209928 -92.68840504 82.54008961 C-91.92825966 79.70108913 -91.16010475 76.86430129 -90.38965416 74.02808189 C-90.02575216 72.68497154 -89.6641743 71.34122889 -89.3051548 69.99680519 C-84.29732584 51.29354899 -77.31721415 35.98339499 -63.62817383 22.2746582 C-62.96946289 21.6043457 -62.31075195 20.9340332 -61.63208008 20.2434082 C-44.82103207 4.33617998 -22.33884411 -0.04240677 0 0 Z " fill="#FFFFFF" transform="translate(128.628173828125,270.725341796875)"/>
<path d="M0 0 C1.05832031 0.36222656 2.11664063 0.72445312 3.20703125 1.09765625 C24.46896457 9.14935115 40.89340545 26.2194115 50.5 46.5 C59.48797452 67.47194055 60.66611227 91.48348434 52.6875 113 C48.60982652 122.59166179 43.67428866 130.99950279 37 139 C35.85144531 140.44826172 35.85144531 140.44826172 34.6796875 141.92578125 C21.71365758 157.41332235 0.73716602 166.76520977 -19 169 C-32.73550283 169.78396537 -47.70947289 169.97284919 -60 163 C-62.25 160.5625 -62.25 160.5625 -64 158 C-64.4125 157.401875 -64.825 156.80375 -65.25 156.1875 C-66.99470063 151.09878983 -66.53017591 146.56322619 -64.375 141.75 C-61.74727502 136.99017076 -58.11150856 134.70383619 -53 133 C-49.10424312 132.76625459 -45.74472066 133.003763 -42 134 C-28.12928302 137.28454797 -13.87377883 134.93192249 -1.6640625 127.7890625 C11.42262438 119.00064228 19.59150902 107.38163532 23 92 C24.50575612 74.13861706 21.1605743 59.95687012 9.8125 45.8125 C-0.54209719 34.52279601 -15.07293489 29.75095091 -30 29 C-41.97218668 29.53179417 -52.50834316 33.7918755 -62.16015625 40.765625 C-66.6496179 43.77766296 -71.80511517 43.6762572 -77 43 C-81.32117097 41.31793345 -84.19974781 39.050331 -87 35.375 C-88.7827976 29.3580581 -89.12940465 23.55343661 -86.5625 17.75 C-65.49318261 -4.86097476 -28.32107407 -10.03243623 0 0 Z " fill="#FFFFFF" transform="translate(372,52)"/>
<path d="M0 0 C0.92056686 -0.0071553 1.84113373 -0.01431061 2.78959656 -0.02168274 C4.30967316 -0.02571609 4.30967316 -0.02571609 5.86045837 -0.02983093 C7.45853584 -0.03968773 7.45853584 -0.03968773 9.08889771 -0.04974365 C12.63246224 -0.06952855 16.17598406 -0.08115783 19.71958923 -0.09111023 C21.53848065 -0.09722352 21.53848065 -0.09722352 23.39411736 -0.10346031 C29.82625535 -0.12435442 36.25837187 -0.13863524 42.6905365 -0.147995 C49.30063311 -0.15899786 55.91038733 -0.193317 62.52036381 -0.23316669 C67.6277524 -0.25947775 72.73506175 -0.2677002 77.84251213 -0.27127647 C80.2762677 -0.27611404 82.71002041 -0.28764598 85.14370918 -0.30631447 C101.63531138 -0.4248386 118.14673959 -0.25997747 132.99693298 7.89717102 C133.6513739 8.24223694 134.30581482 8.58730286 134.98008728 8.94282532 C156.93914585 20.81295085 171.27252051 38.91768587 178.38172913 62.68757629 C179.95981956 68.32769448 181.38561211 74.00371808 182.77427673 79.69306946 C183.50342646 82.67371529 184.25294958 85.64872796 185.00474548 88.62373352 C185.47990693 90.5374977 185.95390802 92.45155045 186.42662048 94.36592102 C186.64840973 95.2451825 186.87019897 96.12444397 187.09870911 97.03034973 C188.88398381 104.42494053 189.62927473 110.50090468 185.89927673 117.35029602 C183.27753583 121.03837191 179.81260459 122.75028049 175.62193298 124.14717102 C169.76310865 124.72156556 165.36426245 123.55969264 160.62193298 120.14717102 C156.21495627 115.71475242 155.23614139 110.98190061 153.85240173 105.08857727 C153.35057396 103.07227003 152.84861655 101.05599504 152.34654236 99.03974915 C151.57839144 95.88835452 150.81569897 92.73572538 150.05723572 89.58198547 C145.41971971 70.42637149 140.49386982 53.0435026 123.37193298 41.27217102 C110.39853429 33.88353231 98.42396727 33.57703557 83.83063126 33.63075066 C80.34928689 33.64349059 76.8687225 33.63199247 73.3874054 33.61471558 C67.25813601 33.58814758 61.12906134 33.58241536 54.9997406 33.58381653 C45.17010458 33.58605468 35.34070775 33.57189159 25.51116562 33.52823067 C22.08829281 33.51841475 18.66579998 33.52709402 15.24293518 33.53692627 C13.14221448 33.53078213 11.04149583 33.52387042 8.94078064 33.5160675 C7.52239899 33.52764641 7.52239899 33.52764641 6.07536316 33.53945923 C-0.9251358 33.48586911 -5.70309988 32.40603216 -11.19056702 27.77217102 C-15.12945789 23.04550197 -15.9063832 19.27563877 -15.37806702 13.14717102 C-13.55505069 7.2730073 -11.21168632 4.6438318 -6.37806702 1.14717102 C-4.02749906 -0.02811296 -2.62084588 0.0139652 0 0 Z " fill="#FFFFFF" transform="translate(297.37806701660156,233.8528289794922)"/>
</svg>
