<svg xmlns="http://www.w3.org/2000/svg" viewBox="0 0 681 500.14">
  <rect width="681" height="500.14" fill="#212528"/>
  <defs>
    <style>
      .cls-1, .cls-14, .cls-16, .cls-27, .cls-9 { fill: #212528; }
      .cls-2 { fill: #f5f5f5; }
      .cls-3 { fill: #e0e0e0; }
      .cls-4 { fill: #455a64; }
      .cls-5 { fill: #00ecae; }
      .cls-16, .cls-6 { opacity: 0.5; }
      .cls-14, .cls-15, .cls-16, .cls-17, .cls-21, .cls-22, .cls-23, .cls-24, .cls-27, .cls-7, .cls-8, .cls-9 { isolation: isolate; }
      .cls-7 { opacity: 0.15; }
      .cls-19, .cls-8 { fill: #263238; }
      .cls-8 { opacity: 0.9; }
      .cls-12, .cls-9 { opacity: 0.6; }
      .cls-10 { fill: #ffa8a7; }
      .cls-11 { fill: #f28f8f; }
      .cls-13 { fill: #37474f; }
      .cls-14 { opacity: 0.8; }
      .cls-15, .cls-30 { opacity: 0.2; }
      .cls-17, .cls-28 { opacity: 0.3; }
      .cls-18, .cls-21 { opacity: 0.1; }
      .cls-20 { fill: #fafafa; }
      .cls-22 { opacity: 0.05; }
      .cls-23 { opacity: 0.25; }
      .cls-24 { opacity: 0.4; }
      .cls-25 { fill: #b16668; }
      .cls-26 { fill: #9a4a4d; }
      .cls-27 { opacity: 0.7; }
      .cls-29 { fill: #ebebeb; }
    </style>
  </defs>


  <g id="Calque_2" data-name="Calque 2">
    <g id="Calque_1-2" data-name="Calque 1">
      <rect class="cls-1" width="681" height="500.14"/>
      <!-- The rest of your original SVG content continues here unchanged -->
<g id="freepik--Floor--inject-89"><path id="freepik--floor--inject-89-2" data-name="freepik--floor--inject-89" class="cls-2" d="M480.49,256.62c-78.56-45.16-205.93-45.16-284.49,0S117.45,375,196,420.2s205.93,45.16,284.49,0S559,301.79,480.49,256.62Z"/></g><g id="freepik--Shadows--inject-89"><path id="freepik--Shadow--inject-89" class="cls-3" d="M332.9,437.86l-77.37-44.67a1.14,1.14,0,0,1,0-2.17L407,303.57a4.15,4.15,0,0,1,3.76,0l77.38,44.67a1.16,1.16,0,0,1,.72,1.46,1.13,1.13,0,0,1-.72.71L336.66,437.86A4.15,4.15,0,0,1,332.9,437.86Z"/><path id="freepik--shadow--inject-89-2" data-name="freepik--shadow--inject-89" class="cls-3" d="M229.65,357.88c-6.23-3.6-6.23-9.44,0-13l37.46-21.6c6.22-3.6,16.33-3.6,22.58,0l45.16,26.11-60,34.59Z"/><path id="freepik--shadow--inject-89-3" data-name="freepik--shadow--inject-89" class="cls-3" d="M518.1,327.65c7.75,4.53,7.75,11.87,0,16.39s-20.31,4.53-28.07,0-7.75-11.86,0-16.39S510.39,323.13,518.1,327.65Z"/></g><g id="freepik--Screen--inject-89"><g id="freepik--Window--inject-89"><g id="freepik--window--inject-89-2" data-name="freepik--window--inject-89"><path class="cls-4" d="M332.62,51a2,2,0,0,0-.06-.35v-.07a1.89,1.89,0,0,0-.09-.34,1.52,1.52,0,0,0-.23-.48.47.47,0,0,0-.12-.2.76.76,0,0,0-.11-.14,1.36,1.36,0,0,0-.24-.24h0a1.06,1.06,0,0,0-.33-.18,2.72,2.72,0,0,0-2.53.32L163.84,144.26a8.33,8.33,0,0,0-3.76,6.53V293.37a2.54,2.54,0,0,0,1.35,2.27l.17.1a.67.67,0,0,0,.2.12,1.1,1.1,0,0,0,.32.11,1.84,1.84,0,0,0,.47.06,2.28,2.28,0,0,0,1.25-.36l.1-.06h0l3.6-2.07,161.33-92.93a8.31,8.31,0,0,0,3.76-6.52V51.47A3.65,3.65,0,0,0,332.62,51Z"/><path class="cls-5" d="M331.38,49a2.8,2.8,0,0,0-2.54.32l-165,95a8.33,8.33,0,0,0-3.76,6.53v5.51l-4.81-2.81v-5.42a8.33,8.33,0,0,1,3.75-6.52l165-95a2.59,2.59,0,0,1,2.73-.23C327.48,46.76,330.6,48.55,331.38,49Z"/><path class="cls-5" d="M332.63,51.44c0-2.38-1.69-3.34-3.76-2.15l-165,95a8.33,8.33,0,0,0-3.76,6.53v5.52L332.63,57Z"/><g class="cls-6"><path class="cls-1" d="M328.87,49.29l-165,95a7.79,7.79,0,0,0-2.64,2.8l-4.79-2.77a7.41,7.41,0,0,1,2.61-2.75l165-95a2.59,2.59,0,0,1,2.73-.22c.68.41,3.8,2.19,4.59,2.6A2.73,2.73,0,0,0,328.87,49.29Z"/></g><path class="cls-7" d="M155.26,153.49v-5.44a7.81,7.81,0,0,1,1.15-3.76l4.79,2.76a7.7,7.7,0,0,0-1.12,3.74v5.51Z"/><path class="cls-8" d="M161.43,295.66l-.2-.12-4-2.31a4,4,0,0,1-2-2.92,5,5,0,0,1,0-.55V153.41l4.81,2.82V293.37a2.48,2.48,0,0,0,1.17,2.14l.12.09h0Z"/></g><g id="freepik--Code--inject-89" class="cls-6"><path class="cls-5" d="M186.86,150.94,221.4,131c.52-.31.94-.09.94.47a2.07,2.07,0,0,1-.94,1.57l-34.53,20c-.52.3-1,.09-1-.47A2.09,2.09,0,0,1,186.86,150.94Z"/><path class="cls-5" d="M202.27,166.79l67-38.72c.52-.3,1-.09,1,.47a2,2,0,0,1-1,1.57l-67,38.73c-.52.3-1,.09-1-.48A2.05,2.05,0,0,1,202.27,166.79Z"/><path class="cls-5" d="M225.05,128.91l44.79-25.8c.52-.3,1-.09,1,.47a2,2,0,0,1-1,1.57L225.05,131c-.52.29-.94.09-.94-.48A2,2,0,0,1,225.05,128.91Z"/><path class="cls-5" d="M186.86,156.81,203,147.48c.52-.3,1-.08,1,.48a2,2,0,0,1-1,1.57l-16.14,9.32c-.52.31-1,.09-1-.47A2.07,2.07,0,0,1,186.86,156.81Z"/><path class="cls-9" d="M186.86,156.81,203,147.48c.52-.3,1-.08,1,.48a2,2,0,0,1-1,1.57l-16.14,9.32c-.52.31-1,.09-1-.47A2.07,2.07,0,0,1,186.86,156.81Z"/><path class="cls-5" d="M186.86,162.65l8.62-5c.52-.3,1-.09,1,.48a2.05,2.05,0,0,1-1,1.57l-8.61,4.95c-.52.29-1,.09-1-.48A2,2,0,0,1,186.86,162.65Z"/><path class="cls-9" d="M186.86,162.65l8.62-5c.52-.3,1-.09,1,.48a2.05,2.05,0,0,1-1,1.57l-8.61,4.95c-.52.29-1,.09-1-.48A2,2,0,0,1,186.86,162.65Z"/><path class="cls-5" d="M206.67,145.37l41.17-23.74c.52-.3.93-.09.93.48a2,2,0,0,1-.93,1.56l-41.17,23.75c-.52.3-.94.08-.94-.48A2,2,0,0,1,206.67,145.37Z"/><path class="cls-9" d="M206.67,145.37l41.17-23.74c.52-.3.93-.09.93.48a2,2,0,0,1-.93,1.56l-41.17,23.75c-.52.3-.94.08-.94-.48A2,2,0,0,1,206.67,145.37Z"/><path class="cls-10" d="M226.91,173.54l42.93-24.8c.52-.3,1-.09,1,.47a2.05,2.05,0,0,1-1,1.58l-42.93,24.79c-.52.3-.93.09-.93-.47A2,2,0,0,1,226.91,173.54Z"/><path class="cls-10" d="M226.91,167.71l42.93-24.83c.52-.3,1-.08,1,.47a2,2,0,0,1-1,1.57l-42.93,24.83c-.52.31-.93.09-.93-.47A2,2,0,0,1,226.91,167.71Z"/><path class="cls-5" d="M198.5,156l18.67-10.85c.52-.31.94-.09.94.48a2,2,0,0,1-.94,1.56L198.5,158c-.52.3-.95.09-.95-.48A2,2,0,0,1,198.5,156Z"/><path class="cls-9" d="M198.5,156l18.67-10.85c.52-.31.94-.09.94.48a2,2,0,0,1-.94,1.56L198.5,158c-.52.3-.95.09-.95-.48A2,2,0,0,1,198.5,156Z"/><path class="cls-5" d="M220.83,143l48.46-27.72c.52-.31.94-.09.94.47a2,2,0,0,1-.94,1.57l-48.46,27.72c-.52.29-1,.09-1-.48A2,2,0,0,1,220.83,143Z"/><path class="cls-9" d="M220.83,143l48.46-27.72c.52-.31.94-.09.94.47a2,2,0,0,1-.94,1.57l-48.46,27.72c-.52.29-1,.09-1-.48A2,2,0,0,1,220.83,143Z"/><path class="cls-5" d="M198.5,162.23l18.65-10.82c.52-.3.94-.09.94.48a2,2,0,0,1-.94,1.56L198.5,164.27c-.52.3-.95.09-.95-.47A2,2,0,0,1,198.5,162.23Z"/><path class="cls-9" d="M198.5,162.23l18.65-10.82c.52-.3.94-.09.94.48a2,2,0,0,1-.94,1.56L198.5,164.27c-.52.3-.95.09-.95-.47A2,2,0,0,1,198.5,162.23Z"/><path class="cls-5" d="M220.83,149.3l48.46-27.72c.52-.31.94-.09.94.48a2,2,0,0,1-.94,1.56l-48.46,27.72c-.52.3-1,.09-1-.48A2,2,0,0,1,220.83,149.3Z"/><path class="cls-9" d="M220.83,149.3l48.46-27.72c.52-.31.94-.09.94.48a2,2,0,0,1-.94,1.56l-48.46,27.72c-.52.3-1,.09-1-.48A2,2,0,0,1,220.83,149.3Z"/><path class="cls-11" d="M226.91,179.45l42.93-24.65c.52-.31,1-.09,1,.48a2,2,0,0,1-1,1.56l-42.93,24.65c-.52.31-.93.1-.93-.46A2,2,0,0,1,226.91,179.45Z"/><path class="cls-11" d="M226.91,185.29l42.93-24.66c.52-.3,1-.08,1,.48a2,2,0,0,1-1,1.56l-42.93,24.67c-.52.29-.93.09-.93-.48A2,2,0,0,1,226.91,185.29Z"/><path class="cls-11" d="M226.91,191.13l42.93-24.65c.52-.31,1-.09,1,.48a2,2,0,0,1-1,1.56l-42.93,24.66c-.52.3-.93.09-.93-.47A2,2,0,0,1,226.91,191.13Z"/><path class="cls-5" d="M226.91,198.9l42.93-24.66c.52-.3,1-.08,1,.48a2,2,0,0,1-1,1.56l-42.93,24.65c-.52.31-.93.09-.93-.48A2,2,0,0,1,226.91,198.9Z"/><path class="cls-5" d="M184.36,223.49l8.68-5.05c.52-.3,1-.09,1,.48a2,2,0,0,1-1,1.56l-8.68,5.05c-.51.3-.94.08-.94-.48A2,2,0,0,1,184.36,223.49Z"/><path class="cls-9" d="M184.36,223.49l8.68-5.05c.52-.3,1-.09,1,.48a2,2,0,0,1-1,1.56l-8.68,5.05c-.51.3-.94.08-.94-.48A2,2,0,0,1,184.36,223.49Z"/><path class="cls-5" d="M184.36,228.78l8.68-5.05c.52-.3,1-.09,1,.48a2,2,0,0,1-1,1.56l-8.68,5c-.51.29-.94.08-.94-.48A2,2,0,0,1,184.36,228.78Z"/><path class="cls-9" d="M184.36,228.78l8.68-5.05c.52-.3,1-.09,1,.48a2,2,0,0,1-1,1.56l-8.68,5c-.51.29-.94.08-.94-.48A2,2,0,0,1,184.36,228.78Z"/><path class="cls-10" d="M226.91,204.22l42.93-24.84c.52-.29,1-.08,1,.48a2,2,0,0,1-1,1.57l-42.93,24.83c-.52.31-.93.09-.93-.47A2,2,0,0,1,226.91,204.22Z"/><path class="cls-5" d="M198.82,258.73l22.58-13c.52-.29.94-.09.94.48a2.05,2.05,0,0,1-.94,1.57l-22.58,13c-.52.3-.94.09-.94-.48A2,2,0,0,1,198.82,258.73Z"/><path class="cls-5" d="M225.05,243.54l44.79-25.74c.52-.3,1-.09,1,.48a2.05,2.05,0,0,1-1,1.57l-44.79,25.74c-.52.29-.94.09-.94-.48A2.07,2.07,0,0,1,225.05,243.54Z"/><path class="cls-5" d="M184.36,267,193,262c.52-.3,1-.08,1,.48a2.05,2.05,0,0,1-1,1.57l-8.68,5c-.51.3-.94.09-.94-.48A2,2,0,0,1,184.36,267Z"/><path class="cls-9" d="M184.36,267,193,262c.52-.3,1-.08,1,.48a2.05,2.05,0,0,1-1,1.57l-8.68,5c-.51.3-.94.09-.94-.48A2,2,0,0,1,184.36,267Z"/><path class="cls-5" d="M184.36,272.32l8.68-5.05c.52-.29,1-.08,1,.48a2,2,0,0,1-1,1.57l-8.68,5c-.51.31-.94.09-.94-.48A2,2,0,0,1,184.36,272.32Z"/><path class="cls-9" d="M184.36,272.32l8.68-5.05c.52-.29,1-.08,1,.48a2,2,0,0,1-1,1.57l-8.68,5c-.51.31-.94.09-.94-.48A2,2,0,0,1,184.36,272.32Z"/><path class="cls-10" d="M228.69,246.68l41.15-23.74c.52-.31,1-.09,1,.48a2,2,0,0,1-1,1.56l-41.15,23.74c-.53.31-.95.09-.95-.47A2,2,0,0,1,228.69,246.68Z"/><path class="cls-5" d="M198.5,233.22l71.33-41.08c.52-.29.94-.08.94.48a2.05,2.05,0,0,1-.94,1.57L198.5,235.27c-.52.3-.95.09-.95-.48A2.05,2.05,0,0,1,198.5,233.22Z"/><path class="cls-5" d="M184.36,241.34l8.68-5c.52-.31,1-.09,1,.47a2,2,0,0,1-1,1.57l-8.68,5c-.51.31-.94.09-.94-.47A2,2,0,0,1,184.36,241.34Z"/><path class="cls-9" d="M184.36,241.34l8.68-5c.52-.31,1-.09,1,.47a2,2,0,0,1-1,1.57l-8.68,5c-.51.31-.94.09-.94-.47A2,2,0,0,1,184.36,241.34Z"/><path class="cls-5" d="M198.5,239l71.33-41.08c.52-.3.94-.09.94.48a2,2,0,0,1-.94,1.56L198.5,241c-.52.3-.95.08-.95-.48A2,2,0,0,1,198.5,239Z"/><path class="cls-5" d="M184.36,247.2l8.68-5c.52-.3,1-.09,1,.48a2,2,0,0,1-1,1.56l-8.68,5.05c-.51.3-.94.08-.94-.48A2,2,0,0,1,184.36,247.2Z"/><path class="cls-9" d="M184.36,247.2l8.68-5c.52-.3,1-.09,1,.48a2,2,0,0,1-1,1.56l-8.68,5.05c-.51.3-.94.08-.94-.48A2,2,0,0,1,184.36,247.2Z"/><path class="cls-11" d="M198.5,244.87l71.34-41.1c.52-.29,1-.09,1,.48a2,2,0,0,1-1,1.56l-71.34,41.1c-.52.3-.95.09-.95-.48A2,2,0,0,1,198.5,244.87Z"/><path class="cls-5" d="M184.36,253l8.68-5c.52-.31,1-.09,1,.47a2,2,0,0,1-1,1.57l-8.68,5c-.51.31-.94.09-.94-.47A2.07,2.07,0,0,1,184.36,253Z"/><path class="cls-9" d="M184.36,253l8.68-5c.52-.31,1-.09,1,.47a2,2,0,0,1-1,1.57l-8.68,5c-.51.31-.94.09-.94-.47A2.07,2.07,0,0,1,184.36,253Z"/><g class="cls-12"><path class="cls-1" d="M170.76,235.62l5.16-3c.51-.3.93,0,.93.54v1.88a2.08,2.08,0,0,1-.93,1.62l-5.14,3c-.51.29-.93.06-.93-.54v-1.89A2.05,2.05,0,0,1,170.76,235.62Z"/><path class="cls-1" d="M170.76,243.12l5.16-3c.51-.29.93,0,.93.54v1.88a2.08,2.08,0,0,1-.93,1.62l-5.16,3c-.51.29-.93.06-.93-.54v-1.89A2.09,2.09,0,0,1,170.76,243.12Z"/><path class="cls-1" d="M170.76,250.67l5.16-3c.51-.29.93,0,.93.54v1.89a2.07,2.07,0,0,1-.93,1.61l-5.14,3c-.51.3-.93.07-.93-.53v-1.89A2.1,2.1,0,0,1,170.76,250.67Z"/><path class="cls-1" d="M170.76,258.13l5.16-3c.51-.3.93,0,.93.54v1.91a2.11,2.11,0,0,1-.93,1.59l-5.14,3c-.51.29-.93.06-.93-.54v-1.88A2.12,2.12,0,0,1,170.76,258.13Z"/></g><path class="cls-5" d="M184.36,191.55l8.68-5c.52-.31,1-.09,1,.47a2,2,0,0,1-1,1.57l-8.68,5c-.51.3-.94.09-.94-.47A2,2,0,0,1,184.36,191.55Z"/><path class="cls-9" d="M184.36,191.55l8.68-5c.52-.31,1-.09,1,.47a2,2,0,0,1-1,1.57l-8.68,5c-.51.3-.94.09-.94-.47A2,2,0,0,1,184.36,191.55Z"/><path class="cls-5" d="M184.36,204.12l8.68-5.05c.52-.3,1-.08,1,.48a2,2,0,0,1-1,1.56l-8.68,5c-.51.3-.94.09-.94-.48A2,2,0,0,1,184.36,204.12Z"/><path class="cls-9" d="M184.36,204.12l8.68-5.05c.52-.3,1-.08,1,.48a2,2,0,0,1-1,1.56l-8.68,5c-.51.3-.94.09-.94-.48A2,2,0,0,1,184.36,204.12Z"/><path class="cls-5" d="M184.36,210l8.68-5c.52-.31,1-.09,1,.48a2,2,0,0,1-1,1.56l-8.68,5c-.51.31-.94.09-.94-.47A2.07,2.07,0,0,1,184.36,210Z"/><path class="cls-9" d="M184.36,210l8.68-5c.52-.31,1-.09,1,.48a2,2,0,0,1-1,1.56l-8.68,5c-.51.31-.94.09-.94-.47A2.07,2.07,0,0,1,184.36,210Z"/><path class="cls-5" d="M184.36,215.81l8.68-5.05c.52-.3,1-.08,1,.48a2,2,0,0,1-1,1.56l-8.68,5c-.51.3-.94.09-.94-.48A2,2,0,0,1,184.36,215.81Z"/><path class="cls-9" d="M184.36,215.81l8.68-5.05c.52-.3,1-.08,1,.48a2,2,0,0,1-1,1.56l-8.68,5c-.51.3-.94.09-.94-.48A2,2,0,0,1,184.36,215.81Z"/><g class="cls-12"><path class="cls-1" d="M170.76,198.4l5.16-3c.51-.29.93-.05.93.54v1.89a2.07,2.07,0,0,1-.93,1.61l-5.14,3c-.51.3-.93.06-.93-.53V200A2.08,2.08,0,0,1,170.76,198.4Z"/><path class="cls-1" d="M170.76,205.9l5.16-3c.51-.29.93-.05.93.54v1.89a2.09,2.09,0,0,1-.93,1.65l-5.14,3c-.51.29-.93.06-.93-.54v-1.89A2.1,2.1,0,0,1,170.76,205.9Z"/><path class="cls-1" d="M170.76,213.4l5.16-3c.51-.29.93-.05.93.54v1.88a2.08,2.08,0,0,1-.93,1.62l-5.14,3c-.51.3-.93.06-.93-.54v-1.84A2.11,2.11,0,0,1,170.76,213.4Z"/><path class="cls-1" d="M170.76,220.91l5.16-3c.51-.3.93-.06.93.53v1.89a2.1,2.1,0,0,1-.93,1.64l-5.14,3c-.51.3-.93.06-.93-.54v-1.88A2.08,2.08,0,0,1,170.76,220.91Z"/><path class="cls-1" d="M170.76,272.84l5.16-3c.51-.29.93-.05.93.54v1.88a2.08,2.08,0,0,1-.93,1.62l-5.14,3c-.51.3-.93.06-.93-.54v-1.88A2.09,2.09,0,0,1,170.76,272.84Z"/><path class="cls-1" d="M170.76,280.35l5.16-3c.51-.29.93-.05.93.54v1.89a2.07,2.07,0,0,1-.93,1.61l-5.14,3c-.51.3-.93.06-.93-.53v-1.92A2.1,2.1,0,0,1,170.76,280.35Z"/></g><g class="cls-12"><path class="cls-1" d="M170.76,161.22l5.16-3c.51-.29.93-.05.93.54v1.88a2.08,2.08,0,0,1-.93,1.62l-5.14,3c-.51.3-.93.06-.93-.54v-1.88A2.06,2.06,0,0,1,170.76,161.22Z"/><path class="cls-1" d="M170.76,168.68l5.16-3c.51-.29.93-.05.93.54v1.91a2.08,2.08,0,0,1-.93,1.59l-5.14,3c-.51.3-.93.07-.93-.53v-1.89A2.08,2.08,0,0,1,170.76,168.68Z"/><path class="cls-1" d="M170.76,176.18l5.16-3c.51-.3.93-.05.93.54v1.88a2.08,2.08,0,0,1-.93,1.62l-5.14,3c-.51.29-.93.06-.93-.54V177.8A2.12,2.12,0,0,1,170.76,176.18Z"/><path class="cls-1" d="M170.76,183.68l5.16-3c.51-.29.93-.05.93.54v1.88a2.08,2.08,0,0,1-.93,1.62l-5.14,3c-.51.3-.93.06-.93-.54V185.3A2.12,2.12,0,0,1,170.76,183.68Z"/></g><path class="cls-13" d="M321.47,129.49l-39.35,22.73a5.8,5.8,0,0,0-2.65,4.58v59.26c0,1.69,1.19,2.37,2.65,1.53l39.35-22.72a5.85,5.85,0,0,0,2.6-4.58V131C324.11,129.33,322.93,128.65,321.47,129.49Z"/><path class="cls-5" d="M317.81,174.54l-3.62,2.09a2.87,2.87,0,0,0-1.34,2.22c0,.8.6,1.11,1.34.68l3.62-2.1a2.88,2.88,0,0,0,1.34-2.21C319.15,174.42,318.55,174.11,317.81,174.54Z"/><path class="cls-9" d="M317.81,174.54l-3.62,2.09a2.87,2.87,0,0,0-1.34,2.22c0,.8.6,1.11,1.34.68l3.62-2.1a2.88,2.88,0,0,0,1.34-2.21C319.15,174.42,318.55,174.11,317.81,174.54Z"/><path class="cls-5" d="M317.81,137.32l-3.62,2.1a2.86,2.86,0,0,0-1.34,2.22c0,.8.6,1.1,1.34.68l3.62-2.1a2.88,2.88,0,0,0,1.34-2.22C319.15,137.2,318.55,136.9,317.81,137.32Z"/><path class="cls-9" d="M317.81,137.32l-3.62,2.1a2.86,2.86,0,0,0-1.34,2.22c0,.8.6,1.1,1.34.68l3.62-2.1a2.88,2.88,0,0,0,1.34-2.22C319.15,137.2,318.55,136.9,317.81,137.32Z"/><path class="cls-5" d="M312.72,147.69l-3.62,2.1a2.86,2.86,0,0,0-1.34,2.22c0,.8.6,1.1,1.34.68l3.62-2.1a2.9,2.9,0,0,0,1.34-2.22C314.06,147.56,313.46,147.27,312.72,147.69Z"/><path class="cls-9" d="M312.72,147.69l-3.62,2.1a2.86,2.86,0,0,0-1.34,2.22c0,.8.6,1.1,1.34.68l3.62-2.1a2.9,2.9,0,0,0,1.34-2.22C314.06,147.56,313.46,147.27,312.72,147.69Z"/><path class="cls-5" d="M312.72,155.14l-3.62,2.1a2.86,2.86,0,0,0-1.34,2.21c0,.8.6,1.11,1.34.68l3.62-2.09a2.9,2.9,0,0,0,1.34-2.23C314.06,155,313.46,154.68,312.72,155.14Z"/><path class="cls-9" d="M312.72,155.14l-3.62,2.1a2.86,2.86,0,0,0-1.34,2.21c0,.8.6,1.11,1.34.68l3.62-2.09a2.9,2.9,0,0,0,1.34-2.23C314.06,155,313.46,154.68,312.72,155.14Z"/><path class="cls-5" d="M317.81,159.64l-3.62,2.11a2.84,2.84,0,0,0-1.34,2.21c0,.8.6,1.1,1.34.68l3.62-2.1a2.88,2.88,0,0,0,1.34-2.22C319.15,159.52,318.55,159.22,317.81,159.64Z"/><path class="cls-9" d="M317.81,159.64l-3.62,2.11a2.84,2.84,0,0,0-1.34,2.21c0,.8.6,1.1,1.34.68l3.62-2.1a2.88,2.88,0,0,0,1.34-2.22C319.15,159.52,318.55,159.22,317.81,159.64Z"/><path class="cls-5" d="M312.72,170l-3.62,2.1a2.86,2.86,0,0,0-1.34,2.22c0,.8.6,1.1,1.34.68l3.62-2.11a2.86,2.86,0,0,0,1.34-2.21C314.06,169.9,313.46,169.6,312.72,170Z"/><path class="cls-9" d="M312.72,170l-3.62,2.1a2.86,2.86,0,0,0-1.34,2.22c0,.8.6,1.1,1.34.68l3.62-2.11a2.86,2.86,0,0,0,1.34-2.21C314.06,169.9,313.46,169.6,312.72,170Z"/><path class="cls-5" d="M307.93,143.06l-22.16,12.77a2.9,2.9,0,0,0-1.34,2.22c0,.8.6,1.11,1.34.68L307.93,146a2.88,2.88,0,0,0,1.33-2.23A.8.8,0,0,0,307.93,143.06Z"/><path class="cls-14" d="M307.93,143.06l-22.16,12.77a2.9,2.9,0,0,0-1.34,2.22c0,.8.6,1.11,1.34.68L307.93,146a2.88,2.88,0,0,0,1.33-2.23A.8.8,0,0,0,307.93,143.06Z"/><path class="cls-5" d="M307.93,180.27l-22.12,12.78a2.83,2.83,0,0,0-1.33,2.21c0,.8.6,1.1,1.33.68l22.12-12.78a2.83,2.83,0,0,0,1.33-2.21C309.23,180.14,308.63,179.84,307.93,180.27Z"/><path class="cls-14" d="M307.93,180.27l-22.12,12.78a2.83,2.83,0,0,0-1.33,2.21c0,.8.6,1.1,1.33.68l22.12-12.78a2.83,2.83,0,0,0,1.33-2.21C309.23,180.14,308.63,179.84,307.93,180.27Z"/><path class="cls-5" d="M302.8,153.4l-17,9.86a2.88,2.88,0,0,0-1.34,2.22c0,.8.6,1.1,1.34.67l17-9.85a2.87,2.87,0,0,0,1.34-2.22C304.14,153.3,303.58,153,302.8,153.4Z"/><path class="cls-14" d="M302.8,153.4l-17,9.86a2.88,2.88,0,0,0-1.34,2.22c0,.8.6,1.1,1.34.67l17-9.85a2.87,2.87,0,0,0,1.34-2.22C304.14,153.3,303.58,153,302.8,153.4Z"/><path class="cls-5" d="M302.8,160.86l-17,9.86a2.86,2.86,0,0,0-1.34,2.21c0,.81.6,1.1,1.34.68l17-9.85a2.87,2.87,0,0,0,1.34-2.22C304.14,160.74,303.58,160.43,302.8,160.86Z"/><path class="cls-14" d="M302.8,160.86l-17,9.86a2.86,2.86,0,0,0-1.34,2.21c0,.81.6,1.1,1.34.68l17-9.85a2.87,2.87,0,0,0,1.34-2.22C304.14,160.74,303.58,160.43,302.8,160.86Z"/><path class="cls-5" d="M307.93,165.38l-22.12,12.78a2.85,2.85,0,0,0-1.34,2.21c0,.81.6,1.11,1.34.68l22.12-12.77a2.86,2.86,0,0,0,1.33-2.22C309.23,165.26,308.63,165,307.93,165.38Z"/><path class="cls-14" d="M307.93,165.38l-22.12,12.78a2.85,2.85,0,0,0-1.34,2.21c0,.81.6,1.11,1.34.68l22.12-12.77a2.86,2.86,0,0,0,1.33-2.22C309.23,165.26,308.63,165,307.93,165.38Z"/><path class="cls-5" d="M302.8,175.75l-17,9.85a2.9,2.9,0,0,0-1.34,2.22c0,.8.6,1.1,1.34.67l17-9.84a2.85,2.85,0,0,0,1.34-2.23C304.14,175.62,303.58,175.32,302.8,175.75Z"/><path class="cls-14" d="M302.8,175.75l-17,9.85a2.9,2.9,0,0,0-1.34,2.22c0,.8.6,1.1,1.34.67l17-9.84a2.85,2.85,0,0,0,1.34-2.23C304.14,175.62,303.58,175.32,302.8,175.75Z"/><path class="cls-5" d="M317.81,189.5l-3.62,2.11a2.87,2.87,0,0,0-1.34,2.23c0,.79.6,1.1,1.34.67l3.62-2.09a2.9,2.9,0,0,0,1.34-2.22C319.15,189.38,318.55,189.08,317.81,189.5Z"/><path class="cls-9" d="M317.81,189.5l-3.62,2.11a2.87,2.87,0,0,0-1.34,2.23c0,.79.6,1.1,1.34.67l3.62-2.09a2.9,2.9,0,0,0,1.34-2.22C319.15,189.38,318.55,189.08,317.81,189.5Z"/><path class="cls-5" d="M312.72,185l-3.62,2.09a2.87,2.87,0,0,0-1.34,2.22c0,.8.6,1.11,1.34.68l3.62-2.1a2.88,2.88,0,0,0,1.34-2.22C314.06,184.86,313.46,184.56,312.72,185Z"/><path class="cls-9" d="M312.72,185l-3.62,2.09a2.87,2.87,0,0,0-1.34,2.22c0,.8.6,1.11,1.34.68l3.62-2.1a2.88,2.88,0,0,0,1.34-2.22C314.06,184.86,313.46,184.56,312.72,185Z"/><path class="cls-5" d="M307.93,195.23,285.81,208a2.84,2.84,0,0,0-1.34,2.21c0,.81.6,1.11,1.34.68l22.12-12.77a2.87,2.87,0,0,0,1.3-2.17C309.23,195.09,308.63,194.81,307.93,195.23Z"/><path class="cls-14" d="M307.93,195.23,285.81,208a2.84,2.84,0,0,0-1.34,2.21c0,.81.6,1.11,1.34.68l22.12-12.77a2.87,2.87,0,0,0,1.3-2.17C309.23,195.09,308.63,194.81,307.93,195.23Z"/><path class="cls-5" d="M302.8,190.74l-17,9.85a2.9,2.9,0,0,0-1.34,2.23c0,.8.6,1.1,1.34.66l17-9.87a2.85,2.85,0,0,0,1.34-2.21C304.14,190.59,303.58,190.29,302.8,190.74Z"/><path class="cls-14" d="M302.8,190.74l-17,9.85a2.9,2.9,0,0,0-1.34,2.23c0,.8.6,1.1,1.34.66l17-9.87a2.85,2.85,0,0,0,1.34-2.21C304.14,190.59,303.58,190.29,302.8,190.74Z"/><path class="cls-13" d="M321.47,68.53,282.12,91.25a5.83,5.83,0,0,0-2.65,4.58v45.41c0,1.69,1.19,2.37,2.65,1.53l39.35-22.72a5.85,5.85,0,0,0,2.6-4.58V70C324.11,68.37,322.93,67.69,321.47,68.53Z"/><path class="cls-5" d="M317.81,113.57l-3.62,2.1a2.86,2.86,0,0,0-1.34,2.22c0,.8.6,1.1,1.34.67l3.62-2.09a2.88,2.88,0,0,0,1.34-2.22C319.15,113.45,318.55,113.15,317.81,113.57Z"/><path class="cls-9" d="M317.81,113.57l-3.62,2.1a2.86,2.86,0,0,0-1.34,2.22c0,.8.6,1.1,1.34.67l3.62-2.09a2.88,2.88,0,0,0,1.34-2.22C319.15,113.45,318.55,113.15,317.81,113.57Z"/><path class="cls-5" d="M317.81,76.36l-3.62,2.1a2.86,2.86,0,0,0-1.34,2.22c0,.8.6,1.1,1.34.68l3.62-2.1A2.9,2.9,0,0,0,319.15,77C319.15,76.24,318.55,75.94,317.81,76.36Z"/><path class="cls-9" d="M317.81,76.36l-3.62,2.1a2.86,2.86,0,0,0-1.34,2.22c0,.8.6,1.1,1.34.68l3.62-2.1A2.9,2.9,0,0,0,319.15,77C319.15,76.24,318.55,75.94,317.81,76.36Z"/><path class="cls-5" d="M312.72,86.73l-3.62,2.1A2.86,2.86,0,0,0,307.76,91c0,.8.6,1.11,1.34.68l3.62-2.09a2.89,2.89,0,0,0,1.34-2.24C314.06,86.6,313.46,86.3,312.72,86.73Z"/><path class="cls-9" d="M312.72,86.73l-3.62,2.1A2.86,2.86,0,0,0,307.76,91c0,.8.6,1.11,1.34.68l3.62-2.09a2.89,2.89,0,0,0,1.34-2.24C314.06,86.6,313.46,86.3,312.72,86.73Z"/><path class="cls-5" d="M312.72,94.15l-3.62,2.09a2.89,2.89,0,0,0-1.34,2.23c0,.8.6,1.1,1.34.68l3.62-2.1a2.88,2.88,0,0,0,1.34-2.22C314.06,94,313.46,93.73,312.72,94.15Z"/><path class="cls-9" d="M312.72,94.15l-3.62,2.09a2.89,2.89,0,0,0-1.34,2.23c0,.8.6,1.1,1.34.68l3.62-2.1a2.88,2.88,0,0,0,1.34-2.22C314.06,94,313.46,93.73,312.72,94.15Z"/><path class="cls-5" d="M317.81,98.68l-3.62,2.1a2.88,2.88,0,0,0-1.34,2.25c0,.8.6,1.1,1.34.67l3.62-2.09a2.9,2.9,0,0,0,1.34-2.22C319.15,98.56,318.55,98.26,317.81,98.68Z"/><path class="cls-9" d="M317.81,98.68l-3.62,2.1a2.88,2.88,0,0,0-1.34,2.25c0,.8.6,1.1,1.34.67l3.62-2.09a2.9,2.9,0,0,0,1.34-2.22C319.15,98.56,318.55,98.26,317.81,98.68Z"/><path class="cls-5" d="M312.72,109.05l-3.62,2.1a2.88,2.88,0,0,0-1.34,2.22c0,.8.6,1.1,1.34.68l3.62-2.09a2.92,2.92,0,0,0,1.34-2.23C314.06,108.93,313.46,108.63,312.72,109.05Z"/><path class="cls-9" d="M312.72,109.05l-3.62,2.1a2.88,2.88,0,0,0-1.34,2.22c0,.8.6,1.1,1.34.68l3.62-2.09a2.92,2.92,0,0,0,1.34-2.23C314.06,108.93,313.46,108.63,312.72,109.05Z"/><path class="cls-5" d="M307.93,82.1,285.77,94.87a2.83,2.83,0,0,0-1.29,2.22c0,.8.6,1.1,1.33.67L307.93,85a2.85,2.85,0,0,0,1.33-2.22C309.23,82,308.63,81.67,307.93,82.1Z"/><path class="cls-14" d="M307.93,82.1,285.77,94.87a2.83,2.83,0,0,0-1.29,2.22c0,.8.6,1.1,1.33.67L307.93,85a2.85,2.85,0,0,0,1.33-2.22C309.23,82,308.63,81.67,307.93,82.1Z"/><path class="cls-5" d="M307.93,119.3l-22.12,12.78a2.87,2.87,0,0,0-1.33,2.21c0,.8.6,1.11,1.33.68l22.12-12.77a2.85,2.85,0,0,0,1.33-2.22C309.23,119.18,308.63,118.88,307.93,119.3Z"/><path class="cls-14" d="M307.93,119.3l-22.12,12.78a2.87,2.87,0,0,0-1.33,2.21c0,.8.6,1.11,1.33.68l22.12-12.77a2.85,2.85,0,0,0,1.33-2.22C309.23,119.18,308.63,118.88,307.93,119.3Z"/><path class="cls-5" d="M302.8,92.46l-17,9.85a2.89,2.89,0,0,0-1.29,2.22c0,.8.6,1.1,1.33.68l17-9.85a2.87,2.87,0,0,0,1.34-2.22C304.14,92.34,303.58,92,302.8,92.46Z"/><path class="cls-14" d="M302.8,92.46l-17,9.85a2.89,2.89,0,0,0-1.29,2.22c0,.8.6,1.1,1.33.68l17-9.85a2.87,2.87,0,0,0,1.34-2.22C304.14,92.34,303.58,92,302.8,92.46Z"/><path class="cls-5" d="M302.8,99.9l-17,9.85a2.85,2.85,0,0,0-1.29,2.22c0,.8.6,1.11,1.33.68l17-9.85a2.87,2.87,0,0,0,1.34-2.22C304.14,99.78,303.58,99.48,302.8,99.9Z"/><path class="cls-14" d="M302.8,99.9l-17,9.85a2.85,2.85,0,0,0-1.29,2.22c0,.8.6,1.11,1.33.68l17-9.85a2.87,2.87,0,0,0,1.34-2.22C304.14,99.78,303.58,99.48,302.8,99.9Z"/><path class="cls-5" d="M307.93,104.42l-22.12,12.77a2.87,2.87,0,0,0-1.34,2.23c0,.79.6,1.1,1.34.67l22.12-12.77a2.86,2.86,0,0,0,1.33-2.23C309.23,104.3,308.63,104,307.93,104.42Z"/><path class="cls-14" d="M307.93,104.42l-22.12,12.77a2.87,2.87,0,0,0-1.34,2.23c0,.79.6,1.1,1.34.67l22.12-12.77a2.86,2.86,0,0,0,1.33-2.23C309.23,104.3,308.63,104,307.93,104.42Z"/><path class="cls-5" d="M302.8,114.79l-17,9.85a2.88,2.88,0,0,0-1.34,2.22c0,.8.6,1.1,1.34.68l17-9.85a2.87,2.87,0,0,0,1.34-2.23C304.14,114.66,303.58,114.36,302.8,114.79Z"/><path class="cls-14" d="M302.8,114.79l-17,9.85a2.88,2.88,0,0,0-1.34,2.22c0,.8.6,1.1,1.34.68l17-9.85a2.87,2.87,0,0,0,1.34-2.23C304.14,114.66,303.58,114.36,302.8,114.79Z"/></g></g><g id="freepik--Box--inject-89"><g id="freepik--speach-bubble--inject-89"><path class="cls-5" d="M216,165l-32.29,18.6a2.84,2.84,0,0,0-1.29,2.23V230a2.82,2.82,0,0,0,1.29,2.22l2.46,1.39a2.92,2.92,0,0,0,2.61,0L221.08,215a2.8,2.8,0,0,0,1.28-2.23V168.62a2.78,2.78,0,0,0-1.28-2.19L218.62,165A2.84,2.84,0,0,0,216,165Z"/><path class="cls-15" d="M188.8,233.58a3,3,0,0,1-2.61,0l-2.46-1.38a2.83,2.83,0,0,1-1.3-2.22V185.84a2.63,2.63,0,0,1,.41-1.31l5,2.9a2.48,2.48,0,0,0-.38,1.26v44.14C187.5,233.59,188.08,234,188.8,233.58Z"/><path class="cls-16" d="M222.35,168.38c-.11-.65-.64-.87-1.28-.51L188.8,186.46a2.61,2.61,0,0,0-.87,1l-5.07-2.9a2.48,2.48,0,0,1,.87-.92L216,165a2.9,2.9,0,0,1,2.6,0l2.47,1.42A2.87,2.87,0,0,1,222.35,168.38Z"/><path class="cls-5" d="M221.08,167.87,188.8,186.46a2.85,2.85,0,0,0-1.3,2.23v44.14c0,.83.58,1.16,1.3.75L221.08,215a2.8,2.8,0,0,0,1.28-2.23V168.62C222.35,167.79,221.78,167.46,221.08,167.87Z"/></g><g id="freepik----inject-89"><path class="cls-1" d="M189.64,209.39a2.27,2.27,0,0,1,.14-.81,5.86,5.86,0,0,1,.41-.74l7.61-12.31.12-.15.09-.06a.23.23,0,0,1,.29,0,.56.56,0,0,1,.11.37v4.76a2,2,0,0,1-.22,1,5.54,5.54,0,0,1-.39.65l-3.32,5.16,3.32,1.3a1.38,1.38,0,0,1,.39.18c.15.1.22.33.22.72v4.74a1.26,1.26,0,0,1-.11.51.74.74,0,0,1-.29.34h-.21l-7.61-3.48a.89.89,0,0,1-.41-.28,1.07,1.07,0,0,1-.14-.63Z"/><path class="cls-1" d="M206.24,188.52a3.47,3.47,0,0,1,.28-.76,1.41,1.41,0,0,1,.56-.6l2.54-1.47a.24.24,0,0,1,.3,0,.51.51,0,0,1,.12.38,1.41,1.41,0,0,1,0,.29l-6.44,27.42a4.07,4.07,0,0,1-.26.74,1.37,1.37,0,0,1-.57.62l-2.54,1.46a.23.23,0,0,1-.29,0,.53.53,0,0,1-.13-.38,1.41,1.41,0,0,1,0-.29Z"/><path class="cls-1" d="M220.21,193a2.21,2.21,0,0,1-.14.8,4.88,4.88,0,0,1-.42.74l-7.6,12.31a1,1,0,0,1-.13.15l-.08.07a.25.25,0,0,1-.29,0,.48.48,0,0,1-.11-.38v-4.74a2,2,0,0,1,.21-1,6.5,6.5,0,0,1,.4-.63l3.32-5.15-3.32-1.27a1.5,1.5,0,0,1-.4-.2c-.14-.1-.21-.35-.21-.74v-4.8a1.26,1.26,0,0,1,.11-.51.72.72,0,0,1,.29-.33h.21l7.6,3.51a1.19,1.19,0,0,1,.42.28,1.08,1.08,0,0,1,.14.64Z"/></g></g></g><g id="freepik--Gears--inject-89"><g id="freepik--gears--inject-89-2" data-name="freepik--gears--inject-89"><path class="cls-5" d="M178.94,288.22h0a.61.61,0,0,0-.66.09l-1.34.95-.28.87a1.57,1.57,0,0,0,.45,1.51,9.19,9.19,0,0,1,.65.75.94.94,0,0,0,1.3.23l3.13-2.24a.64.64,0,0,1,.65-.1Zm-4.46,11.95c-.56-2.6-2.27-3.81-4.41-3.55a8,8,0,0,1,.51,1.5c.86,4.1-1.51,10.05-5.31,13.3a7.87,7.87,0,0,1-4,2c1.4,2.71,4.66,2.84,8,0C173,310.26,175.35,304.31,174.48,300.17Zm-.65-17.62h0a.75.75,0,0,0-.25-.09l-2.44-.46a1.34,1.34,0,0,0-1.35.7l-2.1,4.45a2.31,2.31,0,0,1-.48.6h0a2,2,0,0,1-.38.27l.81,2.34a.87.87,0,0,0,1.13.48h0a11.33,11.33,0,0,1,1.47-.55,2.28,2.28,0,0,0,.87-.49,2,2,0,0,0,.5-.59l2.09-4.43a1.29,1.29,0,0,1,1.34-.7l2.45.45.25.08Zm-5.12,42.29a.67.67,0,0,1-.24-.37l-.93-2.68a.8.8,0,0,0-1-.53l-.14.06a10.94,10.94,0,0,1-1.48.55,2.11,2.11,0,0,0-.46.21l.13.35a.66.66,0,0,0,.33.4h0Zm-6.24-39.6a.6.6,0,0,0-.27-.06.68.68,0,0,0-.43.19l-3.52,3a.86.86,0,0,0-.13.14l-.09.11a2.19,2.19,0,0,0-.3.59v.14h0a1.68,1.68,0,0,0-.08.59l.36,3.47a2.66,2.66,0,0,1-.5,1.68q-.84,1.11-1.59,2.31a1.82,1.82,0,0,1-.78.64,1.15,1.15,0,0,1-.31.11h-2.94l-.17,0h0l-.18.08a1.53,1.53,0,0,0-.69.71l-2,5a.92.92,0,0,0,.42,1.16l2.61,1.39a1.18,1.18,0,0,1,.07.67,23.25,23.25,0,0,0-.31,2.35,2.91,2.91,0,0,1-.71,1.63h0l-3.07,3.05a1.15,1.15,0,0,0-.14.17h0a1.51,1.51,0,0,0-.11.22,1.85,1.85,0,0,0-.19,1.18l.75,3.47a.69.69,0,0,0,.29.47l3.83,2.15a.66.66,0,0,1-.28-.46l-.75-3.47a1.56,1.56,0,0,1,0-.68,1.82,1.82,0,0,1,.46-.93l3.06-3.05h0a3,3,0,0,0,.72-1.62,20.7,20.7,0,0,1,.31-2.35,1.19,1.19,0,0,0-.69-1.28l-1.92-.72a.94.94,0,0,1-.55-1.21v0l2-5.06a1.38,1.38,0,0,1,.35-.48,1.44,1.44,0,0,1,1-.4h2.34A1.36,1.36,0,0,0,159,300a1.84,1.84,0,0,0,.78-.65c.49-.78,1-1.56,1.59-2.3a2.66,2.66,0,0,0,.49-1.73l-.35-3.43a1.34,1.34,0,0,1,.07-.6,1.86,1.86,0,0,1,.56-1l3.47-3a.64.64,0,0,1,.72-.13Zm-3.92,36.82a1.62,1.62,0,0,0-.45-1.51,7.65,7.65,0,0,1-.65-.74.92.92,0,0,0-1.29-.25h0l-1.78,1.27-1.22,3.65a.79.79,0,0,0,.36,1h0l3.92,2.05a.8.8,0,0,1-.37-1Z"/><path class="cls-17" d="M178.94,288.22h0a.61.61,0,0,0-.66.09l-1.34.95-.28.87a1.57,1.57,0,0,0,.45,1.51,9.19,9.19,0,0,1,.65.75.94.94,0,0,0,1.3.23l3.13-2.24a.64.64,0,0,1,.65-.1Zm-4.46,11.95c-.56-2.6-2.27-3.81-4.41-3.55a8,8,0,0,1,.51,1.5c.86,4.1-1.51,10.05-5.31,13.3a7.87,7.87,0,0,1-4,2c1.4,2.71,4.66,2.84,8,0C173,310.26,175.35,304.31,174.48,300.17Zm-.65-17.62h0a.75.75,0,0,0-.25-.09l-2.44-.46a1.34,1.34,0,0,0-1.35.7l-2.1,4.45a2.31,2.31,0,0,1-.48.6h0a2,2,0,0,1-.38.27l.81,2.34a.87.87,0,0,0,1.13.48h0a11.33,11.33,0,0,1,1.47-.55,2.28,2.28,0,0,0,.87-.49,2,2,0,0,0,.5-.59l2.09-4.43a1.29,1.29,0,0,1,1.34-.7l2.45.45.25.08Zm-5.12,42.29a.67.67,0,0,1-.24-.37l-.93-2.68a.8.8,0,0,0-1-.53l-.14.06a10.94,10.94,0,0,1-1.48.55,2.11,2.11,0,0,0-.46.21l.13.35a.66.66,0,0,0,.33.4h0Zm-6.24-39.6a.6.6,0,0,0-.27-.06.68.68,0,0,0-.43.19l-3.52,3a.86.86,0,0,0-.13.14l-.09.11a2.19,2.19,0,0,0-.3.59v.14h0a1.68,1.68,0,0,0-.08.59l.36,3.47a2.66,2.66,0,0,1-.5,1.68q-.84,1.11-1.59,2.31a1.82,1.82,0,0,1-.78.64,1.15,1.15,0,0,1-.31.11h-2.94l-.17,0h0l-.18.08a1.53,1.53,0,0,0-.69.71l-2,5a.92.92,0,0,0,.42,1.16l2.61,1.39a1.18,1.18,0,0,1,.07.67,23.25,23.25,0,0,0-.31,2.35,2.91,2.91,0,0,1-.71,1.63h0l-3.07,3.05a1.15,1.15,0,0,0-.14.17h0a1.51,1.51,0,0,0-.11.22,1.85,1.85,0,0,0-.19,1.18l.75,3.47a.69.69,0,0,0,.29.47l3.83,2.15a.66.66,0,0,1-.28-.46l-.75-3.47a1.56,1.56,0,0,1,0-.68,1.82,1.82,0,0,1,.46-.93l3.06-3.05h0a3,3,0,0,0,.72-1.62,20.7,20.7,0,0,1,.31-2.35,1.19,1.19,0,0,0-.69-1.28l-1.92-.72a.94.94,0,0,1-.55-1.21v0l2-5.06a1.38,1.38,0,0,1,.35-.48,1.44,1.44,0,0,1,1-.4h2.34A1.36,1.36,0,0,0,159,300a1.84,1.84,0,0,0,.78-.65c.49-.78,1-1.56,1.59-2.3a2.66,2.66,0,0,0,.49-1.73l-.35-3.43a1.34,1.34,0,0,1,.07-.6,1.86,1.86,0,0,1,.56-1l3.47-3a.64.64,0,0,1,.72-.13Zm-3.92,36.82a1.62,1.62,0,0,0-.45-1.51,7.65,7.65,0,0,1-.65-.74.92.92,0,0,0-1.29-.25h0l-1.78,1.27-1.22,3.65a.79.79,0,0,0,.36,1h0l3.92,2.05a.8.8,0,0,1-.37-1Z"/><path class="cls-5" d="M154.8,313.3l-3.05,3.05a1.82,1.82,0,0,0-.46.93l-3.9-2a2.18,2.18,0,0,1,.17-.51,1.51,1.51,0,0,1,.11-.22h0a1.15,1.15,0,0,1,.14-.17l3.07-3Z"/><path class="cls-5" d="M159,300.05a1.37,1.37,0,0,1-.66.16H156a1.43,1.43,0,0,0-1,.39l-3.89-2.05a1.3,1.3,0,0,1,.33-.23.48.48,0,0,1,.18-.07h0a.48.48,0,0,1,.17-.05h2.94l.3-.12h0Z"/><path class="cls-5" d="M182.86,290.26a.62.62,0,0,0-.65.11l-3.12,2.24a1,1,0,0,1-1.31-.24,5.2,5.2,0,0,0-.66-.74,1.61,1.61,0,0,1-.43-1.52l.28-.87,1.34-1a.61.61,0,0,1,.66-.08h0Z"/><path class="cls-5" d="M177.73,284.63a1.13,1.13,0,0,0-.24-.08l-2.44-.45a1.32,1.32,0,0,0-1.35.69l-2.13,4.43a1.9,1.9,0,0,1-.49.6l-3.85-2.05a2,2,0,0,0,.49-.6l2.1-4.43a1.32,1.32,0,0,1,1.35-.69l2.44.45a1.06,1.06,0,0,1,.25.09h0Z"/><path class="cls-5" d="M166.36,287.28a.65.65,0,0,0-.71.14l-3.47,3a2,2,0,0,0-.57,1l-3.93-2v-.14a2.49,2.49,0,0,1,.29-.59l.1-.11a.86.86,0,0,1,.13-.14l3.57-2.95a.59.59,0,0,1,.43-.19.42.42,0,0,1,.27.06Z"/><path class="cls-15" d="M154.8,313.3l-3.05,3.05a1.82,1.82,0,0,0-.46.93l-3.9-2a2.18,2.18,0,0,1,.17-.51,1.51,1.51,0,0,1,.11-.22h0a1.15,1.15,0,0,1,.14-.17l3.07-3Z"/><path class="cls-15" d="M159,300.05a1.37,1.37,0,0,1-.66.16H156a1.43,1.43,0,0,0-1,.39l-3.89-2.05a1.3,1.3,0,0,1,.33-.23.48.48,0,0,1,.18-.07h0a.48.48,0,0,1,.17-.05h2.94l.3-.12h0Z"/><path class="cls-15" d="M182.86,290.26a.62.62,0,0,0-.65.11l-3.12,2.24a1,1,0,0,1-1.31-.24,5.2,5.2,0,0,0-.66-.74,1.61,1.61,0,0,1-.43-1.52l.28-.87,1.34-1a.61.61,0,0,1,.66-.08h0Z"/><path class="cls-15" d="M177.73,284.63a1.13,1.13,0,0,0-.24-.08l-2.44-.45a1.32,1.32,0,0,0-1.35.69l-2.13,4.43a1.9,1.9,0,0,1-.49.6l-3.85-2.05a2,2,0,0,0,.49-.6l2.1-4.43a1.32,1.32,0,0,1,1.35-.69l2.44.45a1.06,1.06,0,0,1,.25.09h0Z"/><path class="cls-15" d="M166.36,287.28a.65.65,0,0,0-.71.14l-3.47,3a2,2,0,0,0-.57,1l-3.93-2v-.14a2.49,2.49,0,0,1,.29-.59l.1-.11a.86.86,0,0,1,.13-.14l3.57-2.95a.59.59,0,0,1,.43-.19.42.42,0,0,1,.27.06Z"/><path class="cls-5" d="M183.9,294.22l-.74-3.48a.57.57,0,0,0-.61-.53.5.5,0,0,0-.36.16l-3.13,2.24a.94.94,0,0,1-1.3-.24,5.83,5.83,0,0,0-.65-.74,1.61,1.61,0,0,1-.45-1.51l1.46-4.5a.79.79,0,0,0-.46-1,.61.61,0,0,0-.18,0l-2.43-.44a1.33,1.33,0,0,0-1.35.69l-2.13,4.42a2.41,2.41,0,0,1-1.33,1.1,10.76,10.76,0,0,0-1.47.54.87.87,0,0,1-1.15-.43v0l-.93-2.68a.61.61,0,0,0-.73-.46.65.65,0,0,0-.31.18l-3.47,3a2,2,0,0,0-.63,1.56l.36,3.48a2.77,2.77,0,0,1-.5,1.74,24.7,24.7,0,0,0-1.59,2.3,1.9,1.9,0,0,1-1.45.8H156a1.45,1.45,0,0,0-1.3.86l-2,5a.92.92,0,0,0,.52,1.2h0l1.91.73a1.17,1.17,0,0,1,.7,1.27,23.44,23.44,0,0,0-.31,2.36,3,3,0,0,1-.72,1.63l-3.09,3.08a1.94,1.94,0,0,0-.48,1.6l.74,3.47a.59.59,0,0,0,.61.54.62.62,0,0,0,.37-.16l3.12-2.25a.94.94,0,0,1,1.3.24h0a6.59,6.59,0,0,0,.66.74,1.56,1.56,0,0,1,.43,1.51l-1.45,4.49a.8.8,0,0,0,.48,1,.53.53,0,0,0,.16,0l2.45.45a1.29,1.29,0,0,0,1.33-.69l2.1-4.43a2.44,2.44,0,0,1,1.33-1.14,10.37,10.37,0,0,0,1.47-.56.87.87,0,0,1,1.15.44v0l.93,2.68a.61.61,0,0,0,.73.46.73.73,0,0,0,.31-.17l3.47-3a2.06,2.06,0,0,0,.63-1.57l-.36-3.47a2.74,2.74,0,0,1,.5-1.69,27.67,27.67,0,0,0,1.59-2.3,1.93,1.93,0,0,1,1.45-.81h2.33a1.49,1.49,0,0,0,1.3-.87l2-5a.93.93,0,0,0-.52-1.21h0l-1.92-.73a1.18,1.18,0,0,1-.69-1.27,23.44,23.44,0,0,0,.31-2.36,3,3,0,0,1,.72-1.62l3.13-3A1.94,1.94,0,0,0,183.9,294.22ZM169.18,313.5c-3.81,3.25-7.6,2.57-8.48-1.53s1.49-10.05,5.3-13.3,7.6-2.56,8.48,1.54S173,310.26,169.18,313.5Z"/><path class="cls-5" d="M223.61,286.47h0a.76.76,0,0,0-.81,0l-1.69,1-.39,1a1.92,1.92,0,0,0,.4,1.85,7.49,7.49,0,0,1,.73,1,1.12,1.12,0,0,0,1.54.38l3.93-2.44a.75.75,0,0,1,.79-.06Zm-6.34,14c-.46-3.14-2.41-4.76-5-4.62a7.81,7.81,0,0,1,.49,1.84c.72,5-2.61,11.95-7.45,15.54a9.59,9.59,0,0,1-5,2.09c1.46,3.37,5.37,3.79,9.55.69C214.65,312.45,218,305.5,217.27,300.5Zm.66-21.21h0a.67.67,0,0,0-.3-.13l-2.89-.7a1.58,1.58,0,0,0-1.68.72l-2.88,5.15a2.31,2.31,0,0,1-.64.68h0a3.31,3.31,0,0,1-.47.29l.77,2.88a1,1,0,0,0,1.23.71l.13,0a13,13,0,0,1,1.81-.55,3.06,3.06,0,0,0,1.06-.51,2.44,2.44,0,0,0,.63-.69l2.9-5.17a1.64,1.64,0,0,1,1.68-.72l2.9.74a1.48,1.48,0,0,1,.29.12Zm-9.56,50.32a.77.77,0,0,1-.26-.46l-.87-3.29a1,1,0,0,0-1.2-.72l-.15.05a11.56,11.56,0,0,1-1.82.55,1.82,1.82,0,0,0-.56.22l.11.42a.85.85,0,0,0,.37.52h0Zm-4.28-48.06a.56.56,0,0,0-.31-.09.87.87,0,0,0-.54.19L198.78,285a.65.65,0,0,0-.18.15l-.12.13a2.76,2.76,0,0,0-.4.68l-.06.17h0a2.07,2.07,0,0,0-.13.7L198,291a3.3,3.3,0,0,1-.74,2,32.56,32.56,0,0,0-2.09,2.6,2.21,2.21,0,0,1-1,.72,1.86,1.86,0,0,1-.39.1h-.43l-2.81-.22h-.52l-.22.09a2.86,2.86,0,0,0-.42.24,1.67,1.67,0,0,0-.46.56l-2.8,5.84a1.14,1.14,0,0,0,.4,1.44l3.07,1.87a1.35,1.35,0,0,1,.05.82,24.33,24.33,0,0,0-.56,2.8,3.57,3.57,0,0,1-1,2h0l-3.93,3.41a1.19,1.19,0,0,0-.19.2h0a1.38,1.38,0,0,0-.17.25,2.37,2.37,0,0,0-.33,1.4l.63,4.24a.8.8,0,0,0,.32.58l4.5,2.76a.74.74,0,0,1-.3-.56l-.61-4.24a1.86,1.86,0,0,1,.06-.81,2.41,2.41,0,0,1,.63-1.08l3.92-3.41h0a3.53,3.53,0,0,0,1-1.88,21.89,21.89,0,0,1,.5-2.78,1.42,1.42,0,0,0-.74-1.59l-2.24-1a1.13,1.13,0,0,1-.56-1.5v0l2.8-5.84a1.58,1.58,0,0,1,.46-.56,1.75,1.75,0,0,1,1.18-.39l2.8.21a1.78,1.78,0,0,0,.82-.14,2.11,2.11,0,0,0,1-.71c.66-.87,1.36-1.79,2.09-2.6a3.32,3.32,0,0,0,.74-2l-.15-4.16a2,2,0,0,1,.13-.72,2.34,2.34,0,0,1,.76-1.12l4.45-3.31a.76.76,0,0,1,.87-.1Zm-7.75,43.9a1.92,1.92,0,0,0-.45-1.83,6.51,6.51,0,0,1-.72-.94,1.13,1.13,0,0,0-1.54-.4l-2.24,1.34L189.66,328a1,1,0,0,0,.35,1.19h0l4.54,2.79a1,1,0,0,1-.36-1.2Z"/><path class="cls-17" d="M223.61,286.47h0a.76.76,0,0,0-.81,0l-1.69,1-.39,1a1.92,1.92,0,0,0,.4,1.85,7.49,7.49,0,0,1,.73,1,1.12,1.12,0,0,0,1.54.38l3.93-2.44a.75.75,0,0,1,.79-.06Zm-6.34,14c-.46-3.14-2.41-4.76-5-4.62a7.81,7.81,0,0,1,.49,1.84c.72,5-2.61,11.95-7.45,15.54a9.59,9.59,0,0,1-5,2.09c1.46,3.37,5.37,3.79,9.55.69C214.65,312.45,218,305.5,217.27,300.5Zm.66-21.21h0a.67.67,0,0,0-.3-.13l-2.89-.7a1.58,1.58,0,0,0-1.68.72l-2.88,5.15a2.31,2.31,0,0,1-.64.68h0a3.31,3.31,0,0,1-.47.29l.77,2.88a1,1,0,0,0,1.23.71l.13,0a13,13,0,0,1,1.81-.55,3.06,3.06,0,0,0,1.06-.51,2.44,2.44,0,0,0,.63-.69l2.9-5.17a1.64,1.64,0,0,1,1.68-.72l2.9.74a1.48,1.48,0,0,1,.29.12Zm-9.56,50.32a.77.77,0,0,1-.26-.46l-.87-3.29a1,1,0,0,0-1.2-.72l-.15.05a11.56,11.56,0,0,1-1.82.55,1.82,1.82,0,0,0-.56.22l.11.42a.85.85,0,0,0,.37.52h0Zm-4.28-48.06a.56.56,0,0,0-.31-.09.87.87,0,0,0-.54.19L198.78,285a.65.65,0,0,0-.18.15l-.12.13a2.76,2.76,0,0,0-.4.68l-.06.17h0a2.07,2.07,0,0,0-.13.7L198,291a3.3,3.3,0,0,1-.74,2,32.56,32.56,0,0,0-2.09,2.6,2.21,2.21,0,0,1-1,.72,1.86,1.86,0,0,1-.39.1h-.43l-2.81-.22h-.52l-.22.09a2.86,2.86,0,0,0-.42.24,1.67,1.67,0,0,0-.46.56l-2.8,5.84a1.14,1.14,0,0,0,.4,1.44l3.07,1.87a1.35,1.35,0,0,1,.05.82,24.33,24.33,0,0,0-.56,2.8,3.57,3.57,0,0,1-1,2h0l-3.93,3.41a1.19,1.19,0,0,0-.19.2h0a1.38,1.38,0,0,0-.17.25,2.37,2.37,0,0,0-.33,1.4l.63,4.24a.8.8,0,0,0,.32.58l4.5,2.76a.74.74,0,0,1-.3-.56l-.61-4.24a1.86,1.86,0,0,1,.06-.81,2.41,2.41,0,0,1,.63-1.08l3.92-3.41h0a3.53,3.53,0,0,0,1-1.88,21.89,21.89,0,0,1,.5-2.78,1.42,1.42,0,0,0-.74-1.59l-2.24-1a1.13,1.13,0,0,1-.56-1.5v0l2.8-5.84a1.58,1.58,0,0,1,.46-.56,1.75,1.75,0,0,1,1.18-.39l2.8.21a1.78,1.78,0,0,0,.82-.14,2.11,2.11,0,0,0,1-.71c.66-.87,1.36-1.79,2.09-2.6a3.32,3.32,0,0,0,.74-2l-.15-4.16a2,2,0,0,1,.13-.72,2.34,2.34,0,0,1,.76-1.12l4.45-3.31a.76.76,0,0,1,.87-.1Zm-7.75,43.9a1.92,1.92,0,0,0-.45-1.83,6.51,6.51,0,0,1-.72-.94,1.13,1.13,0,0,0-1.54-.4l-2.24,1.34L189.66,328a1,1,0,0,0,.35,1.19h0l4.54,2.79a1,1,0,0,1-.36-1.2Z"/><path class="cls-5" d="M192.57,314.63,188.66,318a2.3,2.3,0,0,0-.64,1.08l-4.5-2.77a2.59,2.59,0,0,1,.24-.6,1.32,1.32,0,0,1,.16-.25h0a1.26,1.26,0,0,1,.2-.2l4-3.45Z"/><path class="cls-5" d="M198.72,299.05a1.72,1.72,0,0,1-.81.14L195.1,299a1.73,1.73,0,0,0-1.17.39l-4.53-2.78a3.5,3.5,0,0,1,.42-.24l.23-.09h.5l2.81.22h.43l.37-.11h0Z"/><path class="cls-5" d="M228.11,289.24a.73.73,0,0,0-.79.07l-3.93,2.44a1.13,1.13,0,0,1-1.54-.4h0a8.27,8.27,0,0,0-.73-1,1.89,1.89,0,0,1-.4-1.85l.39-1,1.69-1.05a.72.72,0,0,1,.81,0h0Z"/><path class="cls-5" d="M222.44,282.06a1,1,0,0,0-.29-.13l-2.9-.73a1.62,1.62,0,0,0-1.65.73l-2.87,5.16a2.4,2.4,0,0,1-.63.68L209.57,285a2.28,2.28,0,0,0,.63-.68l2.89-5.15a1.57,1.57,0,0,1,1.67-.72l2.9.74a1.08,1.08,0,0,1,.29.13h0Z"/><path class="cls-5" d="M208.6,284.32a.76.76,0,0,0-.87.11l-4.46,3.31a2.32,2.32,0,0,0-.75,1.12L198,286.09l.06-.17a3.11,3.11,0,0,1,.4-.68,1.59,1.59,0,0,1,.13-.13.5.5,0,0,1,.17-.15l4.46-3.31a.91.91,0,0,1,.54-.19.56.56,0,0,1,.31.09Z"/><path class="cls-15" d="M192.57,314.63,188.66,318a2.3,2.3,0,0,0-.64,1.08l-4.5-2.77a2.59,2.59,0,0,1,.24-.6,1.32,1.32,0,0,1,.16-.25h0a1.26,1.26,0,0,1,.2-.2l4-3.45Z"/><path class="cls-15" d="M198.72,299.05a1.72,1.72,0,0,1-.81.14L195.1,299a1.73,1.73,0,0,0-1.17.39l-4.53-2.78a3.5,3.5,0,0,1,.42-.24l.23-.09h.5l2.81.22h.43l.37-.11h0Z"/><path class="cls-15" d="M228.11,289.24a.73.73,0,0,0-.79.07l-3.93,2.44a1.13,1.13,0,0,1-1.54-.4h0a8.27,8.27,0,0,0-.73-1,1.89,1.89,0,0,1-.4-1.85l.39-1,1.69-1.05a.72.72,0,0,1,.81,0h0Z"/><path class="cls-15" d="M222.44,282.06a1,1,0,0,0-.29-.13l-2.9-.73a1.62,1.62,0,0,0-1.65.73l-2.87,5.16a2.4,2.4,0,0,1-.63.68L209.57,285a2.28,2.28,0,0,0,.63-.68l2.89-5.15a1.57,1.57,0,0,1,1.67-.72l2.9.74a1.08,1.08,0,0,1,.29.13h0Z"/><path class="cls-15" d="M208.6,284.32a.76.76,0,0,0-.87.11l-4.46,3.31a2.32,2.32,0,0,0-.75,1.12L198,286.09l.06-.17a3.11,3.11,0,0,1,.4-.68,1.59,1.59,0,0,1,.13-.13.5.5,0,0,1,.17-.15l4.46-3.31a.91.91,0,0,1,.54-.19.56.56,0,0,1,.31.09Z"/><path class="cls-5" d="M229.08,294.09l-.62-4.23a.69.69,0,0,0-.7-.69.66.66,0,0,0-.44.16l-3.93,2.43a1.11,1.11,0,0,1-1.53-.38h0a7.39,7.39,0,0,0-.73-.94,1.94,1.94,0,0,1-.4-1.86l2.11-5.27a1,1,0,0,0-.49-1.29l-.19-.06-2.9-.73a1.58,1.58,0,0,0-1.65.71l-2.88,5.15a2.83,2.83,0,0,1-1.68,1.19,14.15,14.15,0,0,0-1.82.55,1,1,0,0,1-1.3-.51.75.75,0,0,1,0-.16l-.87-3.3a.73.73,0,0,0-.83-.61.76.76,0,0,0-.4.2l-4.45,3.31a2.43,2.43,0,0,0-.87,1.83l.15,4.16a3.37,3.37,0,0,1-.73,2c-.74.86-1.44,1.73-2.1,2.6a2.3,2.3,0,0,1-1.8.87l-2.81-.22a1.8,1.8,0,0,0-1.64.95l-2.84,5.84a1.11,1.11,0,0,0,.52,1.49l0,0,2.24,1a1.39,1.39,0,0,1,.73,1.58,27,27,0,0,0-.56,2.82,3.53,3.53,0,0,1-1,1.88l-4,3.47A2.34,2.34,0,0,0,188,320l.61,4.24a.69.69,0,0,0,.7.69.79.79,0,0,0,.44-.16l3.93-2.44a1.12,1.12,0,0,1,1.54.39,9.2,9.2,0,0,0,.69.95,1.9,1.9,0,0,1,.41,1.85l-2.12,5.28a1,1,0,0,0,.5,1.29l.19.06,2.89.73a1.59,1.59,0,0,0,1.68-.72l2.87-5.14a2.86,2.86,0,0,1,1.74-1.2,16.24,16.24,0,0,0,1.8-.55,1,1,0,0,1,1.32.52l.05.15.87,3.29a.71.71,0,0,0,.8.62.74.74,0,0,0,.41-.19l4.47-3.31a2.46,2.46,0,0,0,.86-1.84l-.14-4.16a3.2,3.2,0,0,1,.73-2q1.11-1.31,2.1-2.61a2.29,2.29,0,0,1,1.8-.87l2.8.22a1.8,1.8,0,0,0,1.64-.95l2.8-5.84a1.13,1.13,0,0,0-.51-1.5h0l-2.24-1a1.41,1.41,0,0,1-.74-1.59,26.71,26.71,0,0,0,.57-2.8,3.51,3.51,0,0,1,1-1.9l4-3.47A2.37,2.37,0,0,0,229.08,294.09Zm-19.29,22c-4.84,3.59-9.34,2.46-10.06-2.54s2.61-11.95,7.45-15.53,9.33-2.46,10,2.53S214.65,312.45,209.79,316Z"/></g></g><g id="freepik--Plant--inject-89"><g id="freepik--Pot--inject-89"><g id="freepik--pot--inject-89-2" data-name="freepik--pot--inject-89"><path class="cls-4" d="M491.31,338c-6.85-7.07-10.87-35.81-4.19-41.41h34c6.67,5.6,2.65,34.33-4.19,41.4l-.18.2-.24.22c-.2.2-.41.38-.62.56a1.09,1.09,0,0,1-.17.13c-.16.14-.33.27-.51.4s-.59.4-.87.57c-5.62,3.28-14.76,3.28-20.39,0h0a10.11,10.11,0,0,1-.87-.58,4.37,4.37,0,0,1-.48-.37l-.2-.16c-.21-.17-.41-.35-.6-.53l-.27-.27Z"/><path class="cls-4" d="M518.1,294.34c7.75,4.52,7.75,11.85,0,16.38s-20.31,4.52-28.07,0-7.75-11.86,0-16.38S510.39,289.81,518.1,294.34Z"/><g class="cls-18"><path class="cls-1" d="M518.1,294.34c7.75,4.52,7.75,11.85,0,16.38s-20.31,4.52-28.07,0-7.75-11.86,0-16.38S510.39,289.81,518.1,294.34Z"/></g><path class="cls-19" d="M514.41,296.51c5.69,3.32,5.69,8.68,0,12s-14.92,3.31-20.61,0-5.7-8.69,0-12S508.72,293.23,514.41,296.51Z"/><path class="cls-2" d="M493.78,302.22c5.69-3.32,14.91-3.32,20.61,0a9.57,9.57,0,0,1,3.41,3.16,9.6,9.6,0,0,1-3.41,3.17c-5.7,3.31-14.92,3.31-20.61,0a9.6,9.6,0,0,1-3.41-3.17A9.57,9.57,0,0,1,493.78,302.22Z"/></g><path class="cls-5" d="M522.93,240.83l-7.44,6.65,6.74-2.22a29.65,29.65,0,0,1-2.7,11.34l-8.38,4.49,6.69-1a12.51,12.51,0,0,1-.36,5.89c-.07.26-.14.53-.24.8-.59,1.81-1.45,5.21-2.89,9.28h0a58.73,58.73,0,0,1-4.67,10.2,40.77,40.77,0,0,1-3.11,4.6l-.2.27c-2.09-1.4-4.28-2.77-6.55-4.1-1.3-3.34-2.75-11.44-3-18-1-25.18,18.9-38.13,34.42-41.86A45.77,45.77,0,0,0,522.93,240.83Z"/><path class="cls-20" d="M512.1,241.12a18.5,18.5,0,0,0-3.53,4.25,37,37,0,0,0-2.48,5A50.37,50.37,0,0,0,503,261a46.88,46.88,0,0,0,1.16,21.83h0a.37.37,0,1,1-.67.29.24.24,0,0,1,0-.08h0a47.38,47.38,0,0,1-.87-22.14,51.18,51.18,0,0,1,3.3-10.61,38.72,38.72,0,0,1,2.61-4.93A18.59,18.59,0,0,1,512.1,241.12Z"/><path class="cls-5" d="M462.76,253.91h0a192.44,192.44,0,0,1,12.91,19.34l7.91,2.38L479,277.16l4.92,8.36,8.78,2.7-6.08,1.69s2.5,9.89,9.56,14.2c3.9,2.38,5.82,2.79,7.05,1.68.87-.76,1.2-5.46,2-9.64s1.1-11-2.6-19.37a25.74,25.74,0,0,0-3.93-6.17C489.49,259.71,471.66,254.05,462.76,253.91Z"/><path class="cls-7" d="M462.76,253.91h0a192.44,192.44,0,0,1,12.91,19.34l7.91,2.38L479,277.16l4.92,8.36,8.78,2.7-6.08,1.69s2.5,9.89,9.56,14.2c3.9,2.38,5.82,2.79,7.05,1.68.87-.76,1.2-5.46,2-9.64s1.1-11-2.6-19.37a25.74,25.74,0,0,0-3.93-6.17C489.49,259.71,471.66,254.05,462.76,253.91Z"/><path class="cls-21" d="M499.86,281.07h0a39.81,39.81,0,0,1,2.67,10.9h0a117.3,117.3,0,0,1-.06,14.28,2,2,0,0,0,.73-.42c.86-.77,1.19-5.47,2-9.64s1.09-11-2.61-19.36a25.52,25.52,0,0,0-3.92-6.19c-9.2-10.89-27-16.56-35.93-16.7,13.59,2.61,28,12.16,34.91,23A26.49,26.49,0,0,1,499.86,281.07Z"/><path class="cls-20" d="M476.31,258.61a53.26,53.26,0,0,1,17.81,13.12,35.31,35.31,0,0,1,5.94,9.44A34,34,0,0,1,502.58,292v0h0a43.66,43.66,0,0,0-3.11-10.55,40.94,40.94,0,0,0-5.72-9.35,47.13,47.13,0,0,0-8-7.59,63.31,63.31,0,0,0-9.4-5.85Z"/><path class="cls-5" d="M543.88,263.18h0a26,26,0,0,0-3.3,0,52.27,52.27,0,0,0-12.74,2.37c-1.53.47-3.07,1-4.59,1.65-.76.31-1.52.64-2.27,1a36.56,36.56,0,0,0-10,6.74,23.12,23.12,0,0,0-3.57,4.49c-.13.2-.27.41-.39.62h0q-.47.84-.87,1.65a31.48,31.48,0,0,0-3.64,15.3c-.07,3.76,1,8.11,1.66,8.86a1.94,1.94,0,0,0,.31.26c1,.74,2.75.44,6-1.16,6.56-3.21,9.55-12.09,9.55-12.09l-4.15-1.55,6.88-2.09,5-7-4.43-1.06,7.66-2.09a170.23,170.23,0,0,1,12.91-15.94h0Z"/><path class="cls-22" d="M540.58,263.16a52.73,52.73,0,0,0-12.74,2.36c-1.53.48-3.07,1-4.59,1.65-.76.31-1.52.64-2.27,1a36.82,36.82,0,0,0-10,6.75,23.05,23.05,0,0,0-3.57,4.48L507,280h0c-.31.56-.6,1.12-.87,1.65A31.6,31.6,0,0,0,502.47,297c-.07,3.76,1,8.11,1.66,8.86a1.94,1.94,0,0,0,.31.26,2.17,2.17,0,0,0,.68.3c-.46-5.86,3.22-20.44,7.88-26.27,4.86-6.07,16-14.61,30.91-16.95h0A24.68,24.68,0,0,0,540.58,263.16Z"/><path class="cls-20" d="M505.07,306.42a49.82,49.82,0,0,1,1.55-12.81,41.48,41.48,0,0,1,4.94-12,29.36,29.36,0,0,1,4.17-5,41.37,41.37,0,0,1,5-4.16,48.31,48.31,0,0,1,11.44-6m.05,0v0a64,64,0,0,0-11,6.55,52.16,52.16,0,0,0-4.93,4.09,29.07,29.07,0,0,0-4.22,4.78A41.35,41.35,0,0,0,507,293.67a49.66,49.66,0,0,0-1.83,12.71Z"/></g></g><g id="freepik--Characters--inject-89"><g id="freepik--characters--inject-89-2" data-name="freepik--characters--inject-89"><g id="freepik--Character--inject-89"><g id="freepik--Chair--inject-89"><path class="cls-19" d="M276.6,377.47a1.09,1.09,0,0,1-1.09-1.09V306.7a1.09,1.09,0,0,1,2.18,0v69.69A1.09,1.09,0,0,1,276.6,377.47Z"/><path class="cls-19" d="M319.72,352.11a1.08,1.08,0,0,1-1-.69l-21.37-54.1a1.08,1.08,0,0,1,2-.79l21.38,54.09a1.08,1.08,0,0,1-.61,1.41,1.1,1.1,0,0,1-.4.08Z"/><path class="cls-19" d="M317.15,345.61a1,1,0,0,1-.78-.34L276.6,303.19l-39.7,41.9a1.08,1.08,0,1,1-1.7-1.34.86.86,0,0,1,.13-.14l40.46-42.74a1.08,1.08,0,0,1,.79-.34h0a1,1,0,0,1,.78.34l40.56,42.91a1.07,1.07,0,0,1,0,1.53h0A1.1,1.1,0,0,1,317.15,345.61Z"/><path class="cls-19" d="M233.48,352.11a1.1,1.1,0,0,1-.4-.08,1.07,1.07,0,0,1-.61-1.39v0l21.37-54.09a1.08,1.08,0,0,1,2,.79l-21.37,54.09A1.11,1.11,0,0,1,233.48,352.11Z"/><path class="cls-5" d="M318.24,343.94l2.84,7.46v.33a.9.9,0,0,1-.43.47,1.91,1.91,0,0,1-1.74,0,.84.84,0,0,1-.34-.36h0v-.11l-2.6-7Z"/><path class="cls-5" d="M235,343.94l-2.84,7.47a.6.6,0,0,0,0,.19.33.33,0,0,0,0,.14.78.78,0,0,0,.42.47,1.85,1.85,0,0,0,1.74,0,.77.77,0,0,0,.34-.35h0v-.11l2.6-7Z"/><path class="cls-5" d="M277.85,371v6.16a.64.64,0,0,1-.36.52,2,2,0,0,1-1.74,0,.63.63,0,0,1-.37-.52V371A2.63,2.63,0,0,1,277.85,371Z"/><path class="cls-5" d="M317.4,299.87c0-1.64-1.43-3.38-4.45-5.34-5.61-3.63-18.1-10.92-25.93-15.25a.07.07,0,0,0-.06-.07c-6-3.65-11.65-21.06-15.81-34.29-1.42-4.51-3.17-7.06-5.21-8.26-.49-.29-2.3-1.28-2.71-1.52-4.09-2.45-9.45.5-16.14,4.15-6.16,3.38-11,7.7-11.94,19.11-.58,7,0,20.3,1.39,30.4h0c2.05,16.87,4.57,16.9,8.21,19.72,6.29,4.86,20.46,11.69,26.43,14,10.82,4.27,19.67-2.3,26.26-5.55a153.33,153.33,0,0,0,17.43-10.33c1.66-1.21,2.51-2.42,2.5-3.69C317.39,302.47,317.4,300.39,317.4,299.87Z"/><path class="cls-23" d="M317.4,299.87c0-1.64-1.43-3.38-4.45-5.34-5.61-3.63-18.1-10.92-25.93-15.25a.07.07,0,0,0-.06-.07c-6-3.65-11.65-21.06-15.81-34.29-1.42-4.51-3.17-7.06-5.21-8.26-.49-.29-2.3-1.28-2.71-1.52-4.09-2.45-9.45.5-16.14,4.15-6.16,3.38-11,7.7-11.94,19.11-.58,7,0,20.3,1.39,30.4h0c2.05,16.87,4.57,16.9,8.21,19.72,6.29,4.86,20.46,11.69,26.43,14,10.82,4.27,19.67-2.3,26.26-5.55a153.33,153.33,0,0,0,17.43-10.33c1.66-1.21,2.51-2.42,2.5-3.69C317.39,302.47,317.4,300.39,317.4,299.87Z"/><path class="cls-5" d="M265.68,236.52c-4-2.13-9.32.77-15.83,4.34-4.17,2.3-7.73,5-9.89,10.08l-2.75-1.59c2.17-5.06,5.71-7.76,9.87-10,6.69-3.66,12-6.6,16.15-4.15Z"/><path class="cls-5" d="M313,294.53c-3.63-2.36-3.72-2.95-26.1-15.37l.1,0c-6-3.68-11.64-21.06-15.8-34.29-4.23-13.43-11.29-9.55-21.3-4.06-6.16,3.37-11,7.69-11.94,19.11s1.15,39.85,5.05,43.29c4.27,4.7,21.38,13.47,28.21,16.16,10.82,4.25,19.67-2.31,26.27-5.57a152.65,152.65,0,0,0,17.43-10.32C318.66,300.8,318.35,298,313,294.53Z"/><g class="cls-18"><path d="M249.85,240.86c10-5.48,17.07-9.37,21.3,4.06,4.16,13.23,9.78,30.64,15.81,34.29,0,0-10.33,0-25.3,8.07-15.56,8.41-17.94,16.63-18.65,16-3.94-3.27-6.08-31.87-5.1-43.32S243.66,244.23,249.85,240.86Z"/></g></g><path class="cls-10" d="M302.12,358.79s.21,11.37,1.83,14.91A53.6,53.6,0,0,0,310.54,385c.64.82,2.13,2.38,2.66,3.05a1.23,1.23,0,0,1-.05,1.75.9.9,0,0,1-.19.15c-1.46,1.26-7.41,1.27-10.61-1.39s-5.74-6.95-7.62-9l-2.44-2.84a2.67,2.67,0,0,1-.53-2.6c.08-.25.17-.56.27-.87.94-3.17-.61-12.34-.61-12.34C294.46,357.06,298.56,358,302.12,358.79Z"/><path class="cls-19" d="M291.23,377.23a3.5,3.5,0,0,0,.08,1.73c.31.81,2.46,2.35,3.58,3a7.23,7.23,0,0,1,2.89,3.32c1.27,2.43,3.23,5.08,5.79,6.41a18.81,18.81,0,0,0,11.07,1.74c4.71-.6,5.21-3.33,5.21-3.33s.37-2.61-.76-3S291.23,377.23,291.23,377.23Z"/><path class="cls-5" d="M290.76,374a7.52,7.52,0,0,0,.47,3.22c1.28,2,4.49,2.75,6.23,5.44s3.76,6.81,9.81,8.33,10.77-.18,12-1.87.27-3.36-3.53-5.67c-4-2.45-8.69-8.68-8.69-8.68a45.18,45.18,0,0,1-3.08-6.24c-.17-.54-.37-1.16-.87-1.36a1.79,1.79,0,0,0-1.42.29,14,14,0,0,1-2.51,1.33,7.64,7.64,0,0,1-2.24,0,1.39,1.39,0,0,0-1.06.24,1.21,1.21,0,0,0-.24.92,8.52,8.52,0,0,0,.11,1.23,1.22,1.22,0,0,1,0,.6.74.74,0,0,1-.72.44,1.72,1.72,0,0,1-.87-.3,3.72,3.72,0,0,1-1.88-2.61s0-.62-.05-1.19a1.49,1.49,0,0,0-.79.86,14.47,14.47,0,0,0-.21,1.45A23.85,23.85,0,0,0,290.76,374Z"/><path class="cls-24" d="M290.76,374a7.52,7.52,0,0,0,.47,3.22c1.28,2,4.49,2.75,6.23,5.44s3.76,6.81,9.81,8.33,10.77-.18,12-1.87.27-3.36-3.53-5.67c-4-2.45-8.69-8.68-8.69-8.68a45.18,45.18,0,0,1-3.08-6.24c-.17-.54-.37-1.16-.87-1.36a1.79,1.79,0,0,0-1.42.29,14,14,0,0,1-2.51,1.33,7.64,7.64,0,0,1-2.24,0,1.39,1.39,0,0,0-1.06.24,1.21,1.21,0,0,0-.24.92,8.52,8.52,0,0,0,.11,1.23,1.22,1.22,0,0,1,0,.6.74.74,0,0,1-.72.44,1.72,1.72,0,0,1-.87-.3,3.72,3.72,0,0,1-1.88-2.61s0-.62-.05-1.19a1.49,1.49,0,0,0-.79.86,14.47,14.47,0,0,0-.21,1.45A23.85,23.85,0,0,0,290.76,374Z"/><path class="cls-10" d="M327.6,344.67s.87,11.71,2.37,15.31a52.9,52.9,0,0,0,6.08,11.55c.6.87,2,2.47,2.51,3.17a1.23,1.23,0,0,1-.11,1.74l-.2.14c-1.53,1.2-7.47.94-10.54-1.86s-5.44-7.15-7.22-9.34l-2.33-2.92a2.66,2.66,0,0,1-.42-2.6c.1-.26.2-.55.32-.87,1.07-3.12-1.74-11.77-1.74-11.77C319.56,343.52,324.08,343.67,327.6,344.67Z"/><path class="cls-19" d="M317.1,363.68a3.39,3.39,0,0,0,.08,1.73c.3.81,2.46,2.35,3.57,3a7.26,7.26,0,0,1,2.9,3.32,15,15,0,0,0,5.78,6.41,18.89,18.89,0,0,0,11.07,1.74c4.71-.6,5.21-3.33,5.21-3.33s.38-2.6-.76-3S317.1,363.68,317.1,363.68Z"/><path class="cls-5" d="M332.91,361.23a12,12,0,0,1-1.18-1.9c-.34-.73-.68-1.5-1-2.24-.42-1-.79-2-1.2-3.07a1.86,1.86,0,0,0-.55-.87,1.44,1.44,0,0,0-1.51.07c-.46.26-.87.64-1.32.87a8.68,8.68,0,0,1-2.52.5,2.36,2.36,0,0,0-2.08,3,1.22,1.22,0,0,1,0,.6.75.75,0,0,1-.71.44,1.65,1.65,0,0,1-.87-.3,3.63,3.63,0,0,1-1.8-2.61,5.68,5.68,0,0,0-.14-1.18,1.57,1.57,0,0,0-.79.87c-.14.46-.11,1-.21,1.44a24,24,0,0,0-.48,3.56,7.52,7.52,0,0,0,.47,3.22c1.28,2,4.49,2.76,6.23,5.45s3.77,6.81,9.81,8.33,10.77-.18,12-1.87.27-3.37-3.53-5.67C337.54,367.46,332.91,361.24,332.91,361.23Z"/><path class="cls-24" d="M332.91,361.23a12,12,0,0,1-1.18-1.9c-.34-.73-.68-1.5-1-2.24-.42-1-.79-2-1.2-3.07a1.86,1.86,0,0,0-.55-.87,1.44,1.44,0,0,0-1.51.07c-.46.26-.87.64-1.32.87a8.68,8.68,0,0,1-2.52.5,2.36,2.36,0,0,0-2.08,3,1.22,1.22,0,0,1,0,.6.75.75,0,0,1-.71.44,1.65,1.65,0,0,1-.87-.3,3.63,3.63,0,0,1-1.8-2.61,5.68,5.68,0,0,0-.14-1.18,1.57,1.57,0,0,0-.79.87c-.14.46-.11,1-.21,1.44a24,24,0,0,0-.48,3.56,7.52,7.52,0,0,0,.47,3.22c1.28,2,4.49,2.76,6.23,5.45s3.77,6.81,9.81,8.33,10.77-.18,12-1.87.27-3.37-3.53-5.67C337.54,367.46,332.91,361.24,332.91,361.23Z"/><path class="cls-13" d="M250.12,279.21l13.08.28,29.22-2.34s26.83,15,30.65,23.45c2.22,4.9,4.74,42,5.13,47.58-2,1.6-9.12,3.1-11.58,2.69-1.53-4.4-2-5.89-4.15-12.37-1.74-5.27-3.34-8.8-4.58-12.45a53.44,53.44,0,0,1-2.6-13.2s-3.67-2.81-14.13-10.42c3.91,4.28,10.13,11.2,10.9,12.92,2.17,4.9.5,42.13.5,47-1.58,2.07-9.24,2.94-11.13,1.58-1.17-6.52-2.71-11.84-4.35-18.45-2.94-11.67-1.62-17-1.19-20.84,0,0-7.31-5-17.62-12-4.88-3.32-9.44-6-12.27-9.28C250.76,297.39,250.2,286.8,250.12,279.21Z"/><path class="cls-7" d="M291.19,302.42l-8.61-8.68a14.66,14.66,0,0,0,7.82-10.48s1.87,5.35-3,11l6,7.32,11.93,11.29Z"/><path class="cls-10" d="M282.42,223.3c6.24-.09,9.88,2,12,6.95s10.68,30.17,10.68,30.17,13,6.59,20.07,9.43l-6.89,6.6S301.14,272.1,298.1,271s-3.37-1.51-7.45-11.53C284.83,245.14,282.42,223.3,282.42,223.3Z"/><path class="cls-13" d="M280.4,223.3c3.66-.5,9.55-.2,12.42,3.61S303,253.6,303,253.6a18.74,18.74,0,0,1-12.86,6.08l-8.56-22Z"/><path class="cls-5" d="M269.86,223.56c-3.75.16-12.69,1.94-16,2.67-4.07,1.39-.24,1.17-2.22,6.79-2.94,8.4-2,20-2,27.91,0,10.53.24,22.72.24,22.72,8.91,7.53,37.91,4,42.77-6.5,0,0-2.48-12.41-.77-36.48.77-10.77-3.07-17.42-10.53-17.42C281.29,223.29,273.62,223.4,269.86,223.56Z"/><path class="cls-24" d="M269.86,223.56c-3.75.16-12.69,1.94-16,2.67-4.07,1.39-.24,1.17-2.22,6.79-2.94,8.4-2,20-2,27.91,0,10.53.24,22.72.24,22.72,8.91,7.53,37.91,4,42.77-6.5,0,0-2.48-12.41-.77-36.48.77-10.77-3.07-17.42-10.53-17.42C281.29,223.29,273.62,223.4,269.86,223.56Z"/><path class="cls-19" d="M273.19,196.22a7.74,7.74,0,1,0,7.13-8.3h0a7.72,7.72,0,0,0-7.12,8.29Z"/><path class="cls-19" d="M258.09,205.68s2.5,8.76,3.34,10.16a3.9,3.9,0,0,0,2.38,1.74l-.61-6.25Z"/><path class="cls-19" d="M259.41,192.77s-1.33-.23-2.55,2c-1,1.94-1,6.13,1.23,10.87l3.48.15Z"/><path class="cls-19" d="M258.28,194.66l-4.2.43a2,2,0,0,1,1.56-2.35l.18,0A2.31,2.31,0,0,1,258.28,194.66Z"/><path class="cls-19" d="M257.69,193.71,254.36,191a2,2,0,0,1,2.8-.44l.13.1A2.29,2.29,0,0,1,257.69,193.71Z"/><path class="cls-10" d="M262.57,205.75a12.27,12.27,0,0,1-2.64-1.67c-.93-.87-3.65-1.53-4.8,1.6s1.45,5.89,3.48,6.78c1.79.78,3.64-1.39,3.64-1.39l.78,14c7,9.3,20,6.95,13.8-.72l-.44-4.51a22.71,22.71,0,0,0,5.08-.12c2.73-.65,3.83-2.21,4.52-5.32a44.85,44.85,0,0,0,.81-11.45A46.25,46.25,0,0,0,286,196c-2.2-9.69-14.45-11.3-20.62-6.56S262.57,205.75,262.57,205.75Z"/><path class="cls-19" d="M276.5,194.55a22.05,22.05,0,0,1-7.34-1.1,1,1,0,0,0-.71,0,.94.94,0,0,0-.36.67,23.06,23.06,0,0,1-.79,3.48,5,5,0,0,1-2.16,2.77c-.38.2-.8.34-1,.73a2,2,0,0,0-.16,1.2,8.91,8.91,0,0,0,.47,1.52,4.32,4.32,0,0,1,.33,2.61,1.16,1.16,0,0,1-1.52.6l-.14-.07a6.58,6.58,0,0,1-1.55-1.43,11.14,11.14,0,0,0-1.64-1.43c-.57-.36-.51-1.36-.7-2-.4-1.23-.69-2.51-1-3.78-.24-1.06-.51-2.16-.65-3.24a14.91,14.91,0,0,1-.23-3.71,6.48,6.48,0,0,1,1.14-3l.19-.27c1.74-2.5,4.28-3.71,7.2-4.45,2.26-.57,4.59-.87,6.89-1.29a44.75,44.75,0,0,0,7.28-2.06,2,2,0,0,1,1-.19,1.3,1.3,0,0,1,.94,1.3,4,4,0,0,1-.49,1.66,8.61,8.61,0,0,1,2.23-1.11,2.84,2.84,0,0,1,2.39.33,3.4,3.4,0,0,1,1.12,2.71,9.15,9.15,0,0,1-4.76,8A13.29,13.29,0,0,1,276.5,194.55Z"/><path class="cls-11" d="M276.39,219.79s-6.25-.83-8.49-1.86a7.24,7.24,0,0,1-3.21-2.84,10.41,10.41,0,0,0,2,3.47c1.73,2,9.86,2.91,9.86,2.91Z"/><path class="cls-19" d="M274.85,203.48a1.28,1.28,0,0,1-2.53.33v0a1.28,1.28,0,1,1,2.5-.51,2.08,2.08,0,0,1,0,.23Z"/><path class="cls-19" d="M272.69,199.43l-2.53,1.86a1.74,1.74,0,0,1,.38-2.32,1.49,1.49,0,0,1,2.08.35Z"/><path class="cls-25" d="M274.73,211.51l4.68,1.25a2.34,2.34,0,0,1-2.71,1.92l-.15,0A2.68,2.68,0,0,1,274.73,211.51Z"/><path class="cls-11" d="M277.87,214.59a2.25,2.25,0,0,0-2.39-1.86,2.55,2.55,0,0,0-.67.18,2.51,2.51,0,0,0,1.74,1.73A2.13,2.13,0,0,0,277.87,214.59Z"/><path class="cls-19" d="M285.22,198.92l-3.1-.73a1.46,1.46,0,0,1,1.63-1.27l.17,0A1.75,1.75,0,0,1,285.22,198.92Z"/><path class="cls-19" d="M285.13,202.1a1.31,1.31,0,0,1-1.09,1.5h0a1.37,1.37,0,1,1,1.09-1.6A.29.29,0,0,1,285.13,202.1Z"/><polygon class="cls-11" points="278.25 201.8 279.93 209.92 284.09 208.04 278.25 201.8"/><path class="cls-10" d="M253.65,226.8c-1-.25-7.23-.13-10.33,6.57-2.28,4.91-6.95,18.24-10.86,28.29-6.94-5.57-15-11.46-15.92-12.41-2.49-2.51-3.21-4.54-5.76-7.14a27.45,27.45,0,0,1-3.8-4.66c-.78-1.13-1.56.17-1.73.87a6.17,6.17,0,0,0,.06,3.56c.34,1,.92,2.22.27,3.07a2.59,2.59,0,0,1-2.47.61,50.44,50.44,0,0,1-9.82-2.06,4.66,4.66,0,0,0-1.64-.33,1.39,1.39,0,0,0-1.18,2.33,4.58,4.58,0,0,0,1.24,1.08,2.86,2.86,0,0,0-.43,2.73c.2.66.61,1.19.79,1.85a5.71,5.71,0,0,0,1,2.09,6.14,6.14,0,0,0,2.67,1.65,31,31,0,0,0,6.43,1.67c1.45.2,2.89.43,4.34.68a12.52,12.52,0,0,1,4,1,30.11,30.11,0,0,1,5.71,4.68c2.78,2.6,7.94,8.57,14.63,14.09,3.77,3.12,7.25,2.72,10.15-2.05,1.53-2.51,11-23.75,11-23.75S259.29,234.27,253.65,226.8Z"/><path class="cls-11" d="M232.46,261.66a11.29,11.29,0,0,1,5.21,8.46s1.49-6.77-4.34-10.76Z"/><path class="cls-13" d="M254,226.19c-6.27.48-9.85,3-12.58,10.18-4,10.68-7.28,19.1-7.28,19.1s2.23,5.93,13,8.57l4.73-12.25c2.45-5.29,4-8.68,4.52-13.19C257,233.11,256,228.38,254,226.19Z"/></g><g id="freepik--character--inject-89-2" data-name="freepik--character--inject-89"><g id="freepik--chair--inject-89-2" data-name="freepik--chair--inject-89"><path class="cls-19" d="M363.39,326.91a1.08,1.08,0,0,1-1.09-1.08v-69.7a1.09,1.09,0,0,1,2.17,0v69.7A1.08,1.08,0,0,1,363.39,326.91Z"/><path class="cls-19" d="M406.51,301.55a1.11,1.11,0,0,1-1-.69l-21.37-54.1a1.09,1.09,0,1,1,2-.8l21.37,54.1a1.08,1.08,0,0,1-.6,1.4h0A1.14,1.14,0,0,1,406.51,301.55Z"/><path class="cls-19" d="M404,295.05a1.07,1.07,0,0,1-.79-.34l-39.77-42.09-39.7,41.91a1.09,1.09,0,0,1-1.65-1.42l.08-.08,40.52-42.73a1.09,1.09,0,0,1,.78-.33h0a1.1,1.1,0,0,1,.79.33l40.52,42.93a1.07,1.07,0,0,1,0,1.52h0A1.08,1.08,0,0,1,404,295.05Z"/><path class="cls-19" d="M320.27,301.55a1.08,1.08,0,0,1-1-1.49L340.63,246a1.08,1.08,0,1,1,2.06.68.56.56,0,0,1,0,.12l-21.37,54.1A1.11,1.11,0,0,1,320.27,301.55Z"/><path class="cls-5" d="M405,293.37l2.82,7.46a.6.6,0,0,1,0,.19.28.28,0,0,1,0,.13.86.86,0,0,1-.42.48,1.91,1.91,0,0,1-1.74,0,.77.77,0,0,1-.34-.35h0v-.11l-2.6-7Z"/><path class="cls-5" d="M321.74,293.37l-2.83,7.46a.6.6,0,0,0,0,.19v.13a.88.88,0,0,0,.43.48,1.91,1.91,0,0,0,1.74,0,.8.8,0,0,0,.33-.35h0v-.11l2.61-7Z"/><path class="cls-5" d="M364.64,320.43v6.17a.62.62,0,0,1-.37.51,2,2,0,0,1-1.73,0,.62.62,0,0,1-.37-.51v-6.17A2.69,2.69,0,0,1,364.64,320.43Z"/><path class="cls-5" d="M404.2,249.3c0-1.64-1.44-3.37-4.47-5.34-5.59-3.63-18.09-10.91-25.91-15.25a.1.1,0,0,0-.07-.07c-6-3.65-11.64-21.06-15.81-34.28-1.42-4.51-3.16-7.06-5.21-8.26-.48-.29-2.29-1.28-2.69-1.52-4.09-2.45-9.46.49-16.15,4.15-6.16,3.37-11,7.69-11.94,19.11-.59,6.94,0,20.29,1.39,30.39h0c2.05,16.87,4.57,16.9,8.23,19.73,6.28,4.85,20.45,11.69,26.42,14,10.83,4.26,19.67-2.31,26.27-5.57a153.91,153.91,0,0,0,17.46-10.32c1.65-1.2,2.5-2.41,2.49-3.68C404.18,251.9,404.2,249.8,404.2,249.3Z"/><path class="cls-23" d="M404.2,249.3c0-1.64-1.44-3.37-4.47-5.34-5.59-3.63-18.09-10.91-25.91-15.25a.1.1,0,0,0-.07-.07c-6-3.65-11.64-21.06-15.81-34.28-1.42-4.51-3.16-7.06-5.21-8.26-.48-.29-2.29-1.28-2.69-1.52-4.09-2.45-9.46.49-16.15,4.15-6.16,3.37-11,7.69-11.94,19.11-.59,6.94,0,20.29,1.39,30.39h0c2.05,16.87,4.57,16.9,8.23,19.73,6.28,4.85,20.45,11.69,26.42,14,10.83,4.26,19.67-2.31,26.27-5.57a153.91,153.91,0,0,0,17.46-10.32c1.65-1.2,2.5-2.41,2.49-3.68C404.18,251.9,404.2,249.8,404.2,249.3Z"/><path class="cls-5" d="M352.48,186c-4.06-2.13-9.32.76-15.83,4.34-4.18,2.29-7.73,5-9.89,10.08L324,198.79c2.16-5.06,5.72-7.77,9.87-10,6.69-3.67,12.06-6.6,16.15-4.15Z"/><path class="cls-5" d="M399.73,244c-3.63-2.36-3.7-3-26.05-15.37h.1c-6-3.66-11.63-21.06-15.79-34.28-4.24-13.43-11.29-9.55-21.31-4.06-6.16,3.38-11,7.69-11.94,19.11s1.16,39.84,5.05,43.27c4.27,4.72,21.38,13.48,28.21,16.17,10.83,4.26,19.67-2.31,26.27-5.56A152.61,152.61,0,0,0,401.72,253C405.46,250.24,405.11,247.45,399.73,244Z"/><g class="cls-18"><path d="M336.64,190.29c10-5.47,17.06-9.37,21.3,4.07,4.17,13.22,9.79,30.63,15.81,34.28,0,0-10.33,0-25.3,8.08-15.56,8.41-17.93,16.62-18.66,16-3.93-3.26-6.07-31.86-5.09-43.32S330.51,193.67,336.64,190.29Z"/></g></g><g id="freepik--Legs--inject-89"><path class="cls-19" d="M384.35,293.42c-.78.6-1.68,1.31-1.73,2.21a9.18,9.18,0,0,0,1.62,5.44c1.55,2.32,2.17,6.36,2.11,9s-.87,9.39,2,12.53,10.75,5.73,11.52.87S394,298.44,394,298.44Z"/><path class="cls-26" d="M388.35,297.26a73.7,73.7,0,0,1,1.61,11c.21,4,.94,6.95,2.77,8.33s4.83,1.64,4.13-1.19S394,298.44,394,298.44Z"/><path class="cls-5" d="M373.73,227.17c11.23,7.6,11.41,7.34,21,14.6,7.05,5.34,13.74,10.52,14.76,14.09,1.07,3.78-.65,12.1-2.75,20s-6.14,22.15-6.14,22.15l-17.27-37.34L363,242.2Z"/><path class="cls-17" d="M373.73,227.17c11.23,7.6,11.41,7.34,21,14.6,7.05,5.34,13.74,10.52,14.76,14.09,1.07,3.78-.65,12.1-2.75,20s-6.14,22.15-6.14,22.15l-17.27-37.34L363,242.2Z"/><path class="cls-21" d="M396.69,266.82c-1.41-5.52-5.73-9.72-9.84-13.24-3.26-2.81-9.7-8-12.92-10.64a24.75,24.75,0,0,0,2.13-6.55,23.38,23.38,0,0,1-5.21,6.37L390.41,263l11.44,30.94S398.12,272.38,396.69,266.82Z"/><path class="cls-19" d="M398.58,323.62c-.71.33-.87,2-1,3.15s-1.22,2.6.22,4.69,4.3,2.71,6.24,5.56,4.83,8,11.21,9.35,11.25-.78,12.43-2.69.11-3.7-4-6c-4.34-2.46-5.57-3.19-5.57-3.19Z"/><path class="cls-25" d="M405.41,310.51s3.11,8.52,5,12.43a44.43,44.43,0,0,0,8.14,11.1c.72.75,2.34,2.14,2.92,2.75a1.22,1.22,0,0,1,.17,1.72l-.17.17c-1.32,1.4-7.18,2-10.59-.31s-6.88-6.84-8.95-8.73c-1-.95-2-1.86-2.71-2.53a2.67,2.67,0,0,1-.79-2.5c.06-.26.12-.56.18-.92.37-1.92-2.52-9.55-2.52-9.55Z"/><path class="cls-5" d="M342.51,226.4c.19,6.95-3.47,17.37-1.09,22.71,2.84,6.25,6.53,9,15.75,13.74,7.62,4,18.85,9.67,21.11,10.54s2.56,2.21,2.45,6.45,1.69,11.08,6.82,19.51a204,204,0,0,1,10.06,19.29s6.56,1,9.76-3c0,0-11.54-46-13.7-51.38S369.88,242,369.88,242s1.78-8.85,3.11-15.3Z"/><path class="cls-17" d="M342.51,226.4c.19,6.95-3.47,17.37-1.09,22.71,2.84,6.25,6.53,9,15.75,13.74,7.62,4,18.85,9.67,21.11,10.54s2.56,2.21,2.45,6.45,1.69,11.08,6.82,19.51a204,204,0,0,1,10.06,19.29s6.56,1,9.76-3c0,0-11.54-46-13.7-51.38S369.88,242,369.88,242s1.78-8.85,3.11-15.3Z"/></g><g id="freepik--Chest--inject-89"><path class="cls-25" d="M363.57,186c5.21-.28,7.1-.41,11.46,3.07,1.44,1.14,13.18,11.72,17.89,15.63,1.33-8,2.61-15.53,2.61-16.72.16-3.2-.57-5-.43-8.31a25,25,0,0,0-.24-5.46c-.15-1.23,1.17-.86,1.74-.46a5.61,5.61,0,0,1,2.11,2.44c.39.87.71,2.05,1.67,2.25.79.16,1.5-.48,2-1.08A45.28,45.28,0,0,0,407.8,170a4.55,4.55,0,0,1,.87-1.21,1.27,1.27,0,0,1,1.8-.07,1.25,1.25,0,0,1,.42.94,4.54,4.54,0,0,1-.19,1.47,2.6,2.6,0,0,1,1.93,1.6c.26.57.31,1.17.58,1.74a5.23,5.23,0,0,1,.61,2,5.57,5.57,0,0,1-.81,2.72,27.71,27.71,0,0,1-3.35,5c-.87,1-1.68,2.05-2.51,3.08a11.32,11.32,0,0,0-2.08,3,27.46,27.46,0,0,0-1.05,6.62c-.32,3.42.65,12.62-1.32,20.07-1.14,4.28-3.62,5.76-8.48,3.19-2.35-1.25-22.84-16-22.84-16S364.26,194.4,363.57,186Z"/><path class="cls-26" d="M392.92,204.64c-.81,2.21-.22,8.56.68,10.35a15.88,15.88,0,0,1-1.73-11.29Z"/><g id="freepik--chest--inject-89-2" data-name="freepik--chest--inject-89"><path class="cls-5" d="M349.8,188l-9.37,2.48s4,6.64,2.9,13c-1.14,6.95-1.85,7.54-4.13,9.27,1,4.08,3,13.46,3,13.46a50.09,50.09,0,0,0-2.46,14.92s6.55,3.83,21.93.4c13.51-3,14-13.17,14-13.17l-3-2.7-.44-12.48s6.83-5.82,3.37-13.36-12-13.89-12-13.89l-5.61.46Z"/><path class="cls-27" d="M349.8,188l-9.37,2.48s4,6.64,2.9,13c-1.14,6.95-1.85,7.54-4.13,9.27,1,4.08,3,13.46,3,13.46a50.09,50.09,0,0,0-2.46,14.92s6.55,3.83,21.93.4c13.51-3,14-13.17,14-13.17l-3-2.7-.44-12.48s6.83-5.82,3.37-13.36-12-13.89-12-13.89l-5.61.46Z"/><path class="cls-21" d="M364.47,212.73a10.1,10.1,0,0,1-9.32,4c-6.51-.73-7.62-5.08-7.62-5.08s1.14,6.34,7.7,6.68C363.51,218.72,364.47,212.73,364.47,212.73Z"/><path class="cls-19" d="M369.2,163.34c-.37-9.55-7.27-14.76-15.09-16h0c-6.08-1.15-8.41.7-14.53.28-2.52-.17-4.8-.2-6.44.71-1.87,1-2.9,3.17-2.55,5.87a6,6,0,0,0,2,3.69c-1.64,2.81.32,7.29,4.45,8.15l4.68,13.61s18.2,6.3,18.08,3.17C362.9,176.5,369.59,174.24,369.2,163.34Z"/><path class="cls-19" d="M364.17,147.09l-.7,4.77a2.39,2.39,0,0,0,2.81-1.89v0A2.53,2.53,0,0,0,364.17,147.09Z"/><path class="cls-19" d="M368.72,150.86l-4.86.72a2.36,2.36,0,0,0,2.6,2.1h.12A2.55,2.55,0,0,0,368.72,150.86Z"/><path class="cls-25" d="M360,188.21l-.53-13.84s1.85,1.74,4.35-.3c2.27-1.81,3.11-5.52,1.39-7.35-1.2-1.3-4.82-1.9-6.12,1,0,0-4.17,0-9.74-3.69s-7-7-10.35-7.25c-1.52,1.25-2.91,4.82-2.38,14.09.38,6.86,3.57,10,5.21,11.13,1.32.91,2.95,1,5.7.43l.25,6.49s5.91,8.88,12.48,8.23C370.15,196.2,360,188.21,360,188.21Z"/><path class="cls-19" d="M359.08,167.13l.15,3.8h0a2.71,2.71,0,0,1-2.82-2.56l-.14-3.67Z"/><path class="cls-19" d="M349,168.09a1.27,1.27,0,0,0,1.24,1.29h0a1.28,1.28,0,1,0-1.24-1.32Z"/><path class="cls-19" d="M337.91,165l2.52-1.89a1.54,1.54,0,0,0-2.15-.35l0,0A1.6,1.6,0,0,0,337.91,165Z"/><path class="cls-26" d="M349.83,174.5l-3.52,1.74a1.94,1.94,0,0,0,2.6.87h0A2,2,0,0,0,349.83,174.5Z"/><path class="cls-19" d="M339.34,167.65a1.26,1.26,0,1,0,2.51.21.74.74,0,0,0,0-.21,1.25,1.25,0,0,0-1.22-1.28h0A1.28,1.28,0,0,0,339.34,167.65Z"/><polygon class="cls-26" points="345.76 166.77 345.84 173.51 342.19 172.55 345.76 166.77"/><path class="cls-26" d="M347.53,182.47c2.9-.49,8.83-2.41,9.67-4.77a6,6,0,0,1-2,3.05c-1.74,1.57-7.62,3.47-7.62,3.47Z"/></g></g></g><g id="freepik--Table--inject-89"><polygon class="cls-13" points="481.68 351.55 483.65 350.42 483.65 272.56 481.68 271.47 481.68 351.55"/><polygon class="cls-4" points="481.68 351.55 479.71 350.38 479.71 272.53 481.68 273.7 481.68 351.55"/><polygon class="cls-13" points="407.98 308.95 409.94 307.86 409.94 230.01 407.98 231.1 407.98 308.95"/><polygon class="cls-4" points="407.98 308.95 406 307.86 406 230.01 407.98 231.1 407.98 308.95"/><polygon class="cls-4" points="406 234.25 481.68 277.79 481.68 271.47 406 227.78 406 234.25"/><polygon class="cls-4" points="407.86 252.49 481.57 295.09 481.58 292.89 407.86 250.3 407.86 252.49"/><polyline class="cls-13" points="479.71 291.82 407.98 250.36 407.98 248.13 479.71 289.54"/><polygon class="cls-13" points="483.65 277.25 336.34 362.03 336.34 355.43 483.65 270.49 483.65 277.25"/><polygon class="cls-13" points="336.34 435.52 338.31 434.38 338.31 356.53 336.34 355.44 336.34 435.52"/><polygon class="cls-4" points="336.34 435.52 334.37 434.35 334.37 356.49 336.34 357.67 336.34 435.52"/><polygon class="cls-13" points="262.63 392.93 264.6 391.83 264.6 313.97 262.63 315.07 262.63 392.93"/><polygon class="cls-4" points="262.63 392.93 260.67 391.83 260.67 313.98 262.63 315.07 262.63 392.93"/><polygon class="cls-4" points="260.67 318.21 336.34 361.77 336.34 355.44 260.67 311.75 260.67 318.21"/><polygon class="cls-4" points="262.52 336.46 336.24 379.06 336.24 376.86 262.52 334.26 262.52 336.46"/><polyline class="cls-13" points="334.37 375.78 262.63 334.33 262.63 332.1 334.37 373.52"/><polygon class="cls-5" points="336.34 355.44 260.67 311.75 407.98 226.8 483.65 270.49 336.34 355.44"/><polygon class="cls-14" points="336.34 355.44 260.67 311.75 407.98 226.8 483.65 270.49 336.34 355.44"/></g><g id="freepik--Arm--inject-89"><path class="cls-25" d="M346.8,253.19c-1-.6-2-1.16-3.08-1.68-5-2.46-8.3-4.17-11.75-6.08s-6.85-3.57-9.35-5.27c-3.24-2.21-2.6-3.9-1.63-9.3,1.67-9.55,5.26-21.87,6.95-28.33,2.32-9.08,4.79-11.15,12.54-12.28,2.23,2.39,5.08,17.26-1,23.45l-5.9,19.24c3.06,2.5,13.54,9.55,15.63,10.69s4.21,1,6.62,1.12c1.82.1,3.59.6,5.38.86a11.8,11.8,0,0,0,2.72.14,8.17,8.17,0,0,0,1.11-.05c.38,0,.7-.18,1,0a.79.79,0,0,1,.29.81A2.38,2.38,0,0,1,365,248a13.59,13.59,0,0,1-4.11,1.39,2.36,2.36,0,0,0,1.52,1.17,45.65,45.65,0,0,0,8.22,2.25,3,3,0,0,1,.87.25.94.94,0,0,1,.53.73,1.13,1.13,0,0,1-.68,1,7.47,7.47,0,0,0-1.1.54,6.22,6.22,0,0,0-.87,1,6.59,6.59,0,0,1-2.33,1.61,12.74,12.74,0,0,1-3.2,1.25,12,12,0,0,1-5.21-.42,28,28,0,0,1-4.69-1.56A67.12,67.12,0,0,1,346.8,253.19Z"/></g><g id="freepik--Laptop--inject-89"><path class="cls-21" d="M370.88,295.35,344.45,280.1a1.51,1.51,0,0,0-1.51,0l-45.86,26.47a.35.35,0,0,0-.13.47.3.3,0,0,0,.13.12l26.68,15.4Z"/><path class="cls-13" d="M368.91,292.14v.6a2.42,2.42,0,0,1-1.22,2.11L325,319.51a2.49,2.49,0,0,1-2.45,0l-23.29-13.4A2.45,2.45,0,0,1,298,304v-.82h0a.28.28,0,0,0,.15.27l25.57,14.76Z"/><path class="cls-4" d="M368.91,292.14l-25.32-14.62a1.45,1.45,0,0,0-1.45,0L298.2,302.89a.33.33,0,0,0-.12.44.34.34,0,0,0,.12.12l25.56,14.76Z"/><path id="freepik--arm--inject-89-2" data-name="freepik--arm--inject-89" class="cls-10" d="M303.76,259.68c3.72,1.79,8.42,4.15,11.13,5.36s4.68,1.86,7.72,3.06c2.33.92,5.21,1.62,7,3s10.78,8.93,12.72,10.2,1.16,2.9-2.15,4.18a10.19,10.19,0,0,1-8.19-.15,33.83,33.83,0,0,1-5.88-3.63,8.47,8.47,0,0,1-4.61-1.13c-1.89-1.29-3.1-2.93-4.19-3.7s-11.13-3.57-18.73-5.76Z"/><polygon class="cls-13" points="323.52 316.06 309.87 308.18 349.81 285.12 363.54 292.96 323.52 316.06"/><polygon class="cls-5" points="363.54 292.96 363.01 293.26 349.81 285.72 310.39 308.49 309.87 308.18 349.81 285.12 363.54 292.96"/><polygon class="cls-19" points="363.54 292.96 363.01 293.26 349.81 285.72 310.39 308.49 309.87 308.18 349.81 285.12 363.54 292.96"/><polygon class="cls-19" points="316.81 294.15 317.06 294.29 323.76 298.16 335.67 291.28 335.92 291.14 328.97 287.13 316.81 294.15"/><polygon class="cls-13" points="317.06 294.29 323.76 298.16 335.67 291.28 328.97 287.42 317.06 294.29"/><path class="cls-5" d="M323.76,318.21v1.63a2.48,2.48,0,0,0,1.22-.33l42.72-24.66a2.44,2.44,0,0,0,1.21-2.11v-.6Z"/><path class="cls-19" d="M323.76,318.21v1.63a2.48,2.48,0,0,0,1.22-.33l42.72-24.66a2.44,2.44,0,0,0,1.21-2.11v-.6Z"/><path class="cls-13" d="M324.43,318.57a2.94,2.94,0,0,0,2.49-.19l42.56-24.56a2.89,2.89,0,0,0,1.4-2L375.54,264a3.84,3.84,0,0,0,0-.48,3,3,0,0,0-.87-2.06L330.51,287a2.13,2.13,0,0,0-1,1.5Z"/><path class="cls-4" d="M323.76,318.21l.29.17a3.49,3.49,0,0,0,.39.19l5-30a2.11,2.11,0,0,1,1-1.5l44.19-25.52a2.83,2.83,0,0,0-.59-.44l-44.29,25.55a2.16,2.16,0,0,0-1,1.51Z"/><path class="cls-19" d="M329.89,287.6l-.69-.4a2.22,2.22,0,0,0-.4.93l-5,30.08.29.17a3.49,3.49,0,0,0,.39.19l5-30A2.11,2.11,0,0,1,329.89,287.6Z"/><path class="cls-5" d="M348.4,292.94c.31-1.86,2.23-4.34,4.29-5.52s3.47-.63,3.15,1.23a9.38,9.38,0,0,1-4.28,5.51C349.51,295.34,348.09,294.8,348.4,292.94Z"/></g><g id="freepik--Coffee--inject-89"><path id="freepik--shadow--inject-89-4" data-name="freepik--shadow--inject-89" class="cls-21" d="M330.27,339.19c-2.89,1.6-2.89,4.2,0,5.8a12,12,0,0,0,10.42,0c2.9-1.6,2.9-4.2,0-5.8A12,12,0,0,0,330.27,339.19Z"/><g id="freepik--coffee--inject-89-2" data-name="freepik--coffee--inject-89"><path class="cls-5" d="M340,329.7a15.21,15.21,0,0,0-9.2.24c-2.47,1-2.44,2.56.09,3.48a15.18,15.18,0,0,0,9.19-.24C342.67,332.16,342.6,330.61,340,329.7Z"/><g class="cls-28"><path d="M340,329.7a15.21,15.21,0,0,0-9.2.24c-2.47,1-2.44,2.56.09,3.48a15.18,15.18,0,0,0,9.19-.24C342.67,332.16,342.6,330.61,340,329.7Z"/></g><path class="cls-20" d="M342,326.55l-13.26.36,1.42,15.63h0c.07.56.62,1.11,1.65,1.52a11.74,11.74,0,0,0,8-.21c1-.46,1.57-1,1.63-1.61h0Z"/><path class="cls-29" d="M328.7,326.91l.29,3.16a5.17,5.17,0,0,0,1.13.56,16,16,0,0,0,10.56-.27l.34-.17a6.13,6.13,0,0,0,.82-.49l.12-3.15Z"/><path class="cls-5" d="M342.81,327l-.06-2.39-1.54.05q-.34-.17-.69-.3a16.13,16.13,0,0,0-10.56.27l-.64.33-1.51.05.07,2.38h0c0,.78.75,1.54,2.2,2.1a16.07,16.07,0,0,0,10.56-.28C342.11,328.56,342.84,327.76,342.81,327Z"/><g class="cls-30"><path d="M342.81,327l-.06-2.39-1.54.05q-.34-.17-.69-.3a16.13,16.13,0,0,0-10.56.27l-.64.33-1.51.05.07,2.38h0c0,.78.75,1.54,2.2,2.1a16.07,16.07,0,0,0,10.56-.28C342.11,328.56,342.84,327.76,342.81,327Z"/></g><path class="cls-5" d="M340.48,322.5a16.1,16.1,0,0,0-10.57.28c-2.83,1.26-2.79,3.19.11,4.34a16.07,16.07,0,0,0,10.56-.28C343.53,325.54,343.47,323.62,340.48,322.5Z"/><path class="cls-5" d="M341.36,324.06h0l-.53-2-3.79.1a15.85,15.85,0,0,0-3.77.09l-3.68.1-.43,2h0c-.22.73.37,1.46,1.74,2a13.72,13.72,0,0,0,8.68-.23C341.06,325.53,341.63,324.77,341.36,324.06Z"/><path class="cls-15" d="M341.36,324.06h0l-.53-2-3.79.1a15.85,15.85,0,0,0-3.77.09l-3.68.1-.43,2h0c-.22.73.37,1.46,1.74,2a13.72,13.72,0,0,0,8.68-.23C341.06,325.53,341.63,324.77,341.36,324.06Z"/><path class="cls-5" d="M339.19,320.89a13.32,13.32,0,0,0-8,.2c-2.14.87-2.11,2.2.08,3a13.32,13.32,0,0,0,8-.21C341.46,323,341.42,321.64,339.19,320.89Z"/><path class="cls-5" d="M340.1,322.35a.72.72,0,0,1-.24.28,4,4,0,0,1-.91.49,12,12,0,0,1-3.74.67,11.39,11.39,0,0,1-3.72-.47,3.42,3.42,0,0,1-.87-.45.58.58,0,0,1-.23-.28s.18-.4,1.1-.77a10.74,10.74,0,0,1,3.68-.66,11.47,11.47,0,0,1,3.78.46C339.85,321.94,340.06,322.28,340.1,322.35Z"/><g class="cls-6"><path d="M340.1,322.35a.72.72,0,0,1-.24.28,4,4,0,0,1-.91.49,12,12,0,0,1-3.74.67,11.39,11.39,0,0,1-3.72-.47,3.42,3.42,0,0,1-.87-.45.58.58,0,0,1-.23-.28s.18-.4,1.1-.77a10.74,10.74,0,0,1,3.68-.66,11.47,11.47,0,0,1,3.78.46C339.85,321.94,340.06,322.28,340.1,322.35Z"/></g><path class="cls-5" d="M339.86,322.63a4,4,0,0,1-.91.49,12,12,0,0,1-3.74.67,11.39,11.39,0,0,1-3.72-.47,3.42,3.42,0,0,1-.87-.45,3.28,3.28,0,0,1,.87-.5,12.65,12.65,0,0,1,7.46-.18A3.48,3.48,0,0,1,339.86,322.63Z"/><g class="cls-30"><path d="M339.86,322.63a4,4,0,0,1-.91.49,12,12,0,0,1-3.74.67,11.39,11.39,0,0,1-3.72-.47,3.42,3.42,0,0,1-.87-.45,3.28,3.28,0,0,1,.87-.5,12.65,12.65,0,0,1,7.46-.18A3.48,3.48,0,0,1,339.86,322.63Z"/></g><g class="cls-6"><path d="M337.61,322.75a1.21,1.21,0,0,1,.87-.19c.16.09,0,.32-.29.52a1.12,1.12,0,0,1-.87.19C337.16,323.16,337.29,322.93,337.61,322.75Z"/></g><path class="cls-5" d="M329.47,337.47c0,.58.62,1.15,1.81,1.57a14.29,14.29,0,0,0,8.68-.22c1.21-.49,1.8-1.08,1.79-1.67l.23-5.75c0,.63-.62,1.27-1.89,1.74a15.17,15.17,0,0,1-9.21.24c-1.27-.44-1.9-1.05-1.92-1.67Z"/><path class="cls-13" d="M333.53,337.7a9.06,9.06,0,0,1-.54-1,2.86,2.86,0,0,0-1.54-1.28.16.16,0,0,0-.22.09,2.25,2.25,0,0,0,2.86,2.76c.05,0,.06-.1,0-.11A2.06,2.06,0,0,1,333.53,337.7Z"/><path class="cls-13" d="M331.81,335.27a3,3,0,0,1,1,.55,2.88,2.88,0,0,1,.71.92,2.82,2.82,0,0,0,.87,1.12.18.18,0,0,0,.25,0h0a2,2,0,0,0-.53-2.4,2,2,0,0,0-2.33-.47.17.17,0,0,0-.05.25A.15.15,0,0,0,331.81,335.27Z"/></g></g><g id="freepik--device--inject-89"><path class="cls-21" d="M378,272.83l15.06,8.69a2.08,2.08,0,0,0,1.85,0l48.63-28.07a.56.56,0,0,0,.35-.72.55.55,0,0,0-.35-.35l-15.06-8.68a2,2,0,0,0-1.85,0L378,271.76a.58.58,0,0,0-.36.73A.54.54,0,0,0,378,272.83Z"/><path class="cls-19" d="M378.9,270.44v-.33a1.81,1.81,0,0,1,.87-1.43l43.52-25.18a1.8,1.8,0,0,1,1.66,0l13.48,7.81a1.84,1.84,0,0,1,.87,1.44v.33a1.83,1.83,0,0,1-.87,1.44L394.91,279.7a1.86,1.86,0,0,1-1.66,0l-13.48-7.81A1.84,1.84,0,0,1,378.9,270.44Z"/><path class="cls-4" d="M379.73,269.64l13.49,7.81a1.8,1.8,0,0,0,1.66,0l43.52-25.14a.52.52,0,0,0,.31-.65.5.5,0,0,0-.31-.31l-13.49-7.82a1.8,1.8,0,0,0-1.66,0l-43.52,25.19a.51.51,0,0,0,0,.92Z"/><path class="cls-21" d="M469.68,268.66,467,267.17a3.25,3.25,0,0,0-3,0l-13.28,7.67-1.74-1a3,3,0,0,0-2.7,0l-16.15,9.34a.87.87,0,0,0-.4,1.16.82.82,0,0,0,.4.4l1.74,1-19.2,11.08a.94.94,0,0,0-.52,1.22.93.93,0,0,0,.52.51l2.67,1.54a3.35,3.35,0,0,0,3.05,0L437.58,289a2.93,2.93,0,0,0,2.7,0l16.08-9.34c.72-.42.74-1.09.05-1.52l13.29-7.67a1,1,0,0,0,.49-1.27A.93.93,0,0,0,469.68,268.66Z"/><path class="cls-19" d="M461.65,257.9l3.47-42.42a4,4,0,0,0-1.73-3.48,4.5,4.5,0,0,0-4,.08l-46.47,26.83a5.11,5.11,0,0,0-2.27,3.59l-3.48,42.43a4,4,0,0,0,1.74,3.48,4.48,4.48,0,0,0,4-.08l46.46-26.83A5.11,5.11,0,0,0,461.65,257.9Z"/><path class="cls-4" d="M461.65,257.9l3.47-42.42a4,4,0,0,0-1.73-3.48,4.5,4.5,0,0,0-4,.08L412.9,238.91a4.67,4.67,0,0,0-1.51,1.52l7.22,4.17v40.47l40.75-23.54A5.08,5.08,0,0,0,461.65,257.9Z"/><path class="cls-13" d="M411.05,287.15l3.47-42.43a5.11,5.11,0,0,1,2.27-3.59l46.47-26.82c1.15-.67,2-.13,1.88,1.19l-3.47,42.42a5.16,5.16,0,0,1-2.28,3.59l-46.46,26.83C411.78,289,410.94,288.45,411.05,287.15Z"/><path class="cls-5" d="M435,253.08a8.08,8.08,0,0,1,3.4-5.71c1.74-1,2.93,0,2.76,2.15a8.06,8.06,0,0,1-3.41,5.72C436.08,256.22,434.85,255.26,435,253.08Z"/><polygon class="cls-4" points="436.12 265.91 447.54 259.28 445.6 258.16 434.19 264.79 436.12 265.91"/><path class="cls-13" d="M452.85,278.76l-13.9,8a1.7,1.7,0,0,1-.86.2,1.78,1.78,0,0,1-.76-.19h0l-6.12-3.54h0a1.76,1.76,0,0,1-.79-1.41v-.33c0-.52.36-.75.82-.48l3.7,2.13.83.48-.19-.94-1.3-17.88,1.94,1.12,11.43-6.63,6,18.06A1.47,1.47,0,0,1,452.85,278.76Z"/><polygon points="430.57 280.94 435.32 278.2 436.29 284.58 430.57 280.94"/><path class="cls-19" d="M436.12,265.92l-1.93-1.13,1.3,17.88c.1.52-.19.73-.64.46l-3.7-2.12c-.46-.27-.83-.05-.83.47v.33a1.83,1.83,0,0,0,.79,1.42h0l6.12,3.53h0a1.71,1.71,0,0,0,.76.19Z"/></g><g id="freepik--pot--inject-89-3" data-name="freepik--pot--inject-89"><path class="cls-7" d="M377.92,310.77c-3.65,2.1-3.65,5.51,0,7.62a14.57,14.57,0,0,0,13.18,0c3.65-2.11,3.65-5.52,0-7.62A14.57,14.57,0,0,0,377.92,310.77Z"/><path class="cls-13" d="M390.31,315.05c3.17-3.24,5-11.29,1.94-13.9H376.54c-3.1,2.57-1.24,10.64,1.93,13.9l.09.09.11.11a3.47,3.47,0,0,0,.29.25l.07.06.24.19.41.26a10.49,10.49,0,0,0,9.45,0h0l.42-.26.21-.18.1-.07.28-.25.12-.12Z"/><path class="cls-4" d="M377.87,300.17c-3.58,2.08-3.58,5.44,0,7.51a14.38,14.38,0,0,0,13,0c3.59-2.07,3.59-5.43,0-7.51A14.38,14.38,0,0,0,377.87,300.17Z"/><path class="cls-19" d="M379.54,301.09c-2.67,1.54-2.67,4,0,5.59a10.74,10.74,0,0,0,9.69,0c2.66-1.55,2.66-4.05,0-5.59A10.74,10.74,0,0,0,379.54,301.09Z"/><path class="cls-3" d="M389.23,303.74a10.74,10.74,0,0,0-9.69,0,4.45,4.45,0,0,0-1.61,1.47,4.45,4.45,0,0,0,1.61,1.47,10.74,10.74,0,0,0,9.69,0,4.48,4.48,0,0,0,1.59-1.47A4.48,4.48,0,0,0,389.23,303.74Z"/><path class="cls-5" d="M389.42,291.84v11.89a2.48,2.48,0,0,1-1.47,2.06h-.07a6.45,6.45,0,0,1-2.26.73,8.59,8.59,0,0,1-2.48,0,6.45,6.45,0,0,1-2.26-.73h-.07a2.51,2.51,0,0,1-1.48-2.06V291.84a5,5,0,0,1,10.09,0Z"/><path class="cls-21" d="M384.35,286.78h0a4.87,4.87,0,0,0-3.47,5v14h-.07a2.51,2.51,0,0,1-1.48-2.07V291.84A5.06,5.06,0,0,1,384.35,286.78Z"/><path class="cls-21" d="M389.42,291.84v11.89a2.48,2.48,0,0,1-1.47,2.06h-.07v-14a4.87,4.87,0,0,0-3.47-5h0A5,5,0,0,1,389.42,291.84Z"/><g class="cls-18"><path d="M385.62,290.83v15.73a8.59,8.59,0,0,1-2.48,0V290.83a7.27,7.27,0,0,1,1.23-4v0A7.19,7.19,0,0,1,385.62,290.83Z"/></g><path class="cls-20" d="M385.62,306.72a.15.15,0,0,1-.17-.15h0V305.2a.17.17,0,0,1,.34,0h0v1.36a.16.16,0,0,1-.15.16Zm-2.48-.87a.17.17,0,0,1-.17-.17v-1.35a.17.17,0,0,1,.13-.2.16.16,0,0,1,.21.13.09.09,0,0,1,0,.07v1.35a.17.17,0,0,1-.17.17Zm2.48-1.82a.18.18,0,0,1-.17-.17h0v-1.35a.17.17,0,0,1,.17-.17h0a.17.17,0,0,1,.17.16h0v1.35a.17.17,0,0,1-.16.17Zm-2.48-.87A.17.17,0,0,1,383,303v-1.35a.18.18,0,0,1,.13-.21.18.18,0,0,1,.21.13.11.11,0,0,1,0,.08V303a.17.17,0,0,1-.17.16Zm2.48-1.82a.18.18,0,0,1-.17-.18h0v-1.34a.18.18,0,0,1,.17-.18h0a.18.18,0,0,1,.17.17h0v1.34a.18.18,0,0,1-.17.17h0Zm-2.48-.87a.18.18,0,0,1-.17-.18V299a.18.18,0,0,1,.17-.17h0a.17.17,0,0,1,.17.16h0v1.34a.17.17,0,0,1-.17.16Zm2.48-1.83a.17.17,0,0,1-.17-.17h0v-1.35a.18.18,0,0,1,.17-.17h0a.17.17,0,0,1,.17.17h0v1.32a.18.18,0,0,1-.14.19h0Zm-2.48-.86a.19.19,0,0,1-.17-.17v-1.35a.18.18,0,0,1,.17-.17h0a.17.17,0,0,1,.17.16h0v1.31a.17.17,0,0,1-.16.18h0Zm2.48-1.83a.18.18,0,0,1-.17-.17h0v-1.35a.18.18,0,0,1,.17-.17h0a.17.17,0,0,1,.17.16h0v1.35a.17.17,0,0,1-.17.15Zm-2.48-.87a.17.17,0,0,1-.17-.16v-1.36a.17.17,0,0,1,.17-.16h0a.15.15,0,0,1,.17.16h0v1.36a.17.17,0,0,1-.17.13Zm2.48-1.82a.18.18,0,0,1-.17-.17h0v-1.35a.17.17,0,0,1,.16-.17h0a.16.16,0,0,1,.17.14v1.37a.18.18,0,0,1-.17.14Zm-2.48-.87a.17.17,0,0,1-.17-.16v-1.36a.17.17,0,0,1,.17-.16.17.17,0,0,1,.17.16v1.36a.17.17,0,0,1-.17.13Zm2.46-1.82a.17.17,0,0,1-.17-.16,6.23,6.23,0,0,0-.23-1.29.2.2,0,0,1,.13-.21.15.15,0,0,1,.2.11h0a6.92,6.92,0,0,1,.24,1.36.17.17,0,0,1-.15.18h0Zm-2.33-.87h0a.17.17,0,0,1-.14-.2,8.65,8.65,0,0,1,.38-1.32.17.17,0,0,1,.22-.1.16.16,0,0,1,.09.22,9.07,9.07,0,0,0-.36,1.26.16.16,0,0,1-.19.1Zm1.65-1.74a.17.17,0,0,1-.16-.09,5.22,5.22,0,0,0-.39-.74.18.18,0,0,1-.22,0,.19.19,0,0,1,0-.24l.13-.2a.35.35,0,0,1,.14-.06h.13a9.35,9.35,0,0,1,.54,1,.17.17,0,0,1-.07.23h0Z"/><path class="cls-20" d="M383.75,287.15a.15.15,0,0,1-.15-.1.16.16,0,0,1,.07-.22h0a4.54,4.54,0,0,1,.65-.23.17.17,0,0,1,.2.13.18.18,0,0,1,0,.16h-.08a3.19,3.19,0,0,0-.59.21Z"/><path class="cls-20" d="M380.88,304a.18.18,0,0,1-.17-.17v-1.28a.18.18,0,0,1,.13-.21.18.18,0,0,1,.21.13.11.11,0,0,1,0,.08v1.28a.17.17,0,0,1-.17.17Zm0-2.61a.17.17,0,0,1-.17-.16V300a.17.17,0,0,1,.13-.2.16.16,0,0,1,.21.13.09.09,0,0,1,0,.07v1.29a.18.18,0,0,1-.14.2h0Zm0-2.6a.18.18,0,0,1-.17-.17h0v-1.28a.18.18,0,0,1,.17-.17h0a.17.17,0,0,1,.17.16h0v1.28a.16.16,0,0,1-.07.22.18.18,0,0,1-.1,0Zm0-2.56a.18.18,0,0,1-.17-.18V294.8a.19.19,0,0,1,.17-.17.17.17,0,0,1,.17.17v1.28a.17.17,0,0,1-.09.23l-.08,0Zm0-2.61a.18.18,0,0,1-.17-.17V292.2a.18.18,0,0,1,.13-.21.18.18,0,0,1,.21.13.11.11,0,0,1,0,.08v1.28a.17.17,0,0,1,0,.24.21.21,0,0,1-.15,0Zm0-2.6h0a.18.18,0,0,1-.15-.19h0a6.25,6.25,0,0,1,.29-1.28.18.18,0,0,1,.24-.06.16.16,0,0,1,.08.17,6.23,6.23,0,0,0-.27,1.21.16.16,0,0,1,0,.24.17.17,0,0,1-.21,0Zm.87-2.39h-.09a.18.18,0,0,1-.05-.24,4.72,4.72,0,0,1,.87-1,.16.16,0,0,1,.23,0h0a.17.17,0,0,1,0,.23h0a4.22,4.22,0,0,0-.87.87.2.2,0,0,1-.1.24Z"/><path class="cls-20" d="M380.88,306a.18.18,0,0,1-.17-.17v-.67a.17.17,0,1,1,.34-.08.11.11,0,0,1,0,.08v.67a.17.17,0,0,1-.17.17Z"/><path class="cls-20" d="M385,287.15h-.07a2.39,2.39,0,0,0-.58-.22l-.09-.05a.16.16,0,0,1,0-.23.15.15,0,0,1,.23,0h0a2.87,2.87,0,0,1,.62.22.17.17,0,0,1,.1.22h0A.17.17,0,0,1,385,287.15Z"/><path class="cls-20" d="M387.88,304a.17.17,0,0,1-.17-.17h0v-1.28a.16.16,0,0,1,.17-.17h0a.15.15,0,0,1,.16.16h0v1.28a.16.16,0,0,1-.15.17Zm0-2.61a.17.17,0,0,1-.17-.16V300a.17.17,0,0,1,.17-.17h0a.16.16,0,0,1,.16.16h0v1.29a.15.15,0,0,1-.12.19h0Zm0-2.6a.17.17,0,0,1-.17-.16h0v-1.28a.17.17,0,0,1,.17-.18h0a.17.17,0,0,1,.16.17h0v1.28a.15.15,0,0,1-.05.22.14.14,0,0,1-.11,0Zm0-2.61a.15.15,0,0,1-.17-.15h0v-1.29a.16.16,0,0,1,.16-.16h0a.14.14,0,0,1,.16.14v1.31a.15.15,0,0,1,.06.21.17.17,0,0,1-.22.06Zm0-2.56a.17.17,0,0,1-.17-.17h0v-1.29a.17.17,0,0,1,.17-.16.16.16,0,0,1,.16.16h0v1.29a.15.15,0,0,1,0,.23.16.16,0,0,1-.17.05Zm0-2.6a.17.17,0,0,1-.17-.15,5.68,5.68,0,0,0-.28-1.22.18.18,0,0,1,.11-.22.17.17,0,0,1,.21.11,5.78,5.78,0,0,1,.29,1.28.16.16,0,0,1-.14.19h0Zm-.87-2.39a.17.17,0,0,1-.14-.07,4.42,4.42,0,0,0-.87-.91.16.16,0,0,1,0-.24h0a.17.17,0,0,1,.23,0,5,5,0,0,1,.87,1,.16.16,0,0,1,0,.23h0a.13.13,0,0,1-.06.15Z"/><path class="cls-20" d="M387.88,306a.17.17,0,0,1-.17-.17h0v-.67a.17.17,0,0,1,.17-.18h0a.17.17,0,0,1,.16.17h0v.67a.15.15,0,0,1-.15.17Z"/></g></g></g><g id="freepik--Programs--inject-89"><g id="freepik--text-box--inject-89"><g id="freepik----inject-89-2" data-name="freepik----inject-89"><g id="freepik--speech-bubble--inject-89"><g id="freepik--speach-bubble--inject-89-2" data-name="freepik--speach-bubble--inject-89"><path class="cls-5" d="M498.19,152.75l-32.67,18.82a1.83,1.83,0,0,0-.81,1.4V191.2a1.73,1.73,0,0,0,.82,1.4l3.22,1.84a1.87,1.87,0,0,0,1.63,0l32.67-18.82a1.84,1.84,0,0,0,.81-1.41V156a1.73,1.73,0,0,0-.82-1.39l-3.18-1.87A1.79,1.79,0,0,0,498.19,152.75Z"/><path class="cls-7" d="M470.19,194.51a1.81,1.81,0,0,1-1.44-.07l-3.22-1.84a1.75,1.75,0,0,1-.82-1.39V173a1.76,1.76,0,0,1,.26-.86l4.83,2.78a1.76,1.76,0,0,0-.23.8v18.24C469.57,194.4,469.84,194.62,470.19,194.51Z"/><g class="cls-6"><path class="cls-1" d="M503.85,155.82c-.07-.41-.4-.55-.81-.32l-32.66,18.82a1.7,1.7,0,0,0-.58.61L465,172.14a1.58,1.58,0,0,1,.55-.57l32.67-18.82a1.8,1.8,0,0,1,1.63,0l3.22,1.83A1.82,1.82,0,0,1,503.85,155.82Z"/></g><path class="cls-5" d="M503.05,155.5l-32.67,18.82a1.78,1.78,0,0,0-.81,1.4V194c0,.52.36.73.81.47l32.67-18.82a1.84,1.84,0,0,0,.81-1.41V156C503.86,155.45,503.49,155.24,503.05,155.5Z"/></g></g></g><path class="cls-20" d="M479.93,173.37a3.46,3.46,0,0,1,1.22-.46,1.27,1.27,0,0,1,.92.19,1.68,1.68,0,0,1,.58.87,5,5,0,0,1,.21,1.54,7.75,7.75,0,0,1-.21,1.79,6.81,6.81,0,0,1-.58,1.52,5.68,5.68,0,0,1-.92,1.25,5.59,5.59,0,0,1-1.22.94l-1.35.78v3.31a.86.86,0,0,1-.08.36.55.55,0,0,1-.2.25l-1.38.8a.18.18,0,0,1-.2,0,.32.32,0,0,1-.09-.26V175.68a.73.73,0,0,1,.09-.35.4.4,0,0,1,.2-.24Zm-1.35,5.87,1.3-.75a2,2,0,0,0,1-1.88c0-.45-.09-.72-.28-.81a.81.81,0,0,0-.74.13l-1.3.74Z"/><path class="cls-20" d="M489.83,167.63a.15.15,0,0,1,.2,0,.37.37,0,0,1,.08.26v10.5a.85.85,0,0,1-.08.35.52.52,0,0,1-.2.24l-1.39.8a.15.15,0,0,1-.2,0,.38.38,0,0,1-.08-.26v-4l-2.34,1.34v4a.74.74,0,0,1-.09.36.55.55,0,0,1-.2.25l-1.38.8a.18.18,0,0,1-.2,0,.46.46,0,0,1-.09-.27v-10.5a1.06,1.06,0,0,1,.09-.36.52.52,0,0,1,.2-.24l1.38-.8a.15.15,0,0,1,.2,0,.3.3,0,0,1,.09.25v3.92l2.34-1.36V169a.85.85,0,0,1,.08-.35.63.63,0,0,1,.2-.26Z"/><path class="cls-20" d="M494.88,164.69a3.64,3.64,0,0,1,1.22-.47,1.29,1.29,0,0,1,.92.19,1.57,1.57,0,0,1,.58.87,4.48,4.48,0,0,1,.21,1.54,6.79,6.79,0,0,1-.21,1.79,6.18,6.18,0,0,1-.58,1.53,5.67,5.67,0,0,1-2.14,2.18l-1.34.79v3.3a.74.74,0,0,1-.09.36.55.55,0,0,1-.2.25l-1.38.79a.15.15,0,0,1-.2,0,.39.39,0,0,1-.09-.26v-10.5a1.06,1.06,0,0,1,.09-.35.63.63,0,0,1,.2-.26Zm-1.34,5.86,1.29-.75a2,2,0,0,0,.74-.72,2.21,2.21,0,0,0,.29-1.15c0-.45-.1-.73-.29-.82a.89.89,0,0,0-.74.12l-1.29.75Z"/></g><g id="freepik--text-box--inject-89-2" data-name="freepik--text-box--inject-89"><g id="freepik----inject-89-3" data-name="freepik----inject-89"><g id="freepik--speech-bubble--inject-89-2" data-name="freepik--speech-bubble--inject-89"><g id="freepik--speach-bubble--inject-89-3" data-name="freepik--speach-bubble--inject-89"><path class="cls-5" d="M498.19,114.85l-32.67,18.82a1.8,1.8,0,0,0-.81,1.4v18.24a1.75,1.75,0,0,0,.82,1.39l3.22,1.83a1.8,1.8,0,0,0,1.63,0l32.67-18.81a1.83,1.83,0,0,0,.81-1.4V118.08a1.75,1.75,0,0,0-.82-1.39l-3.18-1.85A1.85,1.85,0,0,0,498.19,114.85Z"/><path class="cls-7" d="M470.19,156.61a1.77,1.77,0,0,1-1.44-.08l-3.22-1.83a1.75,1.75,0,0,1-.82-1.39V135.07a1.76,1.76,0,0,1,.26-.86L469.8,137a1.76,1.76,0,0,0-.23.8V156C469.57,156.5,469.84,156.72,470.19,156.61Z"/><g class="cls-6"><path class="cls-1" d="M503.85,117.92c-.07-.41-.4-.55-.81-.32l-32.66,18.82a1.7,1.7,0,0,0-.58.61L465,134.25a1.53,1.53,0,0,1,.55-.58l32.67-18.82a1.8,1.8,0,0,1,1.63,0l3.22,1.83A1.82,1.82,0,0,1,503.85,117.92Z"/></g><path class="cls-5" d="M503.05,117.6l-32.67,18.82a1.81,1.81,0,0,0-.81,1.41v18.24c0,.51.36.72.81.46l32.67-18.82a1.83,1.83,0,0,0,.81-1.4V118.07C503.86,117.56,503.49,117.35,503.05,117.6Z"/></g></g></g><path class="cls-20" d="M477.79,136.73a.18.18,0,0,1,.2,0,.3.3,0,0,1,.09.25v10.38a.74.74,0,0,1-.09.36.52.52,0,0,1-.2.24l-1.36.79a.15.15,0,0,1-.2,0,.39.39,0,0,1-.09-.26v-3.93l-2.33,1.34v3.93a.77.77,0,0,1-.09.36.52.52,0,0,1-.2.24l-1.36.79a.15.15,0,0,1-.2,0,.35.35,0,0,1-.08-.26V140.54a.86.86,0,0,1,.08-.36.52.52,0,0,1,.2-.24l1.36-.79a.15.15,0,0,1,.2,0,.31.31,0,0,1,.09.26v3.86l2.31-1.33v-3.87a.94.94,0,0,1,.08-.36.78.78,0,0,1,.2-.24Z"/><path class="cls-20" d="M485.42,132.33a.15.15,0,0,1,.2,0,.36.36,0,0,1,.09.26v1.74a.67.67,0,0,1-.09.34.5.5,0,0,1-.2.25L483.59,136v8.24a.77.77,0,0,1-.09.36.58.58,0,0,1-.2.24l-1.36.78a.15.15,0,0,1-.2,0,.35.35,0,0,1-.08-.26v-8.23l-1.84,1.06a.17.17,0,0,1-.19,0,.32.32,0,0,1-.09-.26v-1.74a.73.73,0,0,1,.09-.35.45.45,0,0,1,.19-.24Z"/><path class="cls-20" d="M490.21,138a1.33,1.33,0,0,1-.14-.19l-1-2.08V141a.85.85,0,0,1-.08.35.52.52,0,0,1-.2.24l-1.37.79a.15.15,0,0,1-.2,0,.38.38,0,0,1-.08-.26V131.72a1.05,1.05,0,0,1,.08-.35.58.58,0,0,1,.2-.24l1.22-.7c.14-.08.24-.08.31,0a1.09,1.09,0,0,1,.13.17l1.69,3.48,1.69-5.42a1.27,1.27,0,0,1,.14-.34.73.73,0,0,1,.31-.36l1.21-.69a.15.15,0,0,1,.2,0,.34.34,0,0,1,.08.26v10.41a.66.66,0,0,1-.08.36.52.52,0,0,1-.2.24l-1.37.79a.15.15,0,0,1-.2,0,.37.37,0,0,1-.07-.25v-5.32l-1,3.22c0,.1-.09.21-.14.34a.64.64,0,0,1-.26.28l-.66.38A.23.23,0,0,1,490.21,138Z"/><path class="cls-20" d="M501.52,131.69a.14.14,0,0,1,.19,0,.35.35,0,0,1,.09.26v1.73a.74.74,0,0,1-.09.36.5.5,0,0,1-.19.24l-4.84,2.79a.14.14,0,0,1-.19,0,.38.38,0,0,1-.09-.25V126.4a1.06,1.06,0,0,1,.09-.36.57.57,0,0,1,.19-.24l1.37-.78a.15.15,0,0,1,.2,0,.34.34,0,0,1,.08.26v8.23Z"/></g><g id="freepik--text-box--inject-89-3" data-name="freepik--text-box--inject-89"><g id="freepik----inject-89-4" data-name="freepik----inject-89"><g id="freepik--speech-bubble--inject-89-3" data-name="freepik--speech-bubble--inject-89"><g id="freepik--speach-bubble--inject-89-4" data-name="freepik--speach-bubble--inject-89"><path class="cls-5" d="M498.19,77,465.52,95.78a1.83,1.83,0,0,0-.81,1.39v18.24a1.75,1.75,0,0,0,.82,1.4l3.22,1.83a1.8,1.8,0,0,0,1.63,0l32.67-18.83a1.8,1.8,0,0,0,.81-1.4V80.17a1.75,1.75,0,0,0-.82-1.4L499.86,77A1.82,1.82,0,0,0,498.19,77Z"/><path class="cls-7" d="M470.19,118.72a1.77,1.77,0,0,1-1.44-.08l-3.22-1.83a1.75,1.75,0,0,1-.82-1.39V97.18a1.83,1.83,0,0,1,.26-.87l4.83,2.79a1.76,1.76,0,0,0-.23.8v18.24C469.57,118.61,469.84,118.82,470.19,118.72Z"/><g class="cls-6"><path class="cls-1" d="M503.85,80c-.07-.41-.4-.56-.81-.32L470.38,98.53a1.7,1.7,0,0,0-.58.61L465,96.35a1.51,1.51,0,0,1,.55-.57L498.19,77a1.82,1.82,0,0,1,1.67,0l3.22,1.84A1.79,1.79,0,0,1,503.85,80Z"/></g><path class="cls-5" d="M503.05,79.71,470.38,98.53a1.78,1.78,0,0,0-.81,1.4v18.23c0,.53.36.73.81.47l32.67-18.82a1.8,1.8,0,0,0,.81-1.4V80.17C503.86,79.66,503.49,79.45,503.05,79.71Z"/></g></g></g><path class="cls-20" d="M477.64,103.2v2.7a4.62,4.62,0,0,0,.09.65,1,1,0,0,0,.24.46.58.58,0,0,0,.39.19,1.19,1.19,0,0,0,.6-.2,2.56,2.56,0,0,0,.58-.46,2.8,2.8,0,0,0,.37-.53,2.58,2.58,0,0,0,.23-.54,3.89,3.89,0,0,0,.12-.49,2,2,0,0,1,.11-.42.6.6,0,0,1,.25-.25l1.36-.79a.12.12,0,0,1,.16,0,.33.33,0,0,1,.07.21,5.7,5.7,0,0,1-.27,1.74,7.65,7.65,0,0,1-.68,1.65,8,8,0,0,1-1,1.44,5.82,5.82,0,0,1-1.27,1,2.83,2.83,0,0,1-1.35.43,1.56,1.56,0,0,1-1-.36,2.33,2.33,0,0,1-.64-1,5.69,5.69,0,0,1-.25-1.53v-2.86a8.73,8.73,0,0,1,.87-3.58,7,7,0,0,1,1-1.53A5.6,5.6,0,0,1,478.93,98a2.77,2.77,0,0,1,1.28-.42,1.66,1.66,0,0,1,1,.25,1.74,1.74,0,0,1,.69.87,3.47,3.47,0,0,1,.26,1.39.67.67,0,0,1-.06.28.47.47,0,0,1-.17.2l-1.36.79c-.12.06-.2.08-.24,0a.7.7,0,0,1-.12-.28,2.17,2.17,0,0,0-.12-.36.76.76,0,0,0-.22-.28.73.73,0,0,0-.38-.09,1.2,1.2,0,0,0-.58.21,2,2,0,0,0-.6.49,3.22,3.22,0,0,0-.39.64,2.63,2.63,0,0,0-.23.72A6.34,6.34,0,0,0,477.64,103.2Z"/><path class="cls-20" d="M486.51,93.64a2.89,2.89,0,0,1,1.24-.41,1.78,1.78,0,0,1,1,.21,1.6,1.6,0,0,1,.63.66,2.06,2.06,0,0,1,.25.94.89.89,0,0,1-.07.28.43.43,0,0,1-.16.19l-1.36.8a.39.39,0,0,1-.24.06.42.42,0,0,1-.18-.08l-.09-.11a.82.82,0,0,0-.2-.12.86.86,0,0,0-.32,0,1.3,1.3,0,0,0-.46.18,2.26,2.26,0,0,0-.37.26,2,2,0,0,0-.33.32,1.6,1.6,0,0,0-.23.38,1,1,0,0,0-.08.45.52.52,0,0,0,.09.34.43.43,0,0,0,.34.1,2.57,2.57,0,0,0,.62-.08l1-.25a2.84,2.84,0,0,1,1-.13,1.15,1.15,0,0,1,.71.26,1.51,1.51,0,0,1,.43.73,4.17,4.17,0,0,1,.15,1.22,5.81,5.81,0,0,1-.25,1.6,6.24,6.24,0,0,1-.67,1.49,7.06,7.06,0,0,1-1,1.29,6.25,6.25,0,0,1-1.3,1,3.13,3.13,0,0,1-1.29.46,1.74,1.74,0,0,1-1-.18,1.65,1.65,0,0,1-.67-.69,2.43,2.43,0,0,1-.25-1.06.73.73,0,0,1,.07-.29.48.48,0,0,1,.16-.19l1.36-.79a.62.62,0,0,1,.24-.08.48.48,0,0,1,.16.08l.12.13a1,1,0,0,0,.23.18.7.7,0,0,0,.35.06,1.47,1.47,0,0,0,.52-.19,4.13,4.13,0,0,0,.93-.72,1.32,1.32,0,0,0,.37-.87.35.35,0,0,0-.13-.33.73.73,0,0,0-.41-.06,3.25,3.25,0,0,0-.69.14l-1,.25a1.49,1.49,0,0,1-1.57-.28,2.85,2.85,0,0,1-.5-1.92,4.9,4.9,0,0,1,.21-1.43,6.79,6.79,0,0,1,.59-1.45,6.63,6.63,0,0,1,.93-1.31A5.43,5.43,0,0,1,486.51,93.64Z"/><path class="cls-20" d="M494.07,89.28a2.81,2.81,0,0,1,1.22-.41,1.82,1.82,0,0,1,1,.21,1.69,1.69,0,0,1,.64.66,2,2,0,0,1,.23.94.45.45,0,0,1-.07.28.48.48,0,0,1-.14.2l-1.37.79a.46.46,0,0,1-.23.06.37.37,0,0,1-.18-.08l-.11-.11a.62.62,0,0,0-.19-.12.81.81,0,0,0-.31,0,1.08,1.08,0,0,0-.46.18,2.33,2.33,0,0,0-.38.26,1.57,1.57,0,0,0-.32.31,1.52,1.52,0,0,0-.24.38,1.79,1.79,0,0,0-.09.46.47.47,0,0,0,.11.34.4.4,0,0,0,.33.1,2.16,2.16,0,0,0,.62-.09l1-.24a3.06,3.06,0,0,1,1-.13,1.2,1.2,0,0,1,.72.26,1.5,1.5,0,0,1,.42.73,4.2,4.2,0,0,1,.14,1.22,5.78,5.78,0,0,1-.23,1.6,7.42,7.42,0,0,1-.68,1.49,7.06,7.06,0,0,1-1,1.29,6.46,6.46,0,0,1-1.29,1,3.13,3.13,0,0,1-1.29.46,1.76,1.76,0,0,1-1-.18,1.55,1.55,0,0,1-.64-.7,2.31,2.31,0,0,1-.26-1.06.89.89,0,0,1,.07-.28.5.5,0,0,1,.15-.2l1.37-.79a.48.48,0,0,1,.23-.07.29.29,0,0,1,.16.07l.14.13a.55.55,0,0,0,.22.18,1,1,0,0,0,.35.06,1.4,1.4,0,0,0,.53-.19,4.31,4.31,0,0,0,.92-.72,1.23,1.23,0,0,0,.37-.87.33.33,0,0,0-.14-.32.71.71,0,0,0-.41-.06,3.16,3.16,0,0,0-.68.14l-1,.25a1.53,1.53,0,0,1-1.57-.28,2.85,2.85,0,0,1-.5-1.92,5.75,5.75,0,0,1,.21-1.43,6.76,6.76,0,0,1,.58-1.45,7.12,7.12,0,0,1,.94-1.31A5.37,5.37,0,0,1,494.07,89.28Z"/></g></g><g id="freepik--speech-bubble--inject-89-4" data-name="freepik--speech-bubble--inject-89"><g id="freepik--code-bubble--inject-89"><path class="cls-4" d="M438.1,62.8v79.74a3.64,3.64,0,0,1-1.66,2.88l-45.81,26.43a.94.94,0,0,1-.54.15h-.35l-.15-.08a1.29,1.29,0,0,1-.43-.55,1.86,1.86,0,0,1-.18-.87V91.12a3.68,3.68,0,0,1,1.65-2.87l45.83-26.41a1.27,1.27,0,0,1,1.12-.14l.14.08h0a.38.38,0,0,1,.11.11l.05.06.06.08a1,1,0,0,1,.09.22.33.33,0,0,1,0,.14h0a.43.43,0,0,1,0,.16A1,1,0,0,1,438.1,62.8Z"/><path class="cls-5" d="M437.57,61.7a1.29,1.29,0,0,0-1.13.14L390.63,88.26A3.68,3.68,0,0,0,389,91.13v5.41l-4.25-2.45V88.71a3.61,3.61,0,0,1,1.65-2.86L432.2,59.44a1.15,1.15,0,0,1,1.2-.1C433.7,59.52,437.21,61.52,437.57,61.7Z"/><path class="cls-5" d="M438.1,62.79c0-1-.74-1.47-1.66-.94L390.63,88.26A3.68,3.68,0,0,0,389,91.13v5.42L438.1,68.24Z"/><g class="cls-6"><path class="cls-1" d="M436.46,61.84,390.64,88.26a3.29,3.29,0,0,0-1.17,1.23l-4.25-2.43a3.31,3.31,0,0,1,1.16-1.22l45.81-26.4a1.15,1.15,0,0,1,1.2-.1c.29.18,3.81,2.17,4.16,2.36A1.24,1.24,0,0,0,436.46,61.84Z"/></g><path class="cls-7" d="M384.73,94.09V88.71a3.29,3.29,0,0,1,.5-1.65l4.25,2.42a3.28,3.28,0,0,0-.5,1.64v5.42Z"/><path class="cls-4" d="M428.71,68.61a2.46,2.46,0,0,0-.93,2c0,.79.42,1.2.94.87a2.46,2.46,0,0,0,.93-2C429.64,68.71,429.23,68.29,428.71,68.61Z"/><path class="cls-4" d="M432.12,66.66a2.48,2.48,0,0,0-.94,2c0,.79.42,1.19.94.86a2.46,2.46,0,0,0,.87-1.94C433,66.76,432.59,66.36,432.12,66.66Z"/><path class="cls-4" d="M435.45,64.71a2.44,2.44,0,0,0-.94,2c0,.8.41,1.2.94.87a2.52,2.52,0,0,0,.93-2C436.38,64.81,436,64.41,435.45,64.71Z"/><path class="cls-13" d="M389.56,171.85l-.2-.12-4-2.27a1.47,1.47,0,0,1-.51-.57,2,2,0,0,1-.19-.87V94.08L389,96.53v73.94a2,2,0,0,0,.17.86A1.37,1.37,0,0,0,389.56,171.85Z"/><path class="cls-5" d="M393.12,101a.56.56,0,0,1,.09-.31l1.2-2.49.06-.08h0a.07.07,0,0,1,.1,0,.24.24,0,0,1,0,.12v.87a1.13,1.13,0,0,1,0,.26,1.45,1.45,0,0,1-.09.22l-.57,1.28.63.58a.38.38,0,0,1,.09.13.89.89,0,0,1,0,.23v.87a.48.48,0,0,1,0,.17.22.22,0,0,1-.1.11h0a.06.06,0,0,1-.06,0l-1.2-1.09a.25.25,0,0,1-.08-.22Z"/><path class="cls-5" d="M397.53,94.71a1.83,1.83,0,0,1,.08-.25.58.58,0,0,1,.19-.19l.45-.26a.07.07,0,0,1,.09,0,.13.13,0,0,1,0,.12.17.17,0,0,1,0,.1l-2,8.8a1.13,1.13,0,0,1-.08.24.37.37,0,0,1-.19.2l-.43.25a.07.07,0,0,1-.09,0,.13.13,0,0,1,0-.12v-.1Z"/><path class="cls-5" d="M400.72,97.19a.65.65,0,0,1-.08.31l-1.21,2.5-.05.07h0a.09.09,0,0,1-.1,0,.29.29,0,0,1,0-.13v-.86a1.13,1.13,0,0,1,0-.26.92.92,0,0,1,.09-.23l.63-1.32-.63-.58a.38.38,0,0,1-.09-.13.89.89,0,0,1,0-.23v-.87a.43.43,0,0,1,0-.16.29.29,0,0,1,.1-.12h.05l1.21,1.11a.24.24,0,0,1,.08.21Z"/><path class="cls-5" d="M404.07,96.62a.08.08,0,0,1,.11,0,.17.17,0,0,1,.05.15v.92a.46.46,0,0,1-.05.21.26.26,0,0,1-.11.14l-.58.33a.08.08,0,0,1-.11,0,.19.19,0,0,1,0-.15v-.93a.45.45,0,0,1,0-.2.39.39,0,0,1,.08-.14Z"/><path class="cls-5" d="M406,95.51a.11.11,0,0,1,.11,0,.19.19,0,0,1,.05.16v.93a.35.35,0,0,1-.05.2A.33.33,0,0,1,406,97l-.57.33a.09.09,0,0,1-.12,0,.28.28,0,0,1,0-.16v-.93a.54.54,0,0,1,0-.21.53.53,0,0,1,.12-.14Z"/><path class="cls-5" d="M407.86,94.42a.09.09,0,0,1,.12,0,.21.21,0,0,1,0,.15v.92a.54.54,0,0,1,0,.21.24.24,0,0,1-.12.14l-.56.33a.09.09,0,0,1-.12,0,.19.19,0,0,1,0-.15V95.1a.37.37,0,0,1,0-.21.28.28,0,0,1,.12-.14Z"/><path class="cls-5" d="M393.63,107.67l27.79-16.06c.33-.19.6-.06.6.3a1.27,1.27,0,0,1-.6,1L393.63,109c-.33.18-.59,0-.59-.31A1.3,1.3,0,0,1,393.63,107.67Z"/><path class="cls-11" d="M402.59,118l27.79-16.06c.33-.19.6-.06.6.3a1.27,1.27,0,0,1-.6,1l-27.79,16.07c-.33.18-.59,0-.59-.31A1.3,1.3,0,0,1,402.59,118Z"/><path class="cls-11" d="M402.59,128.29l13.32-7.68c.33-.19.59-.06.59.3a1.25,1.25,0,0,1-.59,1l-13.32,7.69c-.33.18-.59,0-.59-.31A1.3,1.3,0,0,1,402.59,128.29Z"/><path class="cls-5" d="M423.76,90.28l11.09-6.43c.33-.18.6,0,.6.31a1.34,1.34,0,0,1-.6,1l-11.09,6.41c-.33.19-.59.06-.59-.29A1.27,1.27,0,0,1,423.76,90.28Z"/><path class="cls-5" d="M393.63,164.37l27.79-16.07c.33-.19.6-.05.6.31a1.29,1.29,0,0,1-.6,1l-27.79,16.05c-.33.19-.59.06-.59-.29A1.29,1.29,0,0,1,393.63,164.37Z"/><path class="cls-5" d="M423.76,147l11.09-6.42c.33-.2.6-.06.6.3a1.32,1.32,0,0,1-.6,1l-11.09,6.42c-.33.19-.59.06-.59-.3A1.3,1.3,0,0,1,423.76,147Z"/><path class="cls-5" d="M423.76,131.54l11.09-6.43c.33-.19.6,0,.6.31a1.28,1.28,0,0,1-.6,1l-11.09,6.42c-.33.2-.59.06-.59-.3A1.27,1.27,0,0,1,423.76,131.54Z"/><path class="cls-5" d="M423.76,136.69l11.09-6.43c.33-.18.6,0,.6.31a1.34,1.34,0,0,1-.6,1L423.76,138c-.33.19-.59.06-.59-.3A1.29,1.29,0,0,1,423.76,136.69Z"/><path class="cls-5" d="M414.31,137l6.22-3.6c.33-.19.6,0,.6.3a1.25,1.25,0,0,1-.6,1l-6.22,3.6c-.33.19-.59,0-.59-.3A1.22,1.22,0,0,1,414.31,137Z"/><path class="cls-5" d="M393.63,112.84l16.23-9.38c.33-.19.6,0,.6.31a1.29,1.29,0,0,1-.6,1l-16.23,9.37c-.33.19-.59.06-.59-.3A1.3,1.3,0,0,1,393.63,112.84Z"/><path class="cls-9" d="M393.63,112.84l16.23-9.38c.33-.19.6,0,.6.31a1.29,1.29,0,0,1-.6,1l-16.23,9.37c-.33.19-.59.06-.59-.3A1.3,1.3,0,0,1,393.63,112.84Z"/><path class="cls-5" d="M393.63,118l5.49-3.18c.33-.19.6,0,.6.31a1.29,1.29,0,0,1-.6.94l-5.51,3.19c-.33.19-.59.05-.59-.3A1.28,1.28,0,0,1,393.63,118Z"/><path class="cls-9" d="M393.63,118l5.49-3.18c.33-.19.6,0,.6.31a1.29,1.29,0,0,1-.6.94l-5.51,3.19c-.33.19-.59.05-.59-.3A1.28,1.28,0,0,1,393.63,118Z"/><path class="cls-5" d="M393.63,123.14l5.5-3.19c.33-.18.6,0,.6.31a1.32,1.32,0,0,1-.61,1l-5.51,3.17c-.33.2-.59.06-.59-.29A1.27,1.27,0,0,1,393.63,123.14Z"/><path class="cls-9" d="M393.63,123.14l5.5-3.19c.33-.18.6,0,.6.31a1.32,1.32,0,0,1-.61,1l-5.51,3.17c-.33.2-.59.06-.59-.29A1.27,1.27,0,0,1,393.63,123.14Z"/><path class="cls-5" d="M393.63,128.29l5.5-3.18c.33-.19.6,0,.6.31a1.25,1.25,0,0,1-.6,1l-5.5,3.19c-.33.19-.59,0-.59-.31A1.3,1.3,0,0,1,393.63,128.29Z"/><path class="cls-9" d="M393.63,128.29l5.5-3.18c.33-.19.6-.06.6.3a1.29,1.29,0,0,1-.6,1l-5.5,3.19c-.33.18-.59,0-.59-.31A1.3,1.3,0,0,1,393.63,128.29Z"/><path class="cls-5" d="M402.59,123.14l16.23-9.38c.33-.19.6-.05.6.31a1.25,1.25,0,0,1-.6,1l-16.23,9.38c-.33.19-.59,0-.59-.31A1.27,1.27,0,0,1,402.59,123.14Z"/><path class="cls-5" d="M421.1,112.43l7-4.06c.33-.19.6-.05.6.3a1.24,1.24,0,0,1-.6,1l-7,4.07c-.33.19-.6,0-.6-.31A1.25,1.25,0,0,1,421.1,112.43Z"/><path class="cls-9" d="M402.59,123.14l16.23-9.38c.33-.19.6-.05.6.31a1.25,1.25,0,0,1-.6,1l-16.23,9.38c-.33.19-.59,0-.59-.31A1.27,1.27,0,0,1,402.59,123.14Z"/><path class="cls-9" d="M421.1,112.43l7-4.06c.33-.19.6-.05.6.3a1.24,1.24,0,0,1-.6,1l-7,4.07c-.33.19-.6,0-.6-.31A1.25,1.25,0,0,1,421.1,112.43Z"/><path class="cls-5" d="M393.63,133.42l5.5-3.18c.33-.19.6-.06.6.3a1.27,1.27,0,0,1-.6,1l-5.5,3.18c-.33.19-.59.06-.59-.3A1.3,1.3,0,0,1,393.63,133.42Z"/><path class="cls-9" d="M393.63,133.42l5.5-3.18c.33-.19.6-.06.6.3a1.27,1.27,0,0,1-.6,1l-5.5,3.18c-.33.19-.59.06-.59-.3A1.3,1.3,0,0,1,393.63,133.42Z"/><path class="cls-5" d="M393.63,149.19l5.5-3.19c.33-.19.6-.05.6.3a1.27,1.27,0,0,1-.61,1l-5.51,3.18c-.33.19-.59.05-.59-.31A1.23,1.23,0,0,1,393.63,149.19Z"/><path class="cls-9" d="M393.63,149.19l5.5-3.19c.33-.19.6-.05.6.3a1.27,1.27,0,0,1-.61,1l-5.51,3.18c-.33.19-.59.05-.59-.31A1.23,1.23,0,0,1,393.63,149.19Z"/><path class="cls-5" d="M393.63,154.34l5.5-3.18c.33-.19.6-.06.6.29a1.25,1.25,0,0,1-.6,1l-5.5,3.19c-.33.18-.59.05-.59-.3A1.27,1.27,0,0,1,393.63,154.34Z"/><path class="cls-9" d="M393.63,154.34l5.5-3.18c.33-.19.6-.06.6.29a1.25,1.25,0,0,1-.6,1l-5.5,3.18c-.33.19-.59.06-.59-.29A1.27,1.27,0,0,1,393.63,154.34Z"/><path class="cls-5" d="M393.63,159.48l5.5-3.19c.33-.19.6,0,.6.31a1.29,1.29,0,0,1-.6,1l-5.5,3.17c-.33.2-.59.06-.59-.3A1.27,1.27,0,0,1,393.63,159.48Z"/><path class="cls-9" d="M393.63,159.48l5.5-3.19c.33-.19.6,0,.6.31a1.29,1.29,0,0,1-.6,1l-5.5,3.17c-.33.2-.59.06-.59-.3A1.27,1.27,0,0,1,393.63,159.48Z"/><path class="cls-5" d="M412.14,102.16l7.06-4.07c.33-.19.6,0,.6.31a1.34,1.34,0,0,1-.6,1l-7.06,4c-.33.19-.59.06-.59-.3A1.28,1.28,0,0,1,412.14,102.16Z"/><path class="cls-9" d="M412.14,102.16l7.06-4.07c.33-.19.6,0,.6.31a1.34,1.34,0,0,1-.6,1l-7.06,4c-.33.19-.59.06-.59-.3A1.28,1.28,0,0,1,412.14,102.16Z"/><path class="cls-10" d="M409.25,129.58l16.23-9.38c.33-.19.6,0,.6.3a1.24,1.24,0,0,1-.6,1l-16.23,9.38c-.33.19-.59,0-.59-.3A1.27,1.27,0,0,1,409.25,129.58Z"/><path class="cls-10" d="M418.61,129.34,434.85,120c.33-.19.6,0,.6.31a1.34,1.34,0,0,1-.6,1l-16.24,9.37c-.32.19-.59.06-.59-.3A1.3,1.3,0,0,1,418.61,129.34Z"/><path class="cls-10" d="M427.78,118.87l7.05-4.07c.33-.19.6,0,.6.31a1.28,1.28,0,0,1-.6,1l-7.05,4.06c-.33.19-.6.06-.6-.3A1.24,1.24,0,0,1,427.78,118.87Z"/><path class="cls-11" d="M427.78,139.28l7.05-4.06c.33-.19.6-.06.6.3a1.31,1.31,0,0,1-.6,1l-7.05,4.06c-.33.18-.6.05-.6-.3A1.25,1.25,0,0,1,427.78,139.28Z"/><path class="cls-5" d="M402.59,112.83l16.23-9.38c.33-.19.6,0,.6.31a1.29,1.29,0,0,1-.6,1l-16.23,9.37c-.33.19-.59.06-.59-.3A1.3,1.3,0,0,1,402.59,112.83Z"/><path class="cls-9" d="M402.59,112.83l16.23-9.38c.33-.19.6,0,.6.31a1.29,1.29,0,0,1-.6,1l-16.23,9.37c-.33.19-.59.06-.59-.3A1.3,1.3,0,0,1,402.59,112.83Z"/><path class="cls-5" d="M421.1,102.16l7-4.07c.33-.19.6,0,.6.31a1.29,1.29,0,0,1-.6,1l-7,4c-.33.2-.6.06-.6-.29A1.27,1.27,0,0,1,421.1,102.16Z"/><path class="cls-9" d="M421.1,102.16l7-4.07c.33-.19.6,0,.6.31a1.29,1.29,0,0,1-.6,1l-7,4c-.33.2-.6.06-.6-.29A1.27,1.27,0,0,1,421.1,102.16Z"/><path class="cls-13" d="M384.75,142.2l-9.31,9.31a1.42,1.42,0,0,0-.15,2,1.44,1.44,0,0,0,.33.28c.31.19,3.48,2,4.16,2.43a1.39,1.39,0,0,0,1.17.18l8-2v-9.69Z"/><path class="cls-4" d="M389,144.65,379.64,154a1.41,1.41,0,0,0,1.31,2.42l8-2Z"/></g></g></g></g></svg>